G04*
G04 #@! TF.GenerationSoftware,Altium Limited,Altium Designer,18.1.9 (240)*
G04*
G04 Layer_Color=65535*
%FSLAX24Y24*%
%MOIN*%
G70*
G01*
G75*
%ADD10C,0.0070*%
%ADD11C,0.0060*%
G04:AMPARAMS|DCode=12|XSize=22.6mil|YSize=20.7mil|CornerRadius=0mil|HoleSize=0mil|Usage=FLASHONLY|Rotation=135.000|XOffset=0mil|YOffset=0mil|HoleType=Round|Shape=Rectangle|*
%AMROTATEDRECTD12*
4,1,4,0.0153,-0.0007,0.0007,-0.0153,-0.0153,0.0007,-0.0007,0.0153,0.0153,-0.0007,0.0*
%
%ADD12ROTATEDRECTD12*%

%ADD13R,0.0226X0.0207*%
G04:AMPARAMS|DCode=14|XSize=22.6mil|YSize=20.7mil|CornerRadius=0mil|HoleSize=0mil|Usage=FLASHONLY|Rotation=225.000|XOffset=0mil|YOffset=0mil|HoleType=Round|Shape=Rectangle|*
%AMROTATEDRECTD14*
4,1,4,0.0007,0.0153,0.0153,0.0007,-0.0007,-0.0153,-0.0153,-0.0007,0.0007,0.0153,0.0*
%
%ADD14ROTATEDRECTD14*%

%ADD15R,0.0207X0.0226*%
G04:AMPARAMS|DCode=16|XSize=23.6mil|YSize=54.1mil|CornerRadius=0mil|HoleSize=0mil|Usage=FLASHONLY|Rotation=315.000|XOffset=0mil|YOffset=0mil|HoleType=Round|Shape=Rectangle|*
%AMROTATEDRECTD16*
4,1,4,-0.0275,-0.0108,0.0108,0.0275,0.0275,0.0108,-0.0108,-0.0275,-0.0275,-0.0108,0.0*
%
%ADD16ROTATEDRECTD16*%

D10*
X3214Y3905D02*
Y4535D01*
X3726Y3905D02*
Y4535D01*
X828Y7904D02*
X1274Y7458D01*
X466Y7542D02*
X912Y7096D01*
X2594Y4235D02*
Y4865D01*
X3106Y4235D02*
Y4865D01*
X2416Y3895D02*
Y4525D01*
X1904Y3895D02*
Y4525D01*
X2818Y2884D02*
X3264Y2438D01*
X2456Y2522D02*
X2902Y2076D01*
X4825Y2064D02*
X5455D01*
X4825Y2576D02*
X5455D01*
X7536Y2858D02*
X7982Y3304D01*
X7898Y2496D02*
X8344Y2942D01*
X8486Y5175D02*
Y5805D01*
X7974Y5175D02*
Y5805D01*
X9128Y9694D02*
X9574Y9248D01*
X8766Y9332D02*
X9212Y8886D01*
X5175Y8616D02*
X5805D01*
X5175Y8104D02*
X5805D01*
X1813Y7595D02*
X2775Y8557D01*
X965Y8443D02*
X1927Y9405D01*
X1850Y4560D02*
Y5920D01*
X650Y4560D02*
Y5920D01*
X1943Y2915D02*
X2905Y1953D01*
X1095Y2067D02*
X2057Y1105D01*
X4570Y1840D02*
X5930D01*
X4570Y640D02*
X5930D01*
X7585Y1943D02*
X8547Y2905D01*
X8433Y1095D02*
X9395Y2057D01*
X8650Y4550D02*
Y5910D01*
X9850Y4550D02*
Y5910D01*
X7595Y8557D02*
X8557Y7595D01*
X8443Y9405D02*
X9405Y8443D01*
X4550Y8640D02*
X5910D01*
X4550Y9840D02*
X5910D01*
X3277Y5950D02*
X4530Y7203D01*
X4579Y7154D01*
X3277Y5950D02*
X3326Y5901D01*
X7154Y4579D02*
X7203Y4530D01*
X5901Y3326D02*
X5950Y3277D01*
X7203Y4530D01*
X560Y10210D02*
Y9960D01*
X685D01*
X727Y10002D01*
Y10043D01*
X685Y10085D01*
X560D01*
X685D01*
X727Y10127D01*
Y10168D01*
X685Y10210D01*
X560D01*
X810D02*
Y9960D01*
X977D01*
X1060Y10210D02*
X1143D01*
X1101D01*
Y9960D01*
X1060D01*
X1143D01*
X1268D02*
Y10210D01*
X1435Y9960D01*
Y10210D01*
X1518D02*
Y9960D01*
Y10043D01*
X1685Y10210D01*
X1560Y10085D01*
X1685Y9960D01*
X1768Y10210D02*
Y10168D01*
X1851Y10085D01*
X1935Y10168D01*
Y10210D01*
X1851Y10085D02*
Y9960D01*
X2268D02*
X2351D01*
X2309D01*
Y10210D01*
X2268Y10168D01*
X4200Y3192D02*
X4150Y3242D01*
X4050D01*
X4000Y3192D01*
Y3142D01*
X4050Y3092D01*
X4150D01*
X4200Y3042D01*
Y2992D01*
X4150Y2942D01*
X4050D01*
X4000Y2992D01*
X4170Y3500D02*
Y3700D01*
X4270Y3800D01*
X4370Y3700D01*
Y3500D01*
Y3650D01*
X4170D01*
D11*
X6410Y300D02*
Y550D01*
X6493Y467D01*
X6577Y550D01*
Y300D01*
X6702D02*
X6785D01*
X6827Y342D01*
Y425D01*
X6785Y467D01*
X6702D01*
X6660Y425D01*
Y342D01*
X6702Y300D01*
X6910Y467D02*
Y300D01*
Y383D01*
X6951Y425D01*
X6993Y467D01*
X7035D01*
X7243Y217D02*
X7285D01*
X7326Y258D01*
Y467D01*
X7201D01*
X7160Y425D01*
Y342D01*
X7201Y300D01*
X7326D01*
X7451Y467D02*
X7535D01*
X7576Y425D01*
Y300D01*
X7451D01*
X7410Y342D01*
X7451Y383D01*
X7576D01*
X7660Y300D02*
Y467D01*
X7785D01*
X7826Y425D01*
Y300D01*
X8326Y508D02*
X8284Y550D01*
X8201D01*
X8159Y508D01*
Y342D01*
X8201Y300D01*
X8284D01*
X8326Y342D01*
Y425D01*
X8243D01*
X8409Y467D02*
Y300D01*
Y383D01*
X8451Y425D01*
X8493Y467D01*
X8534D01*
X8701Y300D02*
X8784D01*
X8826Y342D01*
Y425D01*
X8784Y467D01*
X8701D01*
X8659Y425D01*
Y342D01*
X8701Y300D01*
X8909D02*
Y467D01*
X9034D01*
X9076Y425D01*
Y300D01*
X9201Y467D02*
X9284D01*
X9326Y425D01*
Y300D01*
X9201D01*
X9159Y342D01*
X9201Y383D01*
X9326D01*
X3470Y6980D02*
Y6730D01*
X3520Y6680D01*
X3620D01*
X3670Y6730D01*
Y6980D01*
X3770Y6680D02*
X3870D01*
X3820D01*
Y6980D01*
X3770Y6930D01*
X5360Y7725D02*
Y7925D01*
X5460D01*
X5493Y7892D01*
Y7825D01*
X5460Y7792D01*
X5360D01*
X5427D02*
X5493Y7725D01*
X5560D02*
X5627D01*
X5593D01*
Y7925D01*
X5560Y7892D01*
X5727D02*
X5760Y7925D01*
X5827D01*
X5860Y7892D01*
Y7758D01*
X5827Y7725D01*
X5760D01*
X5727Y7758D01*
Y7892D01*
X8850Y9850D02*
Y10050D01*
X8950D01*
X8983Y10017D01*
Y9950D01*
X8950Y9917D01*
X8850D01*
X8917D02*
X8983Y9850D01*
X9050Y9883D02*
X9083Y9850D01*
X9150D01*
X9183Y9883D01*
Y10017D01*
X9150Y10050D01*
X9083D01*
X9050Y10017D01*
Y9983D01*
X9083Y9950D01*
X9183D01*
X8010Y6090D02*
Y6290D01*
X8110D01*
X8143Y6257D01*
Y6190D01*
X8110Y6157D01*
X8010D01*
X8077D02*
X8143Y6090D01*
X8210Y6257D02*
X8243Y6290D01*
X8310D01*
X8343Y6257D01*
Y6223D01*
X8310Y6190D01*
X8343Y6157D01*
Y6123D01*
X8310Y6090D01*
X8243D01*
X8210Y6123D01*
Y6157D01*
X8243Y6190D01*
X8210Y6223D01*
Y6257D01*
X8243Y6190D02*
X8310D01*
X7840Y3490D02*
Y3690D01*
X7940D01*
X7973Y3657D01*
Y3590D01*
X7940Y3557D01*
X7840D01*
X7907D02*
X7973Y3490D01*
X8040Y3690D02*
X8173D01*
Y3657D01*
X8040Y3523D01*
Y3490D01*
X4980Y2700D02*
Y2900D01*
X5080D01*
X5113Y2867D01*
Y2800D01*
X5080Y2767D01*
X4980D01*
X5047D02*
X5113Y2700D01*
X5313Y2900D02*
X5247Y2867D01*
X5180Y2800D01*
Y2733D01*
X5213Y2700D01*
X5280D01*
X5313Y2733D01*
Y2767D01*
X5280Y2800D01*
X5180D01*
X3360Y2390D02*
Y2590D01*
X3460D01*
X3493Y2557D01*
Y2490D01*
X3460Y2457D01*
X3360D01*
X3427D02*
X3493Y2390D01*
X3693Y2590D02*
X3560D01*
Y2490D01*
X3627Y2523D01*
X3660D01*
X3693Y2490D01*
Y2423D01*
X3660Y2390D01*
X3593D01*
X3560Y2423D01*
X2070Y4770D02*
Y4970D01*
X2170D01*
X2203Y4937D01*
Y4870D01*
X2170Y4837D01*
X2070D01*
X2137D02*
X2203Y4770D01*
X2370D02*
Y4970D01*
X2270Y4870D01*
X2403D01*
X2680Y3710D02*
Y3910D01*
X2780D01*
X2813Y3877D01*
Y3810D01*
X2780Y3777D01*
X2680D01*
X2747D02*
X2813Y3710D01*
X2880Y3877D02*
X2913Y3910D01*
X2980D01*
X3013Y3877D01*
Y3843D01*
X2980Y3810D01*
X2947D01*
X2980D01*
X3013Y3777D01*
Y3743D01*
X2980Y3710D01*
X2913D01*
X2880Y3743D01*
X350Y8090D02*
Y8290D01*
X450D01*
X483Y8257D01*
Y8190D01*
X450Y8157D01*
X350D01*
X417D02*
X483Y8090D01*
X683D02*
X550D01*
X683Y8223D01*
Y8257D01*
X650Y8290D01*
X583D01*
X550Y8257D01*
X2640Y9440D02*
Y9140D01*
X2790D01*
X2840Y9190D01*
Y9390D01*
X2790Y9440D01*
X2640D01*
X2940Y9390D02*
X2990Y9440D01*
X3090D01*
X3140Y9390D01*
Y9340D01*
X3090Y9290D01*
X3140Y9240D01*
Y9190D01*
X3090Y9140D01*
X2990D01*
X2940Y9190D01*
Y9240D01*
X2990Y9290D01*
X2940Y9340D01*
Y9390D01*
X2990Y9290D02*
X3090D01*
X560Y4190D02*
Y3890D01*
X710D01*
X760Y3940D01*
Y4140D01*
X710Y4190D01*
X560D01*
X860D02*
X1060D01*
Y4140D01*
X860Y3940D01*
Y3890D01*
X2456Y1080D02*
Y780D01*
X2606D01*
X2656Y830D01*
Y1030D01*
X2606Y1080D01*
X2456D01*
X2956D02*
X2856Y1030D01*
X2756Y930D01*
Y830D01*
X2806Y780D01*
X2906D01*
X2956Y830D01*
Y880D01*
X2906Y930D01*
X2756D01*
X5950Y2275D02*
Y1975D01*
X6100D01*
X6150Y2025D01*
Y2225D01*
X6100Y2275D01*
X5950D01*
X6450D02*
X6250D01*
Y2125D01*
X6350Y2175D01*
X6400D01*
X6450Y2125D01*
Y2025D01*
X6400Y1975D01*
X6300D01*
X6250Y2025D01*
X9100Y3100D02*
Y2800D01*
X9250D01*
X9300Y2850D01*
Y3050D01*
X9250Y3100D01*
X9100D01*
X9550Y2800D02*
Y3100D01*
X9400Y2950D01*
X9600D01*
X9270Y6510D02*
Y6210D01*
X9420D01*
X9470Y6260D01*
Y6460D01*
X9420Y6510D01*
X9270D01*
X9570Y6460D02*
X9620Y6510D01*
X9720D01*
X9770Y6460D01*
Y6410D01*
X9720Y6360D01*
X9670D01*
X9720D01*
X9770Y6310D01*
Y6260D01*
X9720Y6210D01*
X9620D01*
X9570Y6260D01*
X9190Y7790D02*
Y7490D01*
X9340D01*
X9390Y7540D01*
Y7740D01*
X9340Y7790D01*
X9190D01*
X9690Y7490D02*
X9490D01*
X9690Y7690D01*
Y7740D01*
X9640Y7790D01*
X9540D01*
X9490Y7740D01*
X3890Y9430D02*
Y9130D01*
X4040D01*
X4090Y9180D01*
Y9380D01*
X4040Y9430D01*
X3890D01*
X4190Y9130D02*
X4290D01*
X4240D01*
Y9430D01*
X4190Y9380D01*
X3423Y4927D02*
X3390Y4960D01*
X3323D01*
X3290Y4927D01*
Y4793D01*
X3323Y4760D01*
X3390D01*
X3423Y4793D01*
X3490Y4760D02*
X3557D01*
X3523D01*
Y4960D01*
X3490Y4927D01*
D12*
X1828Y9412D02*
D03*
X2782Y8458D02*
D03*
X8532Y1088D02*
D03*
X7578Y2042D02*
D03*
D13*
X576Y5855D02*
D03*
X1924Y5855D02*
D03*
X9924Y4615D02*
D03*
X8576Y4615D02*
D03*
D14*
X1088Y1968D02*
D03*
X2042Y2922D02*
D03*
X9412Y8542D02*
D03*
X8458Y7588D02*
D03*
D15*
X4635Y566D02*
D03*
Y1914D02*
D03*
X5845Y9914D02*
D03*
X5845Y8566D02*
D03*
D16*
X3149Y5835D02*
D03*
M02*
