G04*
G04 #@! TF.GenerationSoftware,Altium Limited,Altium Designer,18.1.9 (240)*
G04*
G04 Layer_Color=9048648*
%FSLAX24Y24*%
%MOIN*%
G70*
G01*
G75*
%ADD10C,0.0070*%
%ADD37C,0.0050*%
%ADD44R,0.0300X0.0800*%
D10*
X70Y8350D02*
X210D01*
X3650D02*
X3790D01*
X3650Y9650D02*
X3790D01*
X7560Y7100D02*
X8193D01*
X2285D02*
X2960D01*
X1090Y6004D02*
X2285Y7100D01*
X1090Y5400D02*
Y6004D01*
Y2393D02*
Y3050D01*
Y2393D02*
X3036Y1096D01*
X3225Y1285D01*
X9390Y2390D02*
Y3100D01*
X7440Y1090D02*
X9390Y2390D01*
X7270Y1260D02*
X7440Y1090D01*
X9390Y5400D02*
Y6003D01*
X8193Y7100D02*
X9390Y6003D01*
X5130Y1040D02*
X5330D01*
X5380Y990D01*
X5080D02*
X5380D01*
X5230Y1140D02*
X5430Y940D01*
X5030D02*
X5430D01*
X5030D02*
X5230Y1140D01*
Y357D02*
Y1140D01*
D37*
X3800Y7860D02*
Y10140D01*
X60D02*
X3800D01*
X60Y7860D02*
X3800D01*
X60D02*
Y10140D01*
X7440Y7800D02*
Y10160D01*
X9800D01*
X7440Y7800D02*
X9800D01*
Y10160D01*
X7970Y9000D02*
X8410D01*
Y8660D02*
Y9340D01*
D44*
X170Y9760D02*
D03*
M02*
