G04*
G04 #@! TF.GenerationSoftware,Altium Limited,Altium Designer,18.1.9 (240)*
G04*
G04 Layer_Physical_Order=2*
G04 Layer_Color=16711680*
%FSLAX24Y24*%
%MOIN*%
G70*
G01*
G75*
%ADD10C,0.0070*%
%ADD17R,0.0350X0.0310*%
%ADD27C,0.0300*%
%ADD28C,0.0260*%
%ADD29C,0.0100*%
%ADD30C,0.0700*%
%ADD31R,0.0276X0.0354*%
%ADD32R,0.0248X0.0787*%
%ADD33R,0.0800X0.0550*%
%ADD34C,0.7000*%
%ADD35R,0.1098X0.2000*%
D10*
X6438Y7013D02*
Y7128D01*
X7405Y8095D01*
X7520D01*
D17*
X6590Y9720D02*
D03*
Y9100D02*
D03*
D27*
X1530Y6540D02*
D03*
X930D02*
D03*
D28*
X4120Y5387D02*
D03*
X1520Y8890D02*
D03*
X440Y9200D02*
D03*
X2786Y7356D02*
D03*
X2440Y7170D02*
D03*
X2750Y7725D02*
D03*
X3750Y7590D02*
D03*
X620Y2240D02*
D03*
X9910Y2280D02*
D03*
X3460Y3530D02*
D03*
X6170Y10140D02*
D03*
X8330Y7620D02*
D03*
X2357Y3201D02*
D03*
X690Y7096D02*
D03*
X940Y8910D02*
D03*
X1940Y7220D02*
D03*
X2380Y5710D02*
D03*
X1220Y9170D02*
D03*
X10170Y6900D02*
D03*
X4230Y1890D02*
D03*
X7029Y1730D02*
D03*
X8520Y4640D02*
D03*
X6320Y8530D02*
D03*
X8060Y8095D02*
D03*
D29*
X1520Y8890D02*
X1940Y9310D01*
Y9768D01*
X2786Y7356D02*
X3100Y7670D01*
X3150D01*
X2750Y7710D02*
Y7760D01*
X2940Y7950D01*
Y8232D01*
X2440Y7170D02*
Y8232D01*
X3750Y7590D02*
Y9190D01*
Y7590D02*
X5020Y6320D01*
X3440Y9500D02*
X3750Y9190D01*
X3440Y9500D02*
Y9768D01*
X620Y3885D02*
X915Y4180D01*
X620Y2240D02*
Y3885D01*
X9910Y2280D02*
Y3400D01*
X9565Y3745D02*
X9910Y3400D01*
X9565Y3745D02*
Y4180D01*
X3980Y10140D02*
X6170D01*
X6590Y9720D01*
Y9100D02*
X6640D01*
X7635Y9865D02*
X9720D01*
X7520D02*
X7635D01*
X7405D02*
X7520D01*
X6640Y9100D02*
X7405Y9865D01*
X7635D02*
X8330Y9170D01*
Y7620D02*
Y9170D01*
X6320Y5260D02*
X8384Y7324D01*
X5240Y4180D02*
X6320Y5260D01*
X8384Y7324D02*
X9594D01*
X690Y7096D02*
Y9014D01*
X1290Y6950D02*
X2040D01*
X940Y6600D02*
X1290Y6950D01*
X2440Y10050D02*
Y10060D01*
Y9768D02*
Y10050D01*
X690Y9014D02*
X700Y9024D01*
Y9314D01*
X696Y9318D02*
X700Y9314D01*
X696Y9318D02*
Y10211D01*
X835Y10350D01*
X2150D01*
X2440Y10060D01*
X2040Y6950D02*
X2190Y7100D01*
Y7324D01*
X2190Y7324D02*
X2190Y7324D01*
X2190Y7324D02*
Y8750D01*
X3150Y7670D02*
X3440Y7960D01*
X1940Y7220D02*
Y8232D01*
X2190Y8750D02*
X2940Y9500D01*
Y9768D01*
X2440Y9480D02*
Y9768D01*
X1440Y9310D02*
Y9768D01*
X1300Y9170D02*
X1440Y9310D01*
X1220Y9170D02*
X1300D01*
X940Y8910D02*
Y9768D01*
X3820Y10300D02*
X3980Y10140D01*
X2690Y10300D02*
X3820D01*
X2440Y10050D02*
X2690Y10300D01*
X10106Y6964D02*
X10170Y6900D01*
X10106Y6964D02*
Y7324D01*
X6320Y5260D02*
Y8530D01*
X9565Y4180D02*
X9610Y4225D01*
Y5270D01*
X9850Y5510D01*
Y6576D01*
X7520Y8095D02*
X8060D01*
X3440Y7960D02*
Y8232D01*
X5020Y4400D02*
Y6320D01*
Y4400D02*
X5240Y4180D01*
X440Y9200D02*
Y9768D01*
X9720Y7850D02*
Y8095D01*
X9594Y7724D02*
X9720Y7850D01*
X9594Y7324D02*
Y7724D01*
D30*
X750Y750D02*
D03*
X9750D02*
D03*
D31*
X10106Y7324D02*
D03*
X9594D02*
D03*
X9850Y6576D02*
D03*
D32*
X3440Y8232D02*
D03*
X2940D02*
D03*
X2440D02*
D03*
X1940D02*
D03*
X1440D02*
D03*
X940D02*
D03*
X440D02*
D03*
X3440Y9768D02*
D03*
X2940D02*
D03*
X2440D02*
D03*
X1940D02*
D03*
X1440D02*
D03*
X940D02*
D03*
X440D02*
D03*
D33*
X7520Y8095D02*
D03*
X9720D02*
D03*
X7520Y9865D02*
D03*
X9720D02*
D03*
D34*
X5240Y4180D02*
D03*
D35*
X915D02*
D03*
X9565D02*
D03*
M02*
