M48
;Layer_Color=15461320
;FILE_FORMAT=2:4
INCH,LZ
;TYPE=PLATED
T1F00S00C0.0170
;TYPE=NON_PLATED
T2F00S00C0.0700
%
T01
X007029Y00173
X00991Y00228
X00852Y00464
X01017Y0069
X00412Y005387
X00238Y00571
X00244Y00717
X00194Y00722
X00153Y00654
X00093
X00069Y007096
X00062Y00224
X002357Y003201
X00346Y00353
X00423Y00189
X00375Y00759
X00275Y007725
X002786Y007356
X00152Y00889
X00122Y00917
X00094Y00891
X00044Y0092
X00632Y00853
X00617Y01014
X00806Y008095
X00833Y00762
T02
X00975Y00075
X00075
M30
