G04*
G04 #@! TF.GenerationSoftware,Altium Limited,Altium Designer,18.1.9 (240)*
G04*
G04 Layer_Color=32896*
%FSLAX24Y24*%
%MOIN*%
G70*
G01*
G75*
%ADD10C,0.0070*%
%ADD11C,0.0080*%
G36*
X1200Y13014D02*
Y11006D01*
X186Y12010D01*
X1200Y13014D01*
D02*
G37*
G36*
X13842Y12992D02*
Y10984D01*
X12828Y11988D01*
X13842Y12992D01*
D02*
G37*
D10*
Y990D02*
Y12992D01*
X11980Y990D02*
Y12990D01*
X9480Y10990D02*
X13842D01*
X9480Y12990D02*
X13842Y12992D01*
X10980Y990D02*
Y12990D01*
X9480Y990D02*
X13842D01*
X9462D02*
Y12990D01*
X9480Y8990D02*
X11980D01*
X9480Y2990D02*
X11980D01*
X-10Y10996D02*
X3692D01*
X-10Y13002D02*
X3692D01*
X-10Y1002D02*
X3692D01*
X1210Y9002D02*
X3692D01*
X1210Y5002D02*
X3692D01*
X1210Y3002D02*
X3692D01*
X2192Y1002D02*
Y13002D01*
X1192Y1002D02*
Y13002D01*
X3692Y1002D02*
Y13002D01*
X-10Y1002D02*
Y13002D01*
X5573Y10240D02*
X5740D01*
Y10115D01*
X5657D01*
X5740D01*
Y9990D01*
X5365D02*
X5449D01*
X5490Y10032D01*
Y10115D01*
X5449Y10157D01*
X5365D01*
X5324Y10115D01*
Y10073D01*
X5490D01*
X5240Y10240D02*
Y9990D01*
X5115D01*
X5074Y10032D01*
Y10073D01*
Y10115D01*
X5115Y10157D01*
X5240D01*
X4574Y9990D02*
X4740D01*
X4574Y10157D01*
Y10198D01*
X4615Y10240D01*
X4699D01*
X4740Y10198D01*
X4490D02*
X4449Y10240D01*
X4366D01*
X4324Y10198D01*
Y10032D01*
X4366Y9990D01*
X4449D01*
X4490Y10032D01*
Y10198D01*
X4241Y9990D02*
X4157D01*
X4199D01*
Y10240D01*
X4241Y10198D01*
X4032Y10032D02*
X3991Y9990D01*
X3907D01*
X3866Y10032D01*
Y10198D01*
X3907Y10240D01*
X3991D01*
X4032Y10198D01*
Y10157D01*
X3991Y10115D01*
X3866D01*
X8000Y11170D02*
X7917D01*
X7958D01*
Y10920D01*
X8000D01*
X7917D01*
X7792D02*
Y11170D01*
X7708Y11087D01*
X7625Y11170D01*
Y10920D01*
X7542Y11170D02*
Y10962D01*
X7500Y10920D01*
X7417D01*
X7375Y10962D01*
Y11170D01*
X7292Y11045D02*
X7125D01*
X7042Y10920D02*
Y11170D01*
X6917D01*
X6875Y11128D01*
Y11045D01*
X6917Y11003D01*
X7042D01*
X6625Y11128D02*
X6667Y11170D01*
X6750D01*
X6792Y11128D01*
Y10962D01*
X6750Y10920D01*
X6667D01*
X6625Y10962D01*
X6542Y11170D02*
Y10920D01*
X6417D01*
X6376Y10962D01*
Y11003D01*
X6417Y11045D01*
X6542D01*
X6417D01*
X6376Y11087D01*
Y11128D01*
X6417Y11170D01*
X6542D01*
X6292Y11045D02*
X6126D01*
X5959Y10920D02*
X6042Y11003D01*
Y11087D01*
X5959Y11170D01*
X5834D02*
Y10920D01*
X5709D01*
X5667Y10962D01*
Y11003D01*
X5709Y11045D01*
X5834D01*
X5709D01*
X5667Y11087D01*
Y11128D01*
X5709Y11170D01*
X5834D01*
X5584Y10920D02*
X5501D01*
X5542D01*
Y11170D01*
X5584D01*
X5334Y11087D02*
X5251D01*
X5209Y11045D01*
Y10920D01*
X5334D01*
X5376Y10962D01*
X5334Y11003D01*
X5209D01*
X4959Y11170D02*
Y10920D01*
X5084D01*
X5126Y10962D01*
Y11045D01*
X5084Y11087D01*
X4959D01*
X4751Y10920D02*
X4834D01*
X4876Y10962D01*
Y11045D01*
X4834Y11087D01*
X4751D01*
X4709Y11045D01*
Y11003D01*
X4876D01*
X4626Y10920D02*
X4543Y11003D01*
Y11087D01*
X4626Y11170D01*
X4418Y11045D02*
X4251D01*
X4168Y11128D02*
X4126Y11170D01*
X4043D01*
X4001Y11128D01*
Y10962D01*
X4043Y10920D01*
X4126D01*
X4168Y10962D01*
Y11128D01*
X3918Y10920D02*
X3835D01*
X3876D01*
Y11170D01*
X3918Y11128D01*
X6780Y10474D02*
Y10724D01*
X6697Y10640D01*
X6613Y10724D01*
Y10474D01*
X6489D02*
X6405D01*
X6364Y10515D01*
Y10599D01*
X6405Y10640D01*
X6489D01*
X6530Y10599D01*
Y10515D01*
X6489Y10474D01*
X6280Y10640D02*
Y10474D01*
Y10557D01*
X6239Y10599D01*
X6197Y10640D01*
X6155D01*
X5947Y10390D02*
X5905D01*
X5864Y10432D01*
Y10640D01*
X5989D01*
X6030Y10599D01*
Y10515D01*
X5989Y10474D01*
X5864D01*
X5739Y10640D02*
X5655D01*
X5614Y10599D01*
Y10474D01*
X5739D01*
X5780Y10515D01*
X5739Y10557D01*
X5614D01*
X5530Y10474D02*
Y10640D01*
X5406D01*
X5364Y10599D01*
Y10474D01*
X4864Y10682D02*
X4906Y10724D01*
X4989D01*
X5031Y10682D01*
Y10515D01*
X4989Y10474D01*
X4906D01*
X4864Y10515D01*
Y10599D01*
X4947D01*
X4781Y10640D02*
Y10474D01*
Y10557D01*
X4739Y10599D01*
X4697Y10640D01*
X4656D01*
X4489Y10474D02*
X4406D01*
X4364Y10515D01*
Y10599D01*
X4406Y10640D01*
X4489D01*
X4531Y10599D01*
Y10515D01*
X4489Y10474D01*
X4281D02*
Y10640D01*
X4156D01*
X4114Y10599D01*
Y10474D01*
X3989Y10640D02*
X3906D01*
X3864Y10599D01*
Y10474D01*
X3989D01*
X4031Y10515D01*
X3989Y10557D01*
X3864D01*
X10811Y1338D02*
Y1538D01*
X10711Y1638D01*
X10611Y1538D01*
Y1338D01*
Y1488D01*
X10811D01*
X10511Y1338D02*
Y1638D01*
X10311Y1338D01*
Y1638D01*
X10211Y1588D02*
X10161Y1638D01*
X10061D01*
X10011Y1588D01*
Y1388D01*
X10061Y1338D01*
X10161D01*
X10211Y1388D01*
Y1588D01*
X10821Y2333D02*
Y2532D01*
X10721Y2632D01*
X10621Y2532D01*
Y2333D01*
Y2482D01*
X10821D01*
X10521Y2333D02*
Y2632D01*
X10321Y2333D01*
Y2632D01*
X10221Y2333D02*
X10121D01*
X10171D01*
Y2632D01*
X10221Y2582D01*
X10811Y3336D02*
Y3636D01*
X10661D01*
X10611Y3586D01*
Y3486D01*
X10661Y3436D01*
X10811D01*
X10711D02*
X10611Y3336D01*
X10511Y3636D02*
X10311Y3336D01*
Y3636D02*
X10511Y3336D01*
X10839Y4623D02*
X10639D01*
X10739D01*
Y4323D01*
X10539Y4623D02*
X10339Y4323D01*
Y4623D02*
X10539Y4323D01*
X10781Y5334D02*
Y5634D01*
X10681Y5534D01*
X10581Y5634D01*
Y5334D01*
X10331Y5634D02*
X10431D01*
X10481Y5584D01*
Y5384D01*
X10431Y5334D01*
X10331D01*
X10281Y5384D01*
Y5584D01*
X10331Y5634D01*
X9981Y5584D02*
X10031Y5634D01*
X10131D01*
X10181Y5584D01*
Y5534D01*
X10131Y5484D01*
X10031D01*
X9981Y5434D01*
Y5384D01*
X10031Y5334D01*
X10131D01*
X10181Y5384D01*
X9881Y5634D02*
X9782D01*
X9831D01*
Y5334D01*
X9881D01*
X9782D01*
X10821Y6333D02*
Y6632D01*
X10721Y6532D01*
X10621Y6632D01*
Y6333D01*
X10521Y6632D02*
X10421D01*
X10471D01*
Y6333D01*
X10521D01*
X10421D01*
X10071Y6582D02*
X10121Y6632D01*
X10221D01*
X10271Y6582D01*
Y6532D01*
X10221Y6482D01*
X10121D01*
X10071Y6432D01*
Y6382D01*
X10121Y6333D01*
X10221D01*
X10271Y6382D01*
X9821Y6632D02*
X9921D01*
X9971Y6582D01*
Y6382D01*
X9921Y6333D01*
X9821D01*
X9771Y6382D01*
Y6582D01*
X9821Y6632D01*
X10615Y7582D02*
X10665Y7632D01*
X10765D01*
X10815Y7582D01*
Y7532D01*
X10765Y7482D01*
X10665D01*
X10615Y7432D01*
Y7383D01*
X10665Y7333D01*
X10765D01*
X10815Y7383D01*
X10315Y7582D02*
X10365Y7632D01*
X10465D01*
X10515Y7582D01*
Y7383D01*
X10465Y7333D01*
X10365D01*
X10315Y7383D01*
X10215Y7632D02*
Y7333D01*
Y7432D01*
X10015Y7632D01*
X10165Y7482D01*
X10015Y7333D01*
X10811Y8427D02*
Y8676D01*
Y8377D02*
Y8327D01*
X10511Y8577D02*
X10561Y8627D01*
X10661D01*
X10711Y8577D01*
Y8377D01*
X10661Y8327D01*
X10561D01*
X10511Y8377D01*
X10211Y8577D02*
X10261Y8627D01*
X10361D01*
X10411Y8577D01*
Y8527D01*
X10361Y8477D01*
X10261D01*
X10211Y8427D01*
Y8377D01*
X10261Y8327D01*
X10361D01*
X10411Y8377D01*
X10615Y9582D02*
X10665Y9632D01*
X10765D01*
X10815Y9582D01*
Y9532D01*
X10765Y9482D01*
X10665D01*
X10615Y9432D01*
Y9383D01*
X10665Y9333D01*
X10765D01*
X10815Y9383D01*
X10515Y9632D02*
Y9333D01*
X10365D01*
X10315Y9383D01*
Y9582D01*
X10365Y9632D01*
X10515D01*
X10215Y9333D02*
Y9532D01*
X10115Y9632D01*
X10015Y9532D01*
Y9333D01*
Y9482D01*
X10215D01*
X10615Y10582D02*
X10665Y10632D01*
X10765D01*
X10815Y10582D01*
Y10532D01*
X10765Y10482D01*
X10665D01*
X10615Y10432D01*
Y10382D01*
X10665Y10333D01*
X10765D01*
X10815Y10382D01*
X10315Y10582D02*
X10365Y10632D01*
X10465D01*
X10515Y10582D01*
Y10382D01*
X10465Y10333D01*
X10365D01*
X10315Y10382D01*
X10215Y10632D02*
Y10333D01*
X10015D01*
X10615Y11582D02*
X10665Y11632D01*
X10765D01*
X10815Y11582D01*
Y11382D01*
X10765Y11333D01*
X10665D01*
X10615Y11382D01*
Y11482D01*
X10715D01*
X10515Y11333D02*
Y11632D01*
X10315Y11333D01*
Y11632D01*
X10215D02*
Y11333D01*
X10065D01*
X10015Y11382D01*
Y11582D01*
X10065Y11632D01*
X10215D01*
X10815Y12482D02*
X10615D01*
X10715Y12582D02*
Y12383D01*
X10315Y12632D02*
X10515D01*
Y12482D01*
X10415Y12532D01*
X10365D01*
X10315Y12482D01*
Y12383D01*
X10365Y12333D01*
X10465D01*
X10515Y12383D01*
X10215Y12632D02*
Y12432D01*
X10115Y12333D01*
X10015Y12432D01*
Y12632D01*
X12947Y1628D02*
X12847D01*
X12897D01*
Y1329D01*
X12947D01*
X12847D01*
X12547Y1628D02*
X12647D01*
X12697Y1578D01*
Y1379D01*
X12647Y1329D01*
X12547D01*
X12497Y1379D01*
Y1578D01*
X12547Y1628D01*
X12397Y1578D02*
X12347Y1628D01*
X12247D01*
X12197Y1578D01*
Y1379D01*
X12247Y1329D01*
X12347D01*
X12397Y1379D01*
Y1578D01*
X12858Y2632D02*
X12758D01*
X12808D01*
Y2333D01*
X12858D01*
X12758D01*
X12458Y2632D02*
X12558D01*
X12608Y2582D01*
Y2383D01*
X12558Y2333D01*
X12458D01*
X12408Y2383D01*
Y2582D01*
X12458Y2632D01*
X12308Y2333D02*
X12208D01*
X12258D01*
Y2632D01*
X12308Y2582D01*
X12951Y3632D02*
X12851D01*
X12901D01*
Y3333D01*
X12951D01*
X12851D01*
X12551Y3632D02*
X12651D01*
X12701Y3582D01*
Y3383D01*
X12651Y3333D01*
X12551D01*
X12501Y3383D01*
Y3582D01*
X12551Y3632D01*
X12201Y3333D02*
X12401D01*
X12201Y3532D01*
Y3582D01*
X12251Y3632D01*
X12351D01*
X12401Y3582D01*
X12947Y4630D02*
X12847D01*
X12897D01*
Y4331D01*
X12947D01*
X12847D01*
X12547Y4630D02*
X12647D01*
X12697Y4580D01*
Y4381D01*
X12647Y4331D01*
X12547D01*
X12497Y4381D01*
Y4580D01*
X12547Y4630D01*
X12397Y4580D02*
X12347Y4630D01*
X12247D01*
X12197Y4580D01*
Y4530D01*
X12247Y4480D01*
X12297D01*
X12247D01*
X12197Y4431D01*
Y4381D01*
X12247Y4331D01*
X12347D01*
X12397Y4381D01*
X12947Y5644D02*
X12847D01*
X12897D01*
Y5344D01*
X12947D01*
X12847D01*
X12547Y5644D02*
X12647D01*
X12697Y5594D01*
Y5394D01*
X12647Y5344D01*
X12547D01*
X12497Y5394D01*
Y5594D01*
X12547Y5644D01*
X12247Y5344D02*
Y5644D01*
X12397Y5494D01*
X12197D01*
X12951Y6632D02*
X12851D01*
X12901D01*
Y6333D01*
X12951D01*
X12851D01*
X12551Y6632D02*
X12651D01*
X12701Y6582D01*
Y6382D01*
X12651Y6333D01*
X12551D01*
X12501Y6382D01*
Y6582D01*
X12551Y6632D01*
X12201D02*
X12401D01*
Y6482D01*
X12301Y6532D01*
X12251D01*
X12201Y6482D01*
Y6382D01*
X12251Y6333D01*
X12351D01*
X12401Y6382D01*
X12951Y7632D02*
X12851D01*
X12901D01*
Y7333D01*
X12951D01*
X12851D01*
X12551Y7632D02*
X12651D01*
X12701Y7582D01*
Y7383D01*
X12651Y7333D01*
X12551D01*
X12501Y7383D01*
Y7582D01*
X12551Y7632D01*
X12201D02*
X12301Y7582D01*
X12401Y7482D01*
Y7383D01*
X12351Y7333D01*
X12251D01*
X12201Y7383D01*
Y7432D01*
X12251Y7482D01*
X12401D01*
X12951Y8632D02*
X12851D01*
X12901D01*
Y8333D01*
X12951D01*
X12851D01*
X12551Y8632D02*
X12651D01*
X12701Y8582D01*
Y8382D01*
X12651Y8333D01*
X12551D01*
X12501Y8382D01*
Y8582D01*
X12551Y8632D01*
X12401D02*
X12201D01*
Y8582D01*
X12401Y8382D01*
Y8333D01*
X12951Y9632D02*
X12851D01*
X12901D01*
Y9333D01*
X12951D01*
X12851D01*
X12551Y9632D02*
X12651D01*
X12701Y9582D01*
Y9383D01*
X12651Y9333D01*
X12551D01*
X12501Y9383D01*
Y9582D01*
X12551Y9632D01*
X12401Y9582D02*
X12351Y9632D01*
X12251D01*
X12201Y9582D01*
Y9532D01*
X12251Y9482D01*
X12201Y9432D01*
Y9383D01*
X12251Y9333D01*
X12351D01*
X12401Y9383D01*
Y9432D01*
X12351Y9482D01*
X12401Y9532D01*
Y9582D01*
X12351Y9482D02*
X12251D01*
X12951Y10632D02*
X12851D01*
X12901D01*
Y10333D01*
X12951D01*
X12851D01*
X12551Y10632D02*
X12651D01*
X12701Y10582D01*
Y10382D01*
X12651Y10333D01*
X12551D01*
X12501Y10382D01*
Y10582D01*
X12551Y10632D01*
X12401Y10382D02*
X12351Y10333D01*
X12251D01*
X12201Y10382D01*
Y10582D01*
X12251Y10632D01*
X12351D01*
X12401Y10582D01*
Y10532D01*
X12351Y10482D01*
X12201D01*
X3440Y4654D02*
X3240D01*
X3340D01*
Y4354D01*
X3140Y4654D02*
X2940Y4354D01*
Y4654D02*
X3140Y4354D01*
X3440Y3354D02*
Y3654D01*
X3290D01*
X3240Y3604D01*
Y3504D01*
X3290Y3454D01*
X3440D01*
X3340D02*
X3240Y3354D01*
X3140Y3654D02*
X2940Y3354D01*
Y3654D02*
X3140Y3354D01*
X3440Y8454D02*
Y8704D01*
Y8404D02*
Y8354D01*
X3140Y8604D02*
X3190Y8654D01*
X3290D01*
X3340Y8604D01*
Y8404D01*
X3290Y8354D01*
X3190D01*
X3140Y8404D01*
X2840Y8604D02*
X2890Y8654D01*
X2990D01*
X3040Y8604D01*
Y8554D01*
X2990Y8504D01*
X2890D01*
X2840Y8454D01*
Y8404D01*
X2890Y8354D01*
X2990D01*
X3040Y8404D01*
X3440Y2654D02*
X3340D01*
X3390D01*
Y2354D01*
X3440D01*
X3340D01*
X3040Y2654D02*
X3140D01*
X3190Y2604D01*
Y2404D01*
X3140Y2354D01*
X3040D01*
X2990Y2404D01*
Y2604D01*
X3040Y2654D01*
X2890Y2354D02*
X2790D01*
X2840D01*
Y2654D01*
X2890Y2604D01*
X3440Y1654D02*
X3340D01*
X3390D01*
Y1354D01*
X3440D01*
X3340D01*
X3040Y1654D02*
X3140D01*
X3190Y1604D01*
Y1404D01*
X3140Y1354D01*
X3040D01*
X2990Y1404D01*
Y1604D01*
X3040Y1654D01*
X2690Y1354D02*
X2890D01*
X2690Y1554D01*
Y1604D01*
X2740Y1654D01*
X2840D01*
X2890Y1604D01*
X3240Y7604D02*
X3290Y7654D01*
X3390D01*
X3440Y7604D01*
Y7554D01*
X3390Y7504D01*
X3290D01*
X3240Y7454D01*
Y7404D01*
X3290Y7354D01*
X3390D01*
X3440Y7404D01*
X2940Y7604D02*
X2990Y7654D01*
X3090D01*
X3140Y7604D01*
Y7404D01*
X3090Y7354D01*
X2990D01*
X2940Y7404D01*
X2840Y7654D02*
Y7354D01*
Y7454D01*
X2640Y7654D01*
X2790Y7504D01*
X2640Y7354D01*
X3240Y11604D02*
X3290Y11654D01*
X3390D01*
X3440Y11604D01*
Y11404D01*
X3390Y11354D01*
X3290D01*
X3240Y11404D01*
Y11504D01*
X3340D01*
X3140Y11354D02*
Y11654D01*
X2940Y11354D01*
Y11654D01*
X2840D02*
Y11354D01*
X2690D01*
X2640Y11404D01*
Y11604D01*
X2690Y11654D01*
X2840D01*
X3440Y12504D02*
X3240D01*
X3340Y12604D02*
Y12404D01*
X2940Y12654D02*
X3140D01*
Y12504D01*
X3040Y12554D01*
X2990D01*
X2940Y12504D01*
Y12404D01*
X2990Y12354D01*
X3090D01*
X3140Y12404D01*
X2840Y12654D02*
Y12454D01*
X2740Y12354D01*
X2640Y12454D01*
Y12654D01*
X3240Y10604D02*
X3290Y10654D01*
X3390D01*
X3440Y10604D01*
Y10554D01*
X3390Y10504D01*
X3290D01*
X3240Y10454D01*
Y10404D01*
X3290Y10354D01*
X3390D01*
X3440Y10404D01*
X2940Y10604D02*
X2990Y10654D01*
X3090D01*
X3140Y10604D01*
Y10404D01*
X3090Y10354D01*
X2990D01*
X2940Y10404D01*
X2840Y10654D02*
Y10354D01*
X2640D01*
X3240Y9604D02*
X3290Y9654D01*
X3390D01*
X3440Y9604D01*
Y9554D01*
X3390Y9504D01*
X3290D01*
X3240Y9454D01*
Y9404D01*
X3290Y9354D01*
X3390D01*
X3440Y9404D01*
X3140Y9654D02*
Y9354D01*
X2990D01*
X2940Y9404D01*
Y9604D01*
X2990Y9654D01*
X3140D01*
X2840Y9354D02*
Y9554D01*
X2740Y9654D01*
X2640Y9554D01*
Y9354D01*
Y9504D01*
X2840D01*
X3440Y5354D02*
Y5654D01*
X3340Y5554D01*
X3240Y5654D01*
Y5354D01*
X2990Y5654D02*
X3090D01*
X3140Y5604D01*
Y5404D01*
X3090Y5354D01*
X2990D01*
X2940Y5404D01*
Y5604D01*
X2990Y5654D01*
X2640Y5604D02*
X2690Y5654D01*
X2790D01*
X2840Y5604D01*
Y5554D01*
X2790Y5504D01*
X2690D01*
X2640Y5454D01*
Y5404D01*
X2690Y5354D01*
X2790D01*
X2840Y5404D01*
X2540Y5654D02*
X2440D01*
X2490D01*
Y5354D01*
X2540D01*
X2440D01*
X3440Y6350D02*
Y6650D01*
X3340Y6550D01*
X3240Y6650D01*
Y6350D01*
X3140Y6650D02*
X3040D01*
X3090D01*
Y6350D01*
X3140D01*
X3040D01*
X2690Y6600D02*
X2740Y6650D01*
X2840D01*
X2890Y6600D01*
Y6550D01*
X2840Y6500D01*
X2740D01*
X2690Y6450D01*
Y6400D01*
X2740Y6350D01*
X2840D01*
X2890Y6400D01*
X2440Y6650D02*
X2540D01*
X2590Y6600D01*
Y6400D01*
X2540Y6350D01*
X2440D01*
X2390Y6400D01*
Y6600D01*
X2440Y6650D01*
X990Y1644D02*
X890D01*
X940D01*
Y1344D01*
X990D01*
X890D01*
X590Y1644D02*
X690D01*
X740Y1594D01*
Y1394D01*
X690Y1344D01*
X590D01*
X540Y1394D01*
Y1594D01*
X590Y1644D01*
X440Y1594D02*
X390Y1644D01*
X290D01*
X240Y1594D01*
Y1394D01*
X290Y1344D01*
X390D01*
X440Y1394D01*
Y1594D01*
X990Y2644D02*
X890D01*
X940D01*
Y2344D01*
X990D01*
X890D01*
X590Y2644D02*
X690D01*
X740Y2594D01*
Y2394D01*
X690Y2344D01*
X590D01*
X540Y2394D01*
Y2594D01*
X590Y2644D01*
X440Y2344D02*
X340D01*
X390D01*
Y2644D01*
X440Y2594D01*
X990Y3644D02*
X890D01*
X940D01*
Y3344D01*
X990D01*
X890D01*
X590Y3644D02*
X690D01*
X740Y3594D01*
Y3394D01*
X690Y3344D01*
X590D01*
X540Y3394D01*
Y3594D01*
X590Y3644D01*
X240Y3344D02*
X440D01*
X240Y3544D01*
Y3594D01*
X290Y3644D01*
X390D01*
X440Y3594D01*
X990Y4644D02*
X890D01*
X940D01*
Y4344D01*
X990D01*
X890D01*
X590Y4644D02*
X690D01*
X740Y4594D01*
Y4394D01*
X690Y4344D01*
X590D01*
X540Y4394D01*
Y4594D01*
X590Y4644D01*
X440Y4594D02*
X390Y4644D01*
X290D01*
X240Y4594D01*
Y4544D01*
X290Y4494D01*
X340D01*
X290D01*
X240Y4444D01*
Y4394D01*
X290Y4344D01*
X390D01*
X440Y4394D01*
X990Y5644D02*
X890D01*
X940D01*
Y5344D01*
X990D01*
X890D01*
X590Y5644D02*
X690D01*
X740Y5594D01*
Y5394D01*
X690Y5344D01*
X590D01*
X540Y5394D01*
Y5594D01*
X590Y5644D01*
X290Y5344D02*
Y5644D01*
X440Y5494D01*
X240D01*
X990Y6644D02*
X890D01*
X940D01*
Y6344D01*
X990D01*
X890D01*
X590Y6644D02*
X690D01*
X740Y6594D01*
Y6394D01*
X690Y6344D01*
X590D01*
X540Y6394D01*
Y6594D01*
X590Y6644D01*
X240D02*
X440D01*
Y6494D01*
X340Y6544D01*
X290D01*
X240Y6494D01*
Y6394D01*
X290Y6344D01*
X390D01*
X440Y6394D01*
X990Y7644D02*
X890D01*
X940D01*
Y7344D01*
X990D01*
X890D01*
X590Y7644D02*
X690D01*
X740Y7594D01*
Y7394D01*
X690Y7344D01*
X590D01*
X540Y7394D01*
Y7594D01*
X590Y7644D01*
X240D02*
X340Y7594D01*
X440Y7494D01*
Y7394D01*
X390Y7344D01*
X290D01*
X240Y7394D01*
Y7444D01*
X290Y7494D01*
X440D01*
X990Y8644D02*
X890D01*
X940D01*
Y8344D01*
X990D01*
X890D01*
X590Y8644D02*
X690D01*
X740Y8594D01*
Y8394D01*
X690Y8344D01*
X590D01*
X540Y8394D01*
Y8594D01*
X590Y8644D01*
X440D02*
X240D01*
Y8594D01*
X440Y8394D01*
Y8344D01*
X990Y9644D02*
X890D01*
X940D01*
Y9344D01*
X990D01*
X890D01*
X590Y9644D02*
X690D01*
X740Y9594D01*
Y9394D01*
X690Y9344D01*
X590D01*
X540Y9394D01*
Y9594D01*
X590Y9644D01*
X440Y9594D02*
X390Y9644D01*
X290D01*
X240Y9594D01*
Y9544D01*
X290Y9494D01*
X240Y9444D01*
Y9394D01*
X290Y9344D01*
X390D01*
X440Y9394D01*
Y9444D01*
X390Y9494D01*
X440Y9544D01*
Y9594D01*
X390Y9494D02*
X290D01*
X990Y10644D02*
X890D01*
X940D01*
Y10344D01*
X990D01*
X890D01*
X590Y10644D02*
X690D01*
X740Y10594D01*
Y10394D01*
X690Y10344D01*
X590D01*
X540Y10394D01*
Y10594D01*
X590Y10644D01*
X440Y10394D02*
X390Y10344D01*
X290D01*
X240Y10394D01*
Y10594D01*
X290Y10644D01*
X390D01*
X440Y10594D01*
Y10544D01*
X390Y10494D01*
X240D01*
D11*
X9480Y4990D02*
X11980D01*
M02*
