G04*
G04 #@! TF.GenerationSoftware,Altium Limited,Altium Designer,18.1.9 (240)*
G04*
G04 Layer_Color=8388736*
%FSLAX24Y24*%
%MOIN*%
G70*
G01*
G75*
%ADD24R,0.0132X0.0260*%
%ADD25R,0.0260X0.0132*%
%ADD26R,0.0480X0.0480*%
%ADD27R,0.0350X0.0430*%
%ADD28R,0.0430X0.0350*%
%ADD29C,0.0474*%
%ADD30R,0.0257X0.0552*%
%ADD31R,0.0395X0.0580*%
%ADD32R,0.0780X0.0780*%
%ADD33C,0.0780*%
%ADD34C,0.0320*%
%ADD35C,0.0340*%
D24*
X6974Y4851D02*
D03*
X6974Y3689D02*
D03*
X6805Y4851D02*
D03*
X6635D02*
D03*
X6466D02*
D03*
X6805Y3689D02*
D03*
X6635D02*
D03*
X6466D02*
D03*
D25*
X7230Y4863D02*
D03*
Y4693D02*
D03*
Y4524D02*
D03*
Y4355D02*
D03*
Y4185D02*
D03*
Y4016D02*
D03*
Y3847D02*
D03*
X6210Y4863D02*
D03*
Y4693D02*
D03*
Y4524D02*
D03*
Y4355D02*
D03*
Y4185D02*
D03*
Y4016D02*
D03*
Y3847D02*
D03*
X7230Y3677D02*
D03*
X6210Y3677D02*
D03*
D26*
X8000Y9410D02*
D03*
X4900D02*
D03*
X4950Y11950D02*
D03*
D27*
X4380Y4860D02*
D03*
X4960D02*
D03*
X4960Y4345D02*
D03*
X4380D02*
D03*
X6340Y9410D02*
D03*
X5760D02*
D03*
X5770Y10472D02*
D03*
X6350Y10472D02*
D03*
X7280Y12246D02*
D03*
X7860Y12246D02*
D03*
X7270Y11456D02*
D03*
X7850Y11456D02*
D03*
X6800Y9410D02*
D03*
X7380Y9410D02*
D03*
X8000Y5410D02*
D03*
X8580Y5410D02*
D03*
X8060Y4150D02*
D03*
X8640Y4150D02*
D03*
X8060Y4660D02*
D03*
X8640D02*
D03*
X6850Y2540D02*
D03*
X6270D02*
D03*
D28*
X4965Y4865D02*
D03*
Y5445D02*
D03*
X4965Y3760D02*
D03*
X4965Y4340D02*
D03*
X4900Y11131D02*
D03*
X4900Y10551D02*
D03*
X4360Y5660D02*
D03*
X4360Y6240D02*
D03*
X5640Y2070D02*
D03*
X5640Y2650D02*
D03*
X6030Y7120D02*
D03*
X6030Y6540D02*
D03*
X5130Y2070D02*
D03*
X5130Y2650D02*
D03*
X4620Y2070D02*
D03*
X4620Y2650D02*
D03*
D29*
X7450Y5910D02*
D03*
X4170Y11460D02*
D03*
D30*
X6454Y11383D02*
D03*
X5706Y12289D02*
D03*
X6454D02*
D03*
X6080D02*
D03*
X5706Y11383D02*
D03*
D31*
X7818Y10491D02*
D03*
X7031D02*
D03*
X8808Y6059D02*
D03*
X8020Y6059D02*
D03*
D32*
X11480Y12490D02*
D03*
X1690Y12500D02*
D03*
D33*
X11480Y11490D02*
D03*
Y10490D02*
D03*
Y9490D02*
D03*
Y8490D02*
D03*
Y7490D02*
D03*
Y6490D02*
D03*
Y5490D02*
D03*
Y4490D02*
D03*
Y3490D02*
D03*
Y2490D02*
D03*
Y1490D02*
D03*
X1690Y11500D02*
D03*
Y10500D02*
D03*
Y9500D02*
D03*
Y8500D02*
D03*
Y7500D02*
D03*
Y6500D02*
D03*
Y5500D02*
D03*
Y4500D02*
D03*
Y3500D02*
D03*
Y2500D02*
D03*
Y1500D02*
D03*
D34*
X14052Y7325D02*
D03*
X13987Y6775D02*
D03*
Y6225D02*
D03*
X14052Y5675D02*
D03*
X-63Y5685D02*
D03*
X3Y6235D02*
D03*
Y6785D02*
D03*
X-63Y7335D02*
D03*
X7835Y-72D02*
D03*
X7285Y-8D02*
D03*
X6735D02*
D03*
X6185Y-72D02*
D03*
X4055Y13062D02*
D03*
X4605Y12997D02*
D03*
X5155D02*
D03*
X5705Y13062D02*
D03*
D35*
X8730Y6870D02*
D03*
X8430Y7210D02*
D03*
X7650Y6870D02*
D03*
X7340Y7210D02*
D03*
X8730Y7520D02*
D03*
X7630Y8170D02*
D03*
X7640Y7520D02*
D03*
X7350Y7860D02*
D03*
X8440Y7870D02*
D03*
X8740Y8170D02*
D03*
X8460Y8490D02*
D03*
X9190Y6059D02*
D03*
X5640Y700D02*
D03*
X5100Y1020D02*
D03*
X6480Y3090D02*
D03*
X4390D02*
D03*
X5110Y1690D02*
D03*
X5640D02*
D03*
X5455Y5445D02*
D03*
X4840Y6510D02*
D03*
X7670Y3360D02*
D03*
X5660Y5970D02*
D03*
X6805Y5955D02*
D03*
X7101Y5460D02*
D03*
X6635Y6495D02*
D03*
X5950Y5470D02*
D03*
X4380Y3910D02*
D03*
X8237Y3677D02*
D03*
X5950Y3330D02*
D03*
X7080Y8485D02*
D03*
X6635Y8170D02*
D03*
X7620Y4990D02*
D03*
Y4440D02*
D03*
M02*
