M48
;Layer_Color=9474304
;FILE_FORMAT=2:4
INCH,LZ
;TYPE=PLATED
T1F00S00C0.0150
T2F00S00C0.0170
T3F00S00C0.0380
;TYPE=NON_PLATED
T4F00S00C0.0350
T5F00S00C0.0500
%
T01
X0051Y00102
X00511Y00169
X00564
Y0007
X00595Y00333
X00648Y00309
X00767Y00336
X008237Y003677
X00762Y00444
Y00499
X007101Y00546
X006805Y005955
X006635Y006495
X00765Y00687
X00734Y00721
X00764Y00752
X00735Y00786
X00763Y00817
X00708Y008485
X006635Y00817
X00844Y00787
X00874Y00817
X00846Y00849
X00873Y00752
X00843Y00721
X00873Y00687
X00919Y006059
X00566Y00597
X005455Y005445
X00595Y00547
X00484Y00651
X00438Y00391
X00439Y00309
T02
X0049Y00941
X008Y00941
X008201Y010474
X008191Y011448
X008221Y012258
X006076Y01183
T03
X00169Y0015
Y0025
Y0035
Y0045
Y0055
Y0065
Y0075
Y0085
Y0095
Y0105
Y0115
Y0125
X01148Y01249
Y01149
Y01049
Y00949
Y00849
Y00749
Y00649
Y00549
Y00449
Y00349
Y00249
Y00149
T04
X006735Y-000008
X007285
X013987Y006225
Y006775
X005155Y012997
X004605
X000003Y006785
Y006235
T05
X006185Y-000072
X007835
X014052Y005675
Y007325
X005705Y013062
X004055
X-000063Y007335
Y005685
M30
