G04*
G04 #@! TF.GenerationSoftware,Altium Limited,Altium Designer,18.1.9 (240)*
G04*
G04 Layer_Physical_Order=6*
G04 Layer_Color=16711680*
%FSLAX24Y24*%
%MOIN*%
G70*
G01*
G75*
%ADD10C,0.0070*%
%ADD14C,0.0100*%
%ADD34C,0.0320*%
%ADD40C,0.0200*%
%ADD42R,0.0700X0.0700*%
%ADD43C,0.0700*%
%ADD44C,0.0260*%
%ADD45C,0.0280*%
G36*
X13842Y7630D02*
X13789Y7589D01*
X13729Y7512D01*
X13692Y7422D01*
X13679Y7325D01*
X13692Y7228D01*
X13729Y7138D01*
X13789Y7061D01*
X13800Y7053D01*
Y7003D01*
X13777Y6985D01*
X13730Y6924D01*
X13700Y6852D01*
X13690Y6775D01*
X13700Y6698D01*
X13730Y6626D01*
X13777Y6565D01*
X13822Y6530D01*
X13826Y6519D01*
Y6481D01*
X13822Y6470D01*
X13777Y6435D01*
X13730Y6374D01*
X13700Y6302D01*
X13690Y6225D01*
X13700Y6148D01*
X13730Y6076D01*
X13777Y6015D01*
X13800Y5997D01*
Y5947D01*
X13789Y5939D01*
X13729Y5862D01*
X13692Y5772D01*
X13679Y5675D01*
X13692Y5578D01*
X13729Y5488D01*
X13789Y5411D01*
X13842Y5370D01*
Y158D01*
X8124D01*
X8099Y191D01*
X8022Y251D01*
X7932Y288D01*
X7835Y301D01*
X7738Y288D01*
X7648Y251D01*
X7571Y191D01*
X7569Y189D01*
X7506Y189D01*
X7495Y203D01*
X7434Y250D01*
X7362Y280D01*
X7285Y290D01*
X7208Y280D01*
X7136Y250D01*
X7075Y203D01*
X7040Y158D01*
X6980D01*
X6945Y203D01*
X6884Y250D01*
X6812Y280D01*
X6735Y290D01*
X6658Y280D01*
X6586Y250D01*
X6525Y203D01*
X6514Y189D01*
X6451D01*
X6449Y191D01*
X6372Y251D01*
X6282Y288D01*
X6185Y301D01*
X6088Y288D01*
X5998Y251D01*
X5921Y191D01*
X5896Y158D01*
X158D01*
Y5388D01*
X201Y5421D01*
X261Y5498D01*
X298Y5588D01*
X311Y5685D01*
X298Y5782D01*
X261Y5872D01*
X201Y5949D01*
X199Y5951D01*
X199Y6014D01*
X213Y6025D01*
X260Y6086D01*
X290Y6158D01*
X300Y6235D01*
X290Y6312D01*
X260Y6384D01*
X213Y6445D01*
X161Y6485D01*
Y6535D01*
X213Y6575D01*
X260Y6636D01*
X290Y6708D01*
X300Y6785D01*
X290Y6862D01*
X260Y6934D01*
X213Y6995D01*
X199Y7006D01*
Y7069D01*
X201Y7071D01*
X261Y7148D01*
X298Y7238D01*
X311Y7335D01*
X298Y7432D01*
X261Y7522D01*
X201Y7599D01*
X158Y7632D01*
Y12842D01*
X1220D01*
Y12030D01*
X2160D01*
Y12842D01*
X3758D01*
X3791Y12799D01*
X3868Y12739D01*
X3958Y12702D01*
X4055Y12689D01*
X4152Y12702D01*
X4242Y12739D01*
X4319Y12799D01*
X4321Y12801D01*
X4384Y12801D01*
X4395Y12787D01*
X4456Y12740D01*
X4528Y12710D01*
X4605Y12700D01*
X4682Y12710D01*
X4754Y12740D01*
X4815Y12787D01*
X4855Y12839D01*
X4905D01*
X4945Y12787D01*
X5006Y12740D01*
X5078Y12710D01*
X5155Y12700D01*
X5232Y12710D01*
X5304Y12740D01*
X5365Y12787D01*
X5376Y12801D01*
X5439D01*
X5441Y12799D01*
X5518Y12739D01*
X5608Y12702D01*
X5705Y12689D01*
X5802Y12702D01*
X5892Y12739D01*
X5969Y12799D01*
X6002Y12842D01*
X11010D01*
Y12020D01*
X11950D01*
Y12842D01*
X13842D01*
Y7630D01*
D02*
G37*
%LPC*%
G36*
X1740Y11947D02*
Y11550D01*
X2137D01*
X2128Y11617D01*
X2083Y11727D01*
X2011Y11821D01*
X1917Y11893D01*
X1807Y11938D01*
X1740Y11947D01*
D02*
G37*
G36*
X1640D02*
X1573Y11938D01*
X1463Y11893D01*
X1369Y11821D01*
X1297Y11727D01*
X1252Y11617D01*
X1243Y11550D01*
X1640D01*
Y11947D01*
D02*
G37*
G36*
X11530Y11937D02*
Y11540D01*
X11927D01*
X11918Y11607D01*
X11873Y11717D01*
X11801Y11811D01*
X11707Y11883D01*
X11597Y11928D01*
X11530Y11937D01*
D02*
G37*
G36*
X11430D02*
X11363Y11928D01*
X11253Y11883D01*
X11159Y11811D01*
X11087Y11717D01*
X11042Y11607D01*
X11033Y11540D01*
X11430D01*
Y11937D01*
D02*
G37*
G36*
X2137Y11450D02*
X1740D01*
Y11053D01*
X1807Y11062D01*
X1917Y11107D01*
X2011Y11179D01*
X2083Y11273D01*
X2128Y11383D01*
X2137Y11450D01*
D02*
G37*
G36*
X1640D02*
X1243D01*
X1252Y11383D01*
X1297Y11273D01*
X1369Y11179D01*
X1463Y11107D01*
X1573Y11062D01*
X1640Y11053D01*
Y11450D01*
D02*
G37*
G36*
X11927Y11440D02*
X11530D01*
Y11043D01*
X11597Y11052D01*
X11707Y11097D01*
X11801Y11169D01*
X11873Y11263D01*
X11918Y11373D01*
X11927Y11440D01*
D02*
G37*
G36*
X11430D02*
X11033D01*
X11042Y11373D01*
X11087Y11263D01*
X11159Y11169D01*
X11253Y11097D01*
X11363Y11052D01*
X11430Y11043D01*
Y11440D01*
D02*
G37*
G36*
X1690Y10974D02*
X1567Y10958D01*
X1453Y10911D01*
X1355Y10835D01*
X1279Y10737D01*
X1232Y10623D01*
X1216Y10500D01*
X1232Y10377D01*
X1279Y10263D01*
X1355Y10165D01*
X1453Y10089D01*
X1567Y10042D01*
X1690Y10026D01*
X1813Y10042D01*
X1927Y10089D01*
X2025Y10165D01*
X2101Y10263D01*
X2148Y10377D01*
X2164Y10500D01*
X2148Y10623D01*
X2101Y10737D01*
X2025Y10835D01*
X1927Y10911D01*
X1813Y10958D01*
X1690Y10974D01*
D02*
G37*
G36*
X11480Y10964D02*
X11357Y10948D01*
X11243Y10901D01*
X11145Y10825D01*
X11069Y10727D01*
X11022Y10613D01*
X11006Y10490D01*
X11022Y10367D01*
X11069Y10253D01*
X11145Y10155D01*
X11243Y10079D01*
X11357Y10032D01*
X11480Y10016D01*
X11603Y10032D01*
X11717Y10079D01*
X11815Y10155D01*
X11891Y10253D01*
X11938Y10367D01*
X11954Y10490D01*
X11938Y10613D01*
X11891Y10727D01*
X11815Y10825D01*
X11717Y10901D01*
X11603Y10948D01*
X11480Y10964D01*
D02*
G37*
G36*
X8000Y9672D02*
X7932Y9663D01*
X7869Y9637D01*
X7815Y9595D01*
X7773Y9541D01*
X7747Y9478D01*
X7738Y9410D01*
X7747Y9342D01*
X7773Y9279D01*
X7815Y9225D01*
X7869Y9183D01*
X7932Y9157D01*
X8000Y9148D01*
X8068Y9157D01*
X8131Y9183D01*
X8185Y9225D01*
X8227Y9279D01*
X8253Y9342D01*
X8262Y9410D01*
X8253Y9478D01*
X8227Y9541D01*
X8185Y9595D01*
X8131Y9637D01*
X8068Y9663D01*
X8000Y9672D01*
D02*
G37*
G36*
X1690Y9974D02*
X1567Y9958D01*
X1453Y9911D01*
X1355Y9835D01*
X1279Y9737D01*
X1232Y9623D01*
X1216Y9500D01*
X1232Y9377D01*
X1279Y9263D01*
X1355Y9165D01*
X1453Y9089D01*
X1567Y9042D01*
X1690Y9026D01*
X1813Y9042D01*
X1927Y9089D01*
X2025Y9165D01*
X2101Y9263D01*
X2148Y9377D01*
X2164Y9500D01*
X2148Y9623D01*
X2101Y9737D01*
X2025Y9835D01*
X1927Y9911D01*
X1813Y9958D01*
X1690Y9974D01*
D02*
G37*
G36*
X11480Y9964D02*
X11357Y9948D01*
X11243Y9901D01*
X11145Y9825D01*
X11069Y9727D01*
X11022Y9613D01*
X11006Y9490D01*
X11022Y9367D01*
X11069Y9253D01*
X11145Y9155D01*
X11243Y9079D01*
X11357Y9032D01*
X11480Y9016D01*
X11603Y9032D01*
X11717Y9079D01*
X11815Y9155D01*
X11891Y9253D01*
X11938Y9367D01*
X11954Y9490D01*
X11938Y9613D01*
X11891Y9727D01*
X11815Y9825D01*
X11717Y9901D01*
X11603Y9948D01*
X11480Y9964D01*
D02*
G37*
G36*
X8460Y8745D02*
X8362Y8725D01*
X8280Y8670D01*
X8275Y8663D01*
X7262D01*
X7260Y8665D01*
X7178Y8720D01*
X7080Y8740D01*
X6982Y8720D01*
X6900Y8665D01*
X6845Y8583D01*
X6825Y8485D01*
X6844Y8391D01*
X6835Y8381D01*
X6804Y8358D01*
X6733Y8405D01*
X6635Y8425D01*
X6538Y8405D01*
X6455Y8350D01*
X6400Y8268D01*
X6380Y8170D01*
X6400Y8072D01*
X6455Y7990D01*
X6477Y7975D01*
Y6690D01*
X6455Y6676D01*
X6400Y6593D01*
X6380Y6495D01*
X6400Y6398D01*
X6455Y6315D01*
X6538Y6260D01*
X6635Y6240D01*
X6733Y6260D01*
X6816Y6315D01*
X6871Y6398D01*
X6872Y6403D01*
X6922Y6398D01*
Y6232D01*
X6872Y6196D01*
X6805Y6210D01*
X6707Y6190D01*
X6690Y6179D01*
X5797D01*
X5758Y6205D01*
X5660Y6225D01*
X5562Y6205D01*
X5480Y6150D01*
X5425Y6068D01*
X5405Y5970D01*
X5425Y5872D01*
X5480Y5790D01*
X5562Y5735D01*
X5660Y5715D01*
X5737Y5730D01*
X5800D01*
X5815Y5680D01*
X5770Y5650D01*
X5715Y5568D01*
X5695Y5470D01*
X5715Y5372D01*
X5770Y5290D01*
X5792Y5275D01*
Y3525D01*
X5770Y3510D01*
X5715Y3428D01*
X5695Y3330D01*
X5701Y3302D01*
X5669Y3263D01*
X4575D01*
X4570Y3270D01*
X4488Y3325D01*
X4390Y3345D01*
X4292Y3325D01*
X4210Y3270D01*
X4155Y3188D01*
X4135Y3090D01*
X4155Y2992D01*
X4210Y2910D01*
X4292Y2855D01*
X4390Y2835D01*
X4488Y2855D01*
X4570Y2910D01*
X4575Y2917D01*
X6295D01*
X6300Y2910D01*
X6382Y2855D01*
X6480Y2835D01*
X6578Y2855D01*
X6660Y2910D01*
X6715Y2992D01*
X6735Y3090D01*
X6715Y3188D01*
X6660Y3270D01*
X6578Y3325D01*
X6480Y3345D01*
X6382Y3325D01*
X6300Y3270D01*
X6295Y3263D01*
X6231D01*
X6199Y3302D01*
X6205Y3330D01*
X6185Y3428D01*
X6130Y3510D01*
X6108Y3525D01*
Y5275D01*
X6130Y5290D01*
X6185Y5372D01*
X6205Y5470D01*
X6185Y5568D01*
X6130Y5650D01*
X6085Y5680D01*
X6100Y5730D01*
X6690D01*
X6707Y5719D01*
X6805Y5700D01*
X6872Y5713D01*
X6909Y5686D01*
X6920Y5640D01*
X6865Y5558D01*
X6846Y5460D01*
X6865Y5362D01*
X6920Y5280D01*
X7003Y5225D01*
X7101Y5205D01*
X7198Y5225D01*
X7281Y5280D01*
X7336Y5362D01*
X7355Y5460D01*
X7336Y5558D01*
X7281Y5640D01*
X7238Y5669D01*
Y6924D01*
X7288Y6965D01*
X7340Y6955D01*
X7362Y6959D01*
X7404Y6917D01*
X7395Y6870D01*
X7415Y6772D01*
X7470Y6690D01*
X7552Y6635D01*
X7650Y6615D01*
X7748Y6635D01*
X7830Y6690D01*
X7835Y6697D01*
X8545D01*
X8550Y6690D01*
X8632Y6635D01*
X8730Y6615D01*
X8828Y6635D01*
X8910Y6690D01*
X8965Y6772D01*
X8985Y6870D01*
X8965Y6968D01*
X8910Y7050D01*
X8828Y7105D01*
X8730Y7125D01*
X8719Y7123D01*
X8676Y7165D01*
X8685Y7210D01*
X8680Y7233D01*
X8716Y7268D01*
X8730Y7265D01*
X8828Y7285D01*
X8910Y7340D01*
X8965Y7422D01*
X8985Y7520D01*
X8965Y7618D01*
X8910Y7700D01*
X8828Y7755D01*
X8730Y7775D01*
X8727Y7774D01*
X8684Y7817D01*
X8695Y7870D01*
X8692Y7882D01*
X8728Y7918D01*
X8740Y7915D01*
X8838Y7935D01*
X8920Y7990D01*
X8975Y8072D01*
X8995Y8170D01*
X8975Y8268D01*
X8920Y8350D01*
X8838Y8405D01*
X8740Y8425D01*
X8708Y8457D01*
X8715Y8490D01*
X8695Y8588D01*
X8640Y8670D01*
X8558Y8725D01*
X8460Y8745D01*
D02*
G37*
G36*
X1690Y8974D02*
X1567Y8958D01*
X1453Y8911D01*
X1355Y8835D01*
X1279Y8737D01*
X1232Y8623D01*
X1216Y8500D01*
X1232Y8377D01*
X1279Y8263D01*
X1355Y8165D01*
X1453Y8089D01*
X1567Y8042D01*
X1690Y8026D01*
X1813Y8042D01*
X1927Y8089D01*
X2025Y8165D01*
X2101Y8263D01*
X2148Y8377D01*
X2164Y8500D01*
X2148Y8623D01*
X2101Y8737D01*
X2025Y8835D01*
X1927Y8911D01*
X1813Y8958D01*
X1690Y8974D01*
D02*
G37*
G36*
X11480Y8964D02*
X11357Y8948D01*
X11243Y8901D01*
X11145Y8825D01*
X11069Y8727D01*
X11022Y8613D01*
X11006Y8490D01*
X11022Y8367D01*
X11069Y8253D01*
X11145Y8155D01*
X11243Y8079D01*
X11357Y8032D01*
X11480Y8016D01*
X11603Y8032D01*
X11717Y8079D01*
X11815Y8155D01*
X11891Y8253D01*
X11938Y8367D01*
X11954Y8490D01*
X11938Y8613D01*
X11891Y8727D01*
X11815Y8825D01*
X11717Y8901D01*
X11603Y8948D01*
X11480Y8964D01*
D02*
G37*
G36*
X1690Y7974D02*
X1567Y7958D01*
X1453Y7911D01*
X1355Y7835D01*
X1279Y7737D01*
X1232Y7623D01*
X1216Y7500D01*
X1232Y7377D01*
X1279Y7263D01*
X1355Y7165D01*
X1453Y7089D01*
X1567Y7042D01*
X1690Y7026D01*
X1813Y7042D01*
X1927Y7089D01*
X2025Y7165D01*
X2101Y7263D01*
X2148Y7377D01*
X2164Y7500D01*
X2148Y7623D01*
X2101Y7737D01*
X2025Y7835D01*
X1927Y7911D01*
X1813Y7958D01*
X1690Y7974D01*
D02*
G37*
G36*
X11480Y7964D02*
X11357Y7948D01*
X11243Y7901D01*
X11145Y7825D01*
X11069Y7727D01*
X11022Y7613D01*
X11006Y7490D01*
X11022Y7367D01*
X11069Y7253D01*
X11145Y7155D01*
X11243Y7079D01*
X11357Y7032D01*
X11480Y7016D01*
X11603Y7032D01*
X11717Y7079D01*
X11815Y7155D01*
X11891Y7253D01*
X11938Y7367D01*
X11954Y7490D01*
X11938Y7613D01*
X11891Y7727D01*
X11815Y7825D01*
X11717Y7901D01*
X11603Y7948D01*
X11480Y7964D01*
D02*
G37*
G36*
X1690Y6974D02*
X1567Y6958D01*
X1453Y6911D01*
X1355Y6835D01*
X1279Y6737D01*
X1232Y6623D01*
X1216Y6500D01*
X1232Y6377D01*
X1279Y6263D01*
X1355Y6165D01*
X1453Y6089D01*
X1567Y6042D01*
X1690Y6026D01*
X1813Y6042D01*
X1927Y6089D01*
X2025Y6165D01*
X2101Y6263D01*
X2148Y6377D01*
X2164Y6500D01*
X2148Y6623D01*
X2101Y6737D01*
X2025Y6835D01*
X1927Y6911D01*
X1813Y6958D01*
X1690Y6974D01*
D02*
G37*
G36*
X11480Y6964D02*
X11357Y6948D01*
X11243Y6901D01*
X11145Y6825D01*
X11069Y6727D01*
X11022Y6613D01*
X11006Y6490D01*
X11022Y6367D01*
X11069Y6253D01*
X11145Y6155D01*
X11243Y6079D01*
X11357Y6032D01*
X11480Y6016D01*
X11603Y6032D01*
X11717Y6079D01*
X11815Y6155D01*
X11891Y6253D01*
X11938Y6367D01*
X11954Y6490D01*
X11938Y6613D01*
X11891Y6727D01*
X11815Y6825D01*
X11717Y6901D01*
X11603Y6948D01*
X11480Y6964D01*
D02*
G37*
G36*
X1690Y5974D02*
X1567Y5958D01*
X1453Y5911D01*
X1355Y5835D01*
X1279Y5737D01*
X1232Y5623D01*
X1216Y5500D01*
X1232Y5377D01*
X1279Y5263D01*
X1355Y5165D01*
X1453Y5089D01*
X1567Y5042D01*
X1690Y5026D01*
X1813Y5042D01*
X1927Y5089D01*
X2025Y5165D01*
X2101Y5263D01*
X2148Y5377D01*
X2164Y5500D01*
X2148Y5623D01*
X2101Y5737D01*
X2025Y5835D01*
X1927Y5911D01*
X1813Y5958D01*
X1690Y5974D01*
D02*
G37*
G36*
X11480Y5964D02*
X11357Y5948D01*
X11243Y5901D01*
X11145Y5825D01*
X11069Y5727D01*
X11022Y5613D01*
X11006Y5490D01*
X11022Y5367D01*
X11069Y5253D01*
X11145Y5155D01*
X11243Y5079D01*
X11357Y5032D01*
X11480Y5016D01*
X11603Y5032D01*
X11717Y5079D01*
X11815Y5155D01*
X11891Y5253D01*
X11938Y5367D01*
X11954Y5490D01*
X11938Y5613D01*
X11891Y5727D01*
X11815Y5825D01*
X11717Y5901D01*
X11603Y5948D01*
X11480Y5964D01*
D02*
G37*
G36*
X7620Y5245D02*
X7522Y5225D01*
X7440Y5170D01*
X7385Y5088D01*
X7365Y4990D01*
X7385Y4892D01*
X7396Y4876D01*
Y4554D01*
X7385Y4538D01*
X7365Y4440D01*
X7385Y4342D01*
X7440Y4260D01*
X7522Y4205D01*
X7620Y4185D01*
X7718Y4205D01*
X7800Y4260D01*
X7855Y4342D01*
X7875Y4440D01*
X7855Y4538D01*
X7844Y4554D01*
Y4876D01*
X7855Y4892D01*
X7875Y4990D01*
X7855Y5088D01*
X7800Y5170D01*
X7718Y5225D01*
X7620Y5245D01*
D02*
G37*
G36*
X1690Y4974D02*
X1567Y4958D01*
X1453Y4911D01*
X1355Y4835D01*
X1279Y4737D01*
X1232Y4623D01*
X1216Y4500D01*
X1232Y4377D01*
X1279Y4263D01*
X1355Y4165D01*
X1453Y4089D01*
X1567Y4042D01*
X1690Y4026D01*
X1813Y4042D01*
X1927Y4089D01*
X2025Y4165D01*
X2101Y4263D01*
X2148Y4377D01*
X2164Y4500D01*
X2148Y4623D01*
X2101Y4737D01*
X2025Y4835D01*
X1927Y4911D01*
X1813Y4958D01*
X1690Y4974D01*
D02*
G37*
G36*
X11480Y4964D02*
X11357Y4948D01*
X11243Y4901D01*
X11145Y4825D01*
X11069Y4727D01*
X11022Y4613D01*
X11006Y4490D01*
X11022Y4367D01*
X11069Y4253D01*
X11145Y4155D01*
X11243Y4079D01*
X11357Y4032D01*
X11480Y4016D01*
X11603Y4032D01*
X11717Y4079D01*
X11815Y4155D01*
X11891Y4253D01*
X11938Y4367D01*
X11954Y4490D01*
X11938Y4613D01*
X11891Y4727D01*
X11815Y4825D01*
X11717Y4901D01*
X11603Y4948D01*
X11480Y4964D01*
D02*
G37*
G36*
X1690Y3974D02*
X1567Y3958D01*
X1453Y3911D01*
X1355Y3835D01*
X1279Y3737D01*
X1232Y3623D01*
X1216Y3500D01*
X1232Y3377D01*
X1279Y3263D01*
X1355Y3165D01*
X1453Y3089D01*
X1567Y3042D01*
X1690Y3026D01*
X1813Y3042D01*
X1927Y3089D01*
X2025Y3165D01*
X2101Y3263D01*
X2148Y3377D01*
X2164Y3500D01*
X2148Y3623D01*
X2101Y3737D01*
X2025Y3835D01*
X1927Y3911D01*
X1813Y3958D01*
X1690Y3974D01*
D02*
G37*
G36*
X11480Y3964D02*
X11357Y3948D01*
X11243Y3901D01*
X11145Y3825D01*
X11069Y3727D01*
X11022Y3613D01*
X11006Y3490D01*
X11022Y3367D01*
X11069Y3253D01*
X11145Y3155D01*
X11243Y3079D01*
X11357Y3032D01*
X11480Y3016D01*
X11603Y3032D01*
X11717Y3079D01*
X11815Y3155D01*
X11891Y3253D01*
X11938Y3367D01*
X11954Y3490D01*
X11938Y3613D01*
X11891Y3727D01*
X11815Y3825D01*
X11717Y3901D01*
X11603Y3948D01*
X11480Y3964D01*
D02*
G37*
G36*
X1690Y2974D02*
X1567Y2958D01*
X1453Y2911D01*
X1355Y2835D01*
X1279Y2737D01*
X1232Y2623D01*
X1216Y2500D01*
X1232Y2377D01*
X1279Y2263D01*
X1355Y2165D01*
X1453Y2089D01*
X1567Y2042D01*
X1690Y2026D01*
X1813Y2042D01*
X1927Y2089D01*
X2025Y2165D01*
X2101Y2263D01*
X2148Y2377D01*
X2164Y2500D01*
X2148Y2623D01*
X2101Y2737D01*
X2025Y2835D01*
X1927Y2911D01*
X1813Y2958D01*
X1690Y2974D01*
D02*
G37*
G36*
X11480Y2964D02*
X11357Y2948D01*
X11243Y2901D01*
X11145Y2825D01*
X11069Y2727D01*
X11022Y2613D01*
X11006Y2490D01*
X11022Y2367D01*
X11069Y2253D01*
X11145Y2155D01*
X11243Y2079D01*
X11357Y2032D01*
X11480Y2016D01*
X11603Y2032D01*
X11717Y2079D01*
X11815Y2155D01*
X11891Y2253D01*
X11938Y2367D01*
X11954Y2490D01*
X11938Y2613D01*
X11891Y2727D01*
X11815Y2825D01*
X11717Y2901D01*
X11603Y2948D01*
X11480Y2964D01*
D02*
G37*
G36*
X5640Y1945D02*
X5542Y1925D01*
X5460Y1870D01*
X5405Y1788D01*
X5400Y1767D01*
X5350D01*
X5345Y1788D01*
X5290Y1870D01*
X5208Y1925D01*
X5110Y1945D01*
X5012Y1925D01*
X4930Y1870D01*
X4875Y1788D01*
X4855Y1690D01*
X4875Y1592D01*
X4927Y1514D01*
Y1205D01*
X4920Y1200D01*
X4864Y1118D01*
X4845Y1020D01*
X4864Y922D01*
X4920Y840D01*
X5002Y785D01*
X5100Y765D01*
X5198Y785D01*
X5280Y840D01*
X5335Y922D01*
X5355Y1020D01*
X5335Y1118D01*
X5280Y1200D01*
X5273Y1205D01*
Y1498D01*
X5290Y1510D01*
X5345Y1592D01*
X5350Y1613D01*
X5400D01*
X5405Y1592D01*
X5460Y1510D01*
X5467Y1505D01*
Y885D01*
X5460Y880D01*
X5405Y798D01*
X5385Y700D01*
X5405Y602D01*
X5460Y520D01*
X5542Y465D01*
X5640Y445D01*
X5738Y465D01*
X5820Y520D01*
X5875Y602D01*
X5895Y700D01*
X5875Y798D01*
X5820Y880D01*
X5813Y885D01*
Y1505D01*
X5820Y1510D01*
X5875Y1592D01*
X5895Y1690D01*
X5875Y1788D01*
X5820Y1870D01*
X5738Y1925D01*
X5640Y1945D01*
D02*
G37*
G36*
X1690Y1974D02*
X1567Y1958D01*
X1453Y1911D01*
X1355Y1835D01*
X1279Y1737D01*
X1232Y1623D01*
X1216Y1500D01*
X1232Y1377D01*
X1279Y1263D01*
X1355Y1165D01*
X1453Y1089D01*
X1567Y1042D01*
X1690Y1026D01*
X1813Y1042D01*
X1927Y1089D01*
X2025Y1165D01*
X2101Y1263D01*
X2148Y1377D01*
X2164Y1500D01*
X2148Y1623D01*
X2101Y1737D01*
X2025Y1835D01*
X1927Y1911D01*
X1813Y1958D01*
X1690Y1974D01*
D02*
G37*
G36*
X11480Y1964D02*
X11357Y1948D01*
X11243Y1901D01*
X11145Y1825D01*
X11069Y1727D01*
X11022Y1613D01*
X11006Y1490D01*
X11022Y1367D01*
X11069Y1253D01*
X11145Y1155D01*
X11243Y1079D01*
X11357Y1032D01*
X11480Y1016D01*
X11603Y1032D01*
X11717Y1079D01*
X11815Y1155D01*
X11891Y1253D01*
X11938Y1367D01*
X11954Y1490D01*
X11938Y1613D01*
X11891Y1727D01*
X11815Y1825D01*
X11717Y1901D01*
X11603Y1948D01*
X11480Y1964D01*
D02*
G37*
%LPD*%
D10*
X7080Y5481D02*
Y8485D01*
Y5481D02*
X7101Y5460D01*
X6635Y6495D02*
Y8170D01*
X5950Y3330D02*
Y5470D01*
D14*
X7340Y7210D02*
X8430D01*
X7650Y6870D02*
X8730D01*
X7640Y7520D02*
X8730D01*
X7630Y8170D02*
X8740D01*
X7085Y8490D02*
X8460D01*
X7350Y7860D02*
X8410D01*
X8430Y7880D01*
X8440Y7870D01*
X5100Y1680D02*
X5110Y1690D01*
X5100Y1020D02*
Y1680D01*
X5640Y700D02*
Y1690D01*
X4390Y3090D02*
X6480D01*
D34*
X14052Y7325D02*
D03*
X13987Y6775D02*
D03*
Y6225D02*
D03*
X14052Y5675D02*
D03*
X-63Y5685D02*
D03*
X3Y6235D02*
D03*
Y6785D02*
D03*
X-63Y7335D02*
D03*
X7835Y-72D02*
D03*
X7285Y-8D02*
D03*
X6735D02*
D03*
X6185Y-72D02*
D03*
X4055Y13062D02*
D03*
X4605Y12997D02*
D03*
X5155D02*
D03*
X5705Y13062D02*
D03*
D40*
X7620Y4440D02*
Y4990D01*
X5660Y5970D02*
X5675Y5955D01*
X6805D01*
D42*
X11480Y12490D02*
D03*
X1690Y12500D02*
D03*
D43*
X11480Y11490D02*
D03*
Y10490D02*
D03*
Y9490D02*
D03*
Y8490D02*
D03*
Y7490D02*
D03*
Y6490D02*
D03*
Y5490D02*
D03*
Y4490D02*
D03*
Y3490D02*
D03*
Y2490D02*
D03*
Y1490D02*
D03*
X1690Y11500D02*
D03*
Y10500D02*
D03*
Y9500D02*
D03*
Y8500D02*
D03*
Y7500D02*
D03*
Y6500D02*
D03*
Y5500D02*
D03*
Y4500D02*
D03*
Y3500D02*
D03*
Y2500D02*
D03*
Y1500D02*
D03*
D44*
X8730Y6870D02*
D03*
X8430Y7210D02*
D03*
X7650Y6870D02*
D03*
X7340Y7210D02*
D03*
X8730Y7520D02*
D03*
X7630Y8170D02*
D03*
X7640Y7520D02*
D03*
X7350Y7860D02*
D03*
X8440Y7870D02*
D03*
X8740Y8170D02*
D03*
X8460Y8490D02*
D03*
X9190Y6059D02*
D03*
X5640Y700D02*
D03*
X5100Y1020D02*
D03*
X6480Y3090D02*
D03*
X4390D02*
D03*
X5110Y1690D02*
D03*
X5640D02*
D03*
X5455Y5445D02*
D03*
X4840Y6510D02*
D03*
X7670Y3360D02*
D03*
X5660Y5970D02*
D03*
X6805Y5955D02*
D03*
X7101Y5460D02*
D03*
X6635Y6495D02*
D03*
X5950Y5470D02*
D03*
X4380Y3910D02*
D03*
X8237Y3677D02*
D03*
X5950Y3330D02*
D03*
X7080Y8485D02*
D03*
X6635Y8170D02*
D03*
X7620Y4990D02*
D03*
Y4440D02*
D03*
D45*
X8221Y12258D02*
D03*
X8201Y10474D02*
D03*
X8191Y11448D02*
D03*
X4900Y9410D02*
D03*
X8000Y9410D02*
D03*
X6076Y11830D02*
D03*
M02*
