G04*
G04 #@! TF.GenerationSoftware,Altium Limited,Altium Designer,18.1.9 (240)*
G04*
G04 Layer_Color=16711935*
%FSLAX24Y24*%
%MOIN*%
G70*
G01*
G75*
%ADD32R,0.0780X0.0780*%
%ADD33C,0.0780*%
%ADD34C,0.0320*%
%ADD35C,0.0340*%
D32*
X11480Y12490D02*
D03*
X1690Y12500D02*
D03*
D33*
X11480Y11490D02*
D03*
Y10490D02*
D03*
Y9490D02*
D03*
Y8490D02*
D03*
Y7490D02*
D03*
Y6490D02*
D03*
Y5490D02*
D03*
Y4490D02*
D03*
Y3490D02*
D03*
Y2490D02*
D03*
Y1490D02*
D03*
X1690Y11500D02*
D03*
Y10500D02*
D03*
Y9500D02*
D03*
Y8500D02*
D03*
Y7500D02*
D03*
Y6500D02*
D03*
Y5500D02*
D03*
Y4500D02*
D03*
Y3500D02*
D03*
Y2500D02*
D03*
Y1500D02*
D03*
D34*
X14052Y7325D02*
D03*
X13987Y6775D02*
D03*
Y6225D02*
D03*
X14052Y5675D02*
D03*
X-63Y5685D02*
D03*
X3Y6235D02*
D03*
Y6785D02*
D03*
X-63Y7335D02*
D03*
X7835Y-72D02*
D03*
X7285Y-8D02*
D03*
X6735D02*
D03*
X6185Y-72D02*
D03*
X4055Y13062D02*
D03*
X4605Y12997D02*
D03*
X5155D02*
D03*
X5705Y13062D02*
D03*
D35*
X8730Y6870D02*
D03*
X8430Y7210D02*
D03*
X7650Y6870D02*
D03*
X7340Y7210D02*
D03*
X8730Y7520D02*
D03*
X7630Y8170D02*
D03*
X7640Y7520D02*
D03*
X7350Y7860D02*
D03*
X8440Y7870D02*
D03*
X8740Y8170D02*
D03*
X8460Y8490D02*
D03*
X9190Y6059D02*
D03*
X5640Y700D02*
D03*
X5100Y1020D02*
D03*
X6480Y3090D02*
D03*
X4390D02*
D03*
X5110Y1690D02*
D03*
X5640D02*
D03*
X5455Y5445D02*
D03*
X4840Y6510D02*
D03*
X7670Y3360D02*
D03*
X5660Y5970D02*
D03*
X6805Y5955D02*
D03*
X7101Y5460D02*
D03*
X6635Y6495D02*
D03*
X5950Y5470D02*
D03*
X4380Y3910D02*
D03*
X8237Y3677D02*
D03*
X5950Y3330D02*
D03*
X7080Y8485D02*
D03*
X6635Y8170D02*
D03*
X7620Y4990D02*
D03*
Y4440D02*
D03*
M02*
