G04*
G04 #@! TF.GenerationSoftware,Altium Limited,Altium Designer,18.1.9 (240)*
G04*
G04 Layer_Color=8421504*
%FSLAX24Y24*%
%MOIN*%
G70*
G01*
G75*
%ADD18R,0.0077X0.0205*%
%ADD19R,0.0205X0.0077*%
%ADD20R,0.0270X0.0350*%
%ADD21R,0.0350X0.0270*%
%ADD22R,0.0177X0.0472*%
%ADD23R,0.0315X0.0500*%
D18*
X6974Y4851D02*
D03*
X6974Y3689D02*
D03*
X6805Y4851D02*
D03*
X6635D02*
D03*
X6466D02*
D03*
X6805Y3689D02*
D03*
X6635D02*
D03*
X6466D02*
D03*
D19*
X7230Y4863D02*
D03*
Y4693D02*
D03*
Y4524D02*
D03*
Y4355D02*
D03*
Y4185D02*
D03*
Y4016D02*
D03*
Y3847D02*
D03*
X6210Y4863D02*
D03*
Y4693D02*
D03*
Y4524D02*
D03*
Y4355D02*
D03*
Y4185D02*
D03*
Y4016D02*
D03*
Y3847D02*
D03*
X7230Y3677D02*
D03*
X6210Y3677D02*
D03*
D20*
X4380Y4860D02*
D03*
X4960D02*
D03*
X4960Y4345D02*
D03*
X4380D02*
D03*
X6340Y9410D02*
D03*
X5760D02*
D03*
X5770Y10472D02*
D03*
X6350Y10472D02*
D03*
X7280Y12246D02*
D03*
X7860Y12246D02*
D03*
X7270Y11456D02*
D03*
X7850Y11456D02*
D03*
X6800Y9410D02*
D03*
X7380Y9410D02*
D03*
X8000Y5410D02*
D03*
X8580Y5410D02*
D03*
X8060Y4150D02*
D03*
X8640Y4150D02*
D03*
X8060Y4660D02*
D03*
X8640D02*
D03*
X6850Y2540D02*
D03*
X6270D02*
D03*
D21*
X4965Y4865D02*
D03*
Y5445D02*
D03*
X4965Y3760D02*
D03*
X4965Y4340D02*
D03*
X4900Y11131D02*
D03*
X4900Y10551D02*
D03*
X4360Y5660D02*
D03*
X4360Y6240D02*
D03*
X5640Y2070D02*
D03*
X5640Y2650D02*
D03*
X6030Y7120D02*
D03*
X6030Y6540D02*
D03*
X5130Y2070D02*
D03*
X5130Y2650D02*
D03*
X4620Y2070D02*
D03*
X4620Y2650D02*
D03*
D22*
X6454Y11383D02*
D03*
X5706Y12289D02*
D03*
X6454D02*
D03*
X6080D02*
D03*
X5706Y11383D02*
D03*
D23*
X7818Y10491D02*
D03*
X7031D02*
D03*
X8808Y6059D02*
D03*
X8020Y6059D02*
D03*
M02*
