G04*
G04 #@! TF.GenerationSoftware,Altium Limited,Altium Designer,18.1.9 (240)*
G04*
G04 Layer_Physical_Order=1*
G04 Layer_Color=255*
%FSLAX24Y24*%
%MOIN*%
G70*
G01*
G75*
%ADD10C,0.0070*%
%ADD14C,0.0100*%
%ADD20R,0.0270X0.0350*%
%ADD21R,0.0350X0.0270*%
%ADD22R,0.0177X0.0472*%
%ADD23R,0.0315X0.0500*%
%ADD34C,0.0320*%
%ADD36R,0.0108X0.0236*%
%ADD37R,0.0236X0.0108*%
%ADD38R,0.0400X0.0400*%
%ADD39C,0.0394*%
%ADD40C,0.0200*%
%ADD41C,0.0150*%
%ADD42R,0.0700X0.0700*%
%ADD43C,0.0700*%
%ADD44C,0.0260*%
%ADD45C,0.0280*%
D10*
X8808Y6059D02*
X9190D01*
X8808Y5678D02*
Y6059D01*
X8580Y5450D02*
X8808Y5678D01*
X8580Y5410D02*
Y5450D01*
X4965Y5445D02*
X5455D01*
X4670Y6510D02*
X4840D01*
X4400Y6240D02*
X4670Y6510D01*
X4360Y6240D02*
X4400D01*
X6980Y3360D02*
X7670D01*
X6974Y3354D02*
X6980Y3360D01*
X6210Y2600D02*
X6270Y2540D01*
X6210Y2600D02*
Y3677D01*
X5950Y5470D02*
Y5760D01*
X6030Y5840D01*
Y6540D01*
X6635Y4851D02*
Y5335D01*
X6514Y5456D02*
X6635Y5335D01*
X6514Y5456D02*
Y6374D01*
X6635Y6495D01*
X6974Y5333D02*
X7101Y5460D01*
X6974Y4851D02*
Y5333D01*
X4380Y3910D02*
Y4345D01*
X6804Y3354D02*
X6974D01*
X6800Y3350D02*
X6804Y3354D01*
X6635Y3350D02*
X6800D01*
X7860Y11448D02*
Y11992D01*
X6076Y11830D02*
Y12290D01*
X7580Y3697D02*
Y3847D01*
Y3697D02*
X7600Y3677D01*
X7860Y10533D02*
Y11448D01*
X8191D01*
X7858D02*
X7860D01*
X7230Y3847D02*
X7580D01*
Y3880D01*
X7600Y3677D02*
X8237D01*
X7230D02*
X7600D01*
X8640Y4150D02*
Y4660D01*
Y4080D02*
Y4150D01*
X8237Y3677D02*
X8640Y4080D01*
X7444Y4016D02*
X7580Y3880D01*
X7230Y4016D02*
X7444D01*
X6635Y3350D02*
Y3689D01*
X6805Y3355D02*
Y3689D01*
X6974Y3354D02*
Y3689D01*
X6466Y3519D02*
X6635Y3350D01*
X6466Y3519D02*
Y3689D01*
X4960Y4860D02*
X4969Y4851D01*
X5400D01*
X5689Y5140D01*
X6350D01*
X6466Y5024D01*
Y4851D02*
Y5024D01*
X5853Y4863D02*
X6210D01*
X5330Y4340D02*
X5853Y4863D01*
X4965Y4340D02*
X5330D01*
X5130Y2650D02*
Y2930D01*
X5530Y3330D01*
Y3760D01*
X4620Y2650D02*
Y2800D01*
X5370Y3550D01*
Y3810D01*
X5915Y4355D01*
X6210D01*
X5955Y4185D02*
X6210D01*
X5530Y3760D02*
X5955Y4185D01*
X5700Y3730D02*
X5986Y4016D01*
X5700Y2710D02*
Y3730D01*
X5640Y2650D02*
X5700Y2710D01*
X5986Y4016D02*
X6210D01*
X5950Y3330D02*
Y3780D01*
X6017Y3847D01*
X6210D01*
X7230Y4693D02*
X8027D01*
X8060Y4660D01*
X8025Y4185D02*
X8060Y4150D01*
X7230Y4185D02*
X8025D01*
X7835Y10474D02*
X8201D01*
X5154Y11384D02*
X5702D01*
X4900Y11131D02*
X5154Y11384D01*
X5702Y11131D02*
Y11384D01*
Y10540D02*
Y11131D01*
X7872Y12258D02*
X8221D01*
D14*
X8730Y6870D02*
X10100D01*
X11480Y5490D01*
X8430Y7210D02*
X10760D01*
X11480Y6490D01*
X6020Y7120D02*
X6030Y7110D01*
X6870Y7210D02*
X7340D01*
X6780Y7120D02*
X6870Y7210D01*
X6030Y7120D02*
X6780D01*
X5970Y7170D02*
X6020Y7120D01*
X6030D01*
X2360Y7170D02*
X5970D01*
X1690Y6500D02*
X2360Y7170D01*
X8730Y7520D02*
X11450D01*
X11480Y7490D01*
X6635Y8170D02*
X7630D01*
X1710Y7520D02*
X7640D01*
X1690Y7500D02*
X1710Y7520D01*
X2370Y7860D02*
X7350D01*
X2350Y7880D02*
X2370Y7860D01*
X8440Y7870D02*
X10840D01*
X10850Y7880D01*
X10860Y7870D01*
X8460Y8490D02*
X9480D01*
X6850Y3100D02*
X10090D01*
X6490D02*
X6850D01*
Y2540D02*
Y3100D01*
X4620Y1380D02*
X9370D01*
X3810D02*
X4620D01*
Y2070D01*
X5640Y700D02*
X10690D01*
X11480Y1490D01*
X2490Y700D02*
X5640D01*
X1690Y1500D02*
X2490Y700D01*
X1690Y2500D02*
X3170Y1020D01*
X5100D01*
X10010D01*
X11480Y2490D01*
X9370Y1380D02*
X11480Y3490D01*
X1690Y4500D02*
X3100Y3090D01*
X4390D01*
X1690Y3500D02*
X3810Y1380D01*
X5110Y1690D02*
Y2050D01*
X5130Y2070D01*
X5640Y1690D02*
Y2070D01*
X6454Y10470D02*
Y11383D01*
X4360Y5660D02*
X4415D01*
X6805Y4851D02*
Y5955D01*
X4360Y5660D02*
X4380Y5640D01*
Y4860D02*
Y5640D01*
X2340Y7890D02*
X2350Y7880D01*
X3060Y6870D02*
X7650D01*
X8740Y8170D02*
X10160D01*
X11480Y9490D01*
X2320Y7870D02*
X2340Y7890D01*
X1690Y5500D02*
X3060Y6870D01*
X3860Y3850D02*
Y4670D01*
X4050Y4860D01*
X4380D01*
X3860Y3850D02*
X4150Y3560D01*
X4720D01*
X4920Y3760D01*
X4965D01*
X10090Y3100D02*
X11480Y4490D01*
X5764Y4524D02*
X5933Y4693D01*
X6210D01*
X4965Y3760D02*
X5000D01*
X5764Y4524D01*
X6210D01*
X9480Y8490D02*
X11480Y10490D01*
X10860Y7870D02*
X11480Y8490D01*
X3705Y8485D02*
X7080D01*
X1690Y10500D02*
X3705Y8485D01*
X3020Y8170D02*
X6635D01*
X1690Y9500D02*
X3020Y8170D01*
X1690Y8500D02*
X2320Y7870D01*
X7230Y4863D02*
X7493D01*
X7620Y4990D01*
X7535Y4355D02*
X7620Y4440D01*
X7230Y4355D02*
X7535D01*
X7536Y4524D02*
X7620Y4440D01*
X7230Y4524D02*
X7536D01*
X7380Y9410D02*
X7380Y9410D01*
X8000D01*
X7031Y10089D02*
Y10491D01*
Y10089D02*
X7380Y9740D01*
Y9410D02*
Y9740D01*
X7270Y11410D02*
Y11456D01*
X7031Y11171D02*
X7270Y11410D01*
X7031Y10491D02*
Y11171D01*
X6350Y10472D02*
X6452D01*
X6454Y10470D01*
X6475Y10491D01*
X7031D01*
X4900Y9410D02*
X5760D01*
X6340D02*
X6800D01*
X4900D02*
X4900Y9410D01*
Y9626D02*
Y10551D01*
D20*
X4380Y4860D02*
D03*
X4960D02*
D03*
X4960Y4345D02*
D03*
X4380D02*
D03*
X6340Y9410D02*
D03*
X5760D02*
D03*
X5770Y10472D02*
D03*
X6350Y10472D02*
D03*
X7280Y12246D02*
D03*
X7860Y12246D02*
D03*
X7270Y11456D02*
D03*
X7850Y11456D02*
D03*
X6800Y9410D02*
D03*
X7380Y9410D02*
D03*
X8000Y5410D02*
D03*
X8580Y5410D02*
D03*
X8060Y4150D02*
D03*
X8640Y4150D02*
D03*
X8060Y4660D02*
D03*
X8640D02*
D03*
X6850Y2540D02*
D03*
X6270D02*
D03*
D21*
X4965Y4865D02*
D03*
Y5445D02*
D03*
X4965Y3760D02*
D03*
X4965Y4340D02*
D03*
X4900Y11131D02*
D03*
X4900Y10551D02*
D03*
X4360Y5660D02*
D03*
X4360Y6240D02*
D03*
X5640Y2070D02*
D03*
X5640Y2650D02*
D03*
X6030Y7120D02*
D03*
X6030Y6540D02*
D03*
X5130Y2070D02*
D03*
X5130Y2650D02*
D03*
X4620Y2070D02*
D03*
X4620Y2650D02*
D03*
D22*
X6454Y11383D02*
D03*
X5706Y12289D02*
D03*
X6454D02*
D03*
X6080D02*
D03*
X5706Y11383D02*
D03*
D23*
X7818Y10491D02*
D03*
X7031D02*
D03*
X8808Y6059D02*
D03*
X8020Y6059D02*
D03*
D34*
X14052Y7325D02*
D03*
X13987Y6775D02*
D03*
Y6225D02*
D03*
X14052Y5675D02*
D03*
X-63Y5685D02*
D03*
X3Y6235D02*
D03*
Y6785D02*
D03*
X-63Y7335D02*
D03*
X7835Y-72D02*
D03*
X7285Y-8D02*
D03*
X6735D02*
D03*
X6185Y-72D02*
D03*
X4055Y13062D02*
D03*
X4605Y12997D02*
D03*
X5155D02*
D03*
X5705Y13062D02*
D03*
D36*
X6974Y4851D02*
D03*
X6974Y3689D02*
D03*
X6805Y4851D02*
D03*
X6635D02*
D03*
X6466D02*
D03*
X6805Y3689D02*
D03*
X6635D02*
D03*
X6466D02*
D03*
D37*
X7230Y4863D02*
D03*
Y4693D02*
D03*
Y4524D02*
D03*
Y4355D02*
D03*
Y4185D02*
D03*
Y4016D02*
D03*
Y3847D02*
D03*
X6210Y4863D02*
D03*
Y4693D02*
D03*
Y4524D02*
D03*
Y4355D02*
D03*
Y4185D02*
D03*
Y4016D02*
D03*
Y3847D02*
D03*
X7230Y3677D02*
D03*
X6210Y3677D02*
D03*
D38*
X8000Y9410D02*
D03*
X4900D02*
D03*
X4950Y11950D02*
D03*
D39*
X7450Y5910D02*
D03*
X4170Y11460D02*
D03*
D40*
X7620Y4990D02*
X8000Y5370D01*
Y5410D02*
Y9410D01*
Y5370D02*
Y5410D01*
X4725Y5970D02*
X5660D01*
X4415Y5660D02*
X4725Y5970D01*
X1690Y12500D02*
X5722D01*
X4950Y11950D02*
Y12490D01*
X5706Y12484D02*
X5722Y12500D01*
X5706Y12289D02*
Y12484D01*
X5722Y12500D02*
X5922Y12700D01*
X6460D02*
X7300D01*
X7280Y12680D02*
X7300Y12700D01*
X7280Y12246D02*
Y12680D01*
X7300Y12700D02*
X11270D01*
X5922D02*
X6460D01*
X6454Y12694D02*
X6460Y12700D01*
X11270D02*
X11480Y12490D01*
D41*
X6454Y12289D02*
Y12694D01*
D42*
X11480Y12490D02*
D03*
X1690Y12500D02*
D03*
D43*
X11480Y11490D02*
D03*
Y10490D02*
D03*
Y9490D02*
D03*
Y8490D02*
D03*
Y7490D02*
D03*
Y6490D02*
D03*
Y5490D02*
D03*
Y4490D02*
D03*
Y3490D02*
D03*
Y2490D02*
D03*
Y1490D02*
D03*
X1690Y11500D02*
D03*
Y10500D02*
D03*
Y9500D02*
D03*
Y8500D02*
D03*
Y7500D02*
D03*
Y6500D02*
D03*
Y5500D02*
D03*
Y4500D02*
D03*
Y3500D02*
D03*
Y2500D02*
D03*
Y1500D02*
D03*
D44*
X8730Y6870D02*
D03*
X8430Y7210D02*
D03*
X7650Y6870D02*
D03*
X7340Y7210D02*
D03*
X8730Y7520D02*
D03*
X7630Y8170D02*
D03*
X7640Y7520D02*
D03*
X7350Y7860D02*
D03*
X8440Y7870D02*
D03*
X8740Y8170D02*
D03*
X8460Y8490D02*
D03*
X9190Y6059D02*
D03*
X5640Y700D02*
D03*
X5100Y1020D02*
D03*
X6480Y3090D02*
D03*
X4390D02*
D03*
X5110Y1690D02*
D03*
X5640D02*
D03*
X5455Y5445D02*
D03*
X4840Y6510D02*
D03*
X7670Y3360D02*
D03*
X5660Y5970D02*
D03*
X6805Y5955D02*
D03*
X7101Y5460D02*
D03*
X6635Y6495D02*
D03*
X5950Y5470D02*
D03*
X4380Y3910D02*
D03*
X8237Y3677D02*
D03*
X5950Y3330D02*
D03*
X7080Y8485D02*
D03*
X6635Y8170D02*
D03*
X7620Y4990D02*
D03*
Y4440D02*
D03*
D45*
X8221Y12258D02*
D03*
X8201Y10474D02*
D03*
X8191Y11448D02*
D03*
X4900Y9410D02*
D03*
X8000Y9410D02*
D03*
X6076Y11830D02*
D03*
M02*
