M48
;Layer_Color=9474304
;FILE_FORMAT=2:4
INCH,LZ
;TYPE=PLATED
T1F00S00C0.0150
T2F00S00C0.0320
T3F00S00C0.0380
T4F00S00C0.0420
T5F00S00C0.0472
%
T01
X00881Y00144
X0094Y00222
X01012Y00202
X01036Y00174
X01067Y0015
X010409Y003669
X009852Y003758
X00847Y00281
X00754Y004
X00707Y00362
X01293Y00272
X013012Y002062
X01427Y00283
X01498Y00224
X01458Y00386
X01628Y00312
X01746Y00346
X01973Y0035
X01882Y00167
Y00116
X00616Y00084
X0056Y00042
X00544Y00151
X005769Y00261
X006332Y00344
X00476Y003291
X00228Y00395
X00317Y00442
X00384Y00552
X00317Y00654
X0048Y00655
X00634Y00644
X00638Y00771
X00388Y00801
X00347
X00288Y00794
X0021Y00796
X002176Y008606
X0022Y009395
X00365Y00988
X00373Y01034
X00325Y01028
X00324Y01172
X00169Y01302
X000362Y010682
X00562Y01083
X005784Y012836
X005744Y013786
X0063Y01431
X00629Y00478
X006Y00443
X0078Y00451
X00981Y005
X01072
X01328Y0059
X01298Y00643
X01331Y00696
X0153Y00694
X014946Y00561
X0151Y00505
X015536Y00507
X016Y00455
X01634Y0054
Y0059
X01784Y00587
X01788Y0054
X01787Y0064
X01784Y0069
X01786Y00742
X01949Y00846
X01992Y00863
X0199Y00916
X01979Y00965
X02019Y01119
X02023Y01338
X02033Y01464
X01987Y01448
X01413Y01417
X01414Y01369
X01413Y01321
X0144Y01255
X01381Y0114
X01345Y01163
X01258Y0117
X01221Y01202
X01161Y0129
X01167Y01417
X01251Y01423
X01045Y01202
X00816Y01188
X00757Y01033
X00688Y00915
X00727Y00668
X01487Y00429
X01937Y00402
X01998Y00685
X02017Y0079
X01622Y00857
X01512Y00977
X01459Y01051
X02413Y01328
X02473Y01403
X02477Y01447
T02
X00064Y00904
X00042Y0123
T03
X0225Y0015
Y0025
Y0035
Y0045
Y0055
Y0065
Y0075
Y0085
Y0095
Y0105
Y0115
Y0125
T04
X00077Y00392
Y00492
X01765Y00883
X01865
T05
X011201Y000523
X013799
M30
