G04*
G04 #@! TF.GenerationSoftware,Altium Limited,Altium Designer,18.1.9 (240)*
G04*
G04 Layer_Physical_Order=2*
G04 Layer_Color=16711680*
%FSLAX24Y24*%
%MOIN*%
G70*
G01*
G75*
%ADD10C,0.0100*%
%ADD12C,0.0070*%
%ADD77C,0.0150*%
%ADD78C,0.0200*%
%ADD79C,0.0700*%
%ADD80R,0.0700X0.0700*%
%ADD81R,0.0630X0.0630*%
%ADD82C,0.0500*%
%ADD83C,0.0260*%
G36*
X4018Y14900D02*
X2316Y13198D01*
X1837D01*
X1780Y13237D01*
X1690Y13255D01*
X1600Y13237D01*
X1524Y13186D01*
X1473Y13110D01*
X1455Y13020D01*
X1473Y12930D01*
X1512Y12873D01*
Y3750D01*
X1525Y3682D01*
X1564Y3624D01*
X2534Y2654D01*
X4894Y294D01*
X4952Y255D01*
X5020Y242D01*
X5453D01*
X5510Y203D01*
X5600Y185D01*
X5690Y203D01*
X5766Y254D01*
X5817Y330D01*
X5835Y420D01*
X5817Y510D01*
X5766Y586D01*
X5690Y637D01*
X5600Y655D01*
X5510Y637D01*
X5453Y598D01*
X5094D01*
X3183Y2509D01*
X3221Y2602D01*
X4249D01*
X4317Y2615D01*
X4375Y2654D01*
X4782Y3061D01*
X4850Y3075D01*
X4926Y3125D01*
X4977Y3202D01*
X4995Y3291D01*
X4977Y3381D01*
X4926Y3457D01*
X4850Y3508D01*
X4760Y3526D01*
X4670Y3508D01*
X4594Y3457D01*
X4543Y3381D01*
X4530Y3314D01*
X4175Y2958D01*
X2734D01*
X1868Y3824D01*
Y7726D01*
X1968Y7771D01*
X2010Y7743D01*
X2100Y7725D01*
X2190Y7743D01*
X2266Y7794D01*
X2271Y7802D01*
X2695D01*
X2714Y7774D01*
X2790Y7723D01*
X2880Y7705D01*
X2889Y7707D01*
X2966Y7644D01*
Y6660D01*
X2968Y6651D01*
X2953Y6630D01*
X2935Y6540D01*
X2953Y6450D01*
X2966Y6431D01*
Y4529D01*
X2953Y4510D01*
X2935Y4420D01*
X2953Y4330D01*
X3004Y4254D01*
X3080Y4203D01*
X3170Y4185D01*
X3260Y4203D01*
X3336Y4254D01*
X3387Y4330D01*
X3405Y4420D01*
X3387Y4510D01*
X3374Y4529D01*
Y6370D01*
X3474Y6411D01*
X3813Y6073D01*
X3857Y6043D01*
X3910Y6032D01*
X6760D01*
X6813Y6043D01*
X6857Y6073D01*
X7237Y6452D01*
X7270Y6445D01*
X7360Y6463D01*
X7436Y6514D01*
X7487Y6590D01*
X7505Y6680D01*
X7487Y6770D01*
X7436Y6846D01*
X7360Y6897D01*
X7270Y6915D01*
X7180Y6897D01*
X7104Y6846D01*
X7053Y6770D01*
X7035Y6680D01*
X7042Y6647D01*
X6728Y6333D01*
X6633Y6339D01*
X6571Y6422D01*
X6575Y6440D01*
X6557Y6530D01*
X6506Y6606D01*
X6430Y6657D01*
X6340Y6675D01*
X6307Y6668D01*
X6038Y6937D01*
Y8113D01*
X6847Y8922D01*
X6880Y8915D01*
X6970Y8933D01*
X7046Y8984D01*
X7097Y9060D01*
X7115Y9150D01*
X7097Y9240D01*
X7046Y9316D01*
X6970Y9367D01*
X6880Y9385D01*
X6790Y9367D01*
X6714Y9316D01*
X6663Y9240D01*
X6645Y9150D01*
X6652Y9117D01*
X5803Y8267D01*
X5773Y8223D01*
X5762Y8170D01*
Y6880D01*
X5773Y6827D01*
X5803Y6783D01*
X6112Y6473D01*
X6105Y6440D01*
X6112Y6408D01*
X6041Y6308D01*
X3967D01*
X3608Y6667D01*
Y7825D01*
X3636Y7844D01*
X3687Y7920D01*
X3705Y8010D01*
X3687Y8100D01*
X3636Y8176D01*
X3560Y8227D01*
X3470Y8245D01*
X3374Y8327D01*
Y9696D01*
X3514Y9836D01*
X3546Y9884D01*
X3646Y9984D01*
X3694Y10016D01*
X3797Y10119D01*
X3820Y10123D01*
X3896Y10174D01*
X3947Y10250D01*
X3965Y10340D01*
X3947Y10430D01*
X3896Y10506D01*
X3871Y10522D01*
X3852Y10632D01*
X3901Y10692D01*
X5435D01*
X5454Y10664D01*
X5530Y10613D01*
X5620Y10595D01*
X5710Y10613D01*
X5786Y10664D01*
X5837Y10740D01*
X5855Y10830D01*
X5837Y10920D01*
X5786Y10996D01*
X5710Y11047D01*
X5620Y11065D01*
X5530Y11047D01*
X5454Y10996D01*
X5435Y10968D01*
X3800D01*
X3747Y10957D01*
X3703Y10927D01*
X3703Y10927D01*
X3283Y10508D01*
X3250Y10515D01*
X3160Y10497D01*
X3084Y10446D01*
X3033Y10370D01*
X3015Y10280D01*
X3033Y10190D01*
X3084Y10114D01*
X3091Y9989D01*
X3026Y9924D01*
X2982Y9858D01*
X2966Y9780D01*
Y8236D01*
X2889Y8173D01*
X2880Y8175D01*
X2790Y8157D01*
X2714Y8106D01*
X2695Y8078D01*
X2298D01*
X2266Y8126D01*
X2190Y8177D01*
X2100Y8195D01*
X2010Y8177D01*
X1968Y8149D01*
X1868Y8194D01*
Y12842D01*
X2390D01*
X2458Y12855D01*
X2516Y12894D01*
X4244Y14622D01*
X9916D01*
X9955Y14529D01*
X8063Y12637D01*
X8033Y12593D01*
X8022Y12540D01*
Y12065D01*
X7994Y12046D01*
X7943Y11970D01*
X7925Y11880D01*
X7943Y11790D01*
X7994Y11714D01*
X8070Y11663D01*
X8160Y11645D01*
X8250Y11663D01*
X8326Y11714D01*
X8377Y11790D01*
X8395Y11880D01*
X8377Y11970D01*
X8326Y12046D01*
X8298Y12065D01*
Y12483D01*
X10287Y14472D01*
X12284D01*
X12299Y14453D01*
X12328Y14372D01*
X12293Y14320D01*
X12275Y14230D01*
X12293Y14140D01*
X12344Y14064D01*
X12372Y14045D01*
Y12940D01*
X12383Y12887D01*
X12413Y12843D01*
X13277Y11978D01*
X13263Y11858D01*
X13206Y11822D01*
X13186Y11829D01*
X12897Y12117D01*
X12853Y12147D01*
X12800Y12158D01*
X12395D01*
X12376Y12186D01*
X12300Y12237D01*
X12210Y12255D01*
X12120Y12237D01*
X12044Y12186D01*
X11993Y12110D01*
X11975Y12020D01*
X11993Y11930D01*
X12044Y11854D01*
X12120Y11803D01*
X12210Y11785D01*
X12300Y11803D01*
X12376Y11854D01*
X12395Y11882D01*
X12743D01*
X13093Y11533D01*
X13137Y11503D01*
X13190Y11492D01*
X13265D01*
X13284Y11464D01*
X13360Y11413D01*
X13450Y11395D01*
X13481Y11402D01*
X13547Y11400D01*
X13590Y11329D01*
X13593Y11310D01*
X13644Y11234D01*
X13720Y11183D01*
X13810Y11165D01*
X13900Y11183D01*
X13976Y11234D01*
X14027Y11310D01*
X14045Y11400D01*
X14027Y11490D01*
X13976Y11566D01*
X13943Y11588D01*
Y11645D01*
X13943Y11645D01*
X13932Y11698D01*
X13902Y11742D01*
X13902Y11742D01*
X12648Y12997D01*
Y14045D01*
X12676Y14064D01*
X12727Y14140D01*
X12745Y14230D01*
X12727Y14320D01*
X12692Y14372D01*
X12721Y14453D01*
X12736Y14472D01*
X13998D01*
X14019Y14372D01*
X13964Y14336D01*
X13913Y14260D01*
X13895Y14170D01*
X13913Y14080D01*
X13964Y14004D01*
X13990Y13987D01*
X13993Y13869D01*
X13974Y13856D01*
X13923Y13780D01*
X13905Y13690D01*
X13923Y13600D01*
X13974Y13524D01*
X13993Y13511D01*
X13990Y13393D01*
X13964Y13376D01*
X13913Y13300D01*
X13895Y13210D01*
X13913Y13120D01*
X13964Y13044D01*
X14040Y12993D01*
X14130Y12975D01*
X14220Y12993D01*
X14296Y13044D01*
X14347Y13120D01*
X14365Y13210D01*
X14358Y13243D01*
X14827Y13712D01*
X20209D01*
X20219Y13612D01*
X20140Y13597D01*
X20064Y13546D01*
X20013Y13470D01*
X19995Y13380D01*
X20002Y13347D01*
X19133Y12477D01*
X19103Y12433D01*
X19092Y12380D01*
Y9157D01*
X18992Y9123D01*
X18971Y9151D01*
X18877Y9223D01*
X18767Y9268D01*
X18700Y9277D01*
Y8830D01*
Y8383D01*
X18767Y8392D01*
X18877Y8437D01*
X18971Y8509D01*
X18992Y8537D01*
X19092Y8503D01*
Y7817D01*
X18833Y7558D01*
X18045D01*
X18026Y7586D01*
X17950Y7637D01*
X17860Y7655D01*
X17770Y7637D01*
X17694Y7586D01*
X17643Y7510D01*
X17625Y7420D01*
X17643Y7330D01*
X17694Y7254D01*
X17748Y7218D01*
X17750Y7145D01*
X17748Y7131D01*
X17742Y7111D01*
X17674Y7066D01*
X17623Y6990D01*
X17605Y6900D01*
X17612Y6867D01*
X17313Y6568D01*
X13165D01*
X13146Y6596D01*
X13070Y6647D01*
X12980Y6665D01*
X12890Y6647D01*
X12814Y6596D01*
X12763Y6520D01*
X12745Y6430D01*
X12763Y6340D01*
X12814Y6264D01*
X12890Y6213D01*
X12980Y6195D01*
X13070Y6213D01*
X13146Y6264D01*
X13165Y6292D01*
X17370D01*
X17423Y6303D01*
X17467Y6333D01*
X17540Y6406D01*
X17551Y6405D01*
X17642Y6366D01*
X17653Y6310D01*
X17704Y6234D01*
X17767Y6192D01*
X17769Y6140D01*
X17757Y6088D01*
X17750Y6087D01*
X17674Y6036D01*
X17623Y5960D01*
X17605Y5870D01*
X17610Y5847D01*
X17544Y5773D01*
X16643D01*
X16569Y5873D01*
X16575Y5900D01*
X16557Y5990D01*
X16506Y6066D01*
X16430Y6117D01*
X16340Y6135D01*
X16250Y6117D01*
X16174Y6066D01*
X16155Y6038D01*
X13465D01*
X13446Y6066D01*
X13370Y6117D01*
X13280Y6135D01*
X13190Y6117D01*
X13114Y6066D01*
X13063Y5990D01*
X13045Y5900D01*
X13063Y5810D01*
X13114Y5734D01*
X13190Y5683D01*
X13280Y5665D01*
X13370Y5683D01*
X13446Y5734D01*
X13465Y5762D01*
X14660D01*
X14722Y5662D01*
X14711Y5610D01*
X14718Y5577D01*
X14483Y5341D01*
X14453Y5297D01*
X14442Y5244D01*
Y4045D01*
X14414Y4026D01*
X14363Y3950D01*
X14345Y3860D01*
X14363Y3770D01*
X14414Y3694D01*
X14490Y3643D01*
X14580Y3625D01*
X14670Y3643D01*
X14746Y3694D01*
X14797Y3770D01*
X14815Y3860D01*
X14797Y3950D01*
X14782Y3971D01*
X14843Y4061D01*
X14870Y4055D01*
X14960Y4073D01*
X15036Y4124D01*
X15087Y4200D01*
X15093Y4231D01*
X15201Y4264D01*
X15503Y3963D01*
X15547Y3933D01*
X15600Y3922D01*
X15600Y3922D01*
X17470D01*
X17523Y3933D01*
X17567Y3963D01*
X18217Y4613D01*
X18247Y4657D01*
X18258Y4710D01*
X18258Y4710D01*
Y6150D01*
X18247Y6203D01*
X18217Y6247D01*
X18217Y6247D01*
X18098Y6367D01*
X18105Y6400D01*
X18087Y6490D01*
X18036Y6566D01*
X17985Y6600D01*
X17972Y6685D01*
X17977Y6715D01*
X18006Y6734D01*
X18057Y6810D01*
X18075Y6900D01*
X18057Y6990D01*
X18006Y7066D01*
X17952Y7102D01*
X17950Y7175D01*
X17952Y7189D01*
X17958Y7209D01*
X18026Y7254D01*
X18045Y7282D01*
X18890D01*
X18943Y7293D01*
X18987Y7323D01*
X19327Y7663D01*
X19327Y7663D01*
X19357Y7707D01*
X19368Y7760D01*
X19368Y7760D01*
Y8154D01*
X19468Y8230D01*
X19490Y8225D01*
X19580Y8243D01*
X19656Y8294D01*
X19707Y8370D01*
X19708Y8375D01*
X19819Y8421D01*
X19830Y8413D01*
X19920Y8395D01*
X20017Y8313D01*
Y8074D01*
X20004Y8066D01*
X19953Y7990D01*
X19935Y7900D01*
X19953Y7810D01*
X20004Y7734D01*
X20080Y7683D01*
X20170Y7665D01*
X20260Y7683D01*
X20336Y7734D01*
X20387Y7810D01*
X20405Y7900D01*
X20387Y7990D01*
X20336Y8066D01*
X20323Y8074D01*
Y10690D01*
Y11002D01*
X20356Y11024D01*
X20407Y11100D01*
X20425Y11190D01*
X20407Y11280D01*
X20356Y11356D01*
X20280Y11407D01*
X20190Y11425D01*
X20100Y11407D01*
X20024Y11356D01*
X19973Y11280D01*
X19955Y11190D01*
X19973Y11100D01*
X20017Y11035D01*
Y10690D01*
Y9890D01*
X19917Y9842D01*
X19880Y9867D01*
X19790Y9885D01*
X19700Y9867D01*
X19624Y9816D01*
X19573Y9740D01*
X19555Y9650D01*
X19562Y9617D01*
X19468Y9522D01*
X19368Y9564D01*
Y12323D01*
X20197Y13152D01*
X20230Y13145D01*
X20320Y13163D01*
X20396Y13214D01*
X20447Y13290D01*
X20465Y13380D01*
X20447Y13470D01*
X20396Y13546D01*
X20320Y13597D01*
X20241Y13612D01*
X20251Y13712D01*
X23503D01*
X23902Y13313D01*
X23895Y13280D01*
X23913Y13190D01*
X23964Y13114D01*
X24040Y13063D01*
X24130Y13046D01*
X24220Y13063D01*
X24296Y13114D01*
X24347Y13190D01*
X24365Y13280D01*
X24347Y13370D01*
X24296Y13446D01*
X24220Y13497D01*
X24130Y13515D01*
X24097Y13508D01*
X23805Y13800D01*
X23843Y13892D01*
X24545D01*
X24564Y13864D01*
X24640Y13813D01*
X24730Y13795D01*
X24820Y13813D01*
X24896Y13864D01*
X24900Y13870D01*
X25000Y13840D01*
Y32D01*
X24970Y10D01*
X71Y0D01*
X0Y71D01*
Y12138D01*
X100Y12158D01*
X114Y12123D01*
X170Y12050D01*
X243Y11994D01*
X329Y11959D01*
X420Y11947D01*
X511Y11959D01*
X597Y11994D01*
X670Y12050D01*
X726Y12123D01*
X761Y12209D01*
X773Y12300D01*
X761Y12391D01*
X726Y12477D01*
X670Y12550D01*
X597Y12606D01*
X511Y12641D01*
X420Y12653D01*
X329Y12641D01*
X243Y12606D01*
X170Y12550D01*
X114Y12477D01*
X100Y12442D01*
X0Y12462D01*
Y15000D01*
X3981D01*
X4018Y14900D01*
D02*
G37*
%LPC*%
G36*
X22950Y12950D02*
X22050D01*
Y12050D01*
X22464D01*
X22471Y11950D01*
X22434Y11945D01*
X22383Y11938D01*
X22273Y11893D01*
X22179Y11821D01*
X22107Y11727D01*
X22062Y11617D01*
X22053Y11550D01*
X22500D01*
X22947D01*
X22938Y11617D01*
X22893Y11727D01*
X22821Y11821D01*
X22727Y11893D01*
X22617Y11938D01*
X22566Y11945D01*
X22529Y11950D01*
X22536Y12050D01*
X22950D01*
Y12950D01*
D02*
G37*
G36*
X640Y9393D02*
X549Y9381D01*
X463Y9346D01*
X390Y9290D01*
X334Y9217D01*
X299Y9131D01*
X287Y9040D01*
X299Y8949D01*
X334Y8863D01*
X390Y8790D01*
X463Y8734D01*
X549Y8699D01*
X640Y8687D01*
X731Y8699D01*
X817Y8734D01*
X890Y8790D01*
X946Y8863D01*
X981Y8949D01*
X993Y9040D01*
X981Y9131D01*
X946Y9217D01*
X890Y9290D01*
X817Y9346D01*
X731Y9381D01*
X640Y9393D01*
D02*
G37*
G36*
X14590Y10745D02*
X14500Y10727D01*
X14424Y10676D01*
X14373Y10600D01*
X14355Y10510D01*
X14373Y10420D01*
X14424Y10344D01*
X14500Y10293D01*
X14590Y10275D01*
X14680Y10293D01*
X14756Y10344D01*
X14775Y10372D01*
X15913D01*
X17249Y9037D01*
X17212Y8947D01*
X17196Y8830D01*
X17212Y8713D01*
X17257Y8603D01*
X17329Y8509D01*
X17423Y8437D01*
X17533Y8392D01*
X17650Y8376D01*
X17767Y8392D01*
X17877Y8437D01*
X17971Y8509D01*
X18043Y8603D01*
X18088Y8713D01*
X18095Y8765D01*
X18100Y8797D01*
X18200D01*
X18205Y8765D01*
X18212Y8713D01*
X18257Y8603D01*
X18329Y8509D01*
X18423Y8437D01*
X18533Y8392D01*
X18600Y8383D01*
Y8830D01*
Y9277D01*
X18533Y9268D01*
X18423Y9223D01*
X18329Y9151D01*
X18257Y9057D01*
X18212Y8947D01*
X18205Y8895D01*
X18200Y8863D01*
X18100D01*
X18095Y8895D01*
X18088Y8947D01*
X18043Y9057D01*
X17971Y9151D01*
X17877Y9223D01*
X17767Y9268D01*
X17650Y9284D01*
X17533Y9268D01*
X17443Y9231D01*
X16067Y10607D01*
X16023Y10637D01*
X15970Y10648D01*
X14775D01*
X14756Y10676D01*
X14680Y10727D01*
X14590Y10745D01*
D02*
G37*
G36*
X13310Y7195D02*
X13220Y7177D01*
X13144Y7126D01*
X13093Y7050D01*
X13075Y6960D01*
X13093Y6870D01*
X13144Y6794D01*
X13220Y6743D01*
X13310Y6725D01*
X13400Y6743D01*
X13476Y6794D01*
X13481Y6802D01*
X15115D01*
X15134Y6774D01*
X15210Y6723D01*
X15300Y6705D01*
X15390Y6723D01*
X15466Y6774D01*
X15517Y6850D01*
X15535Y6940D01*
X15517Y7030D01*
X15466Y7106D01*
X15390Y7157D01*
X15300Y7175D01*
X15210Y7157D01*
X15134Y7106D01*
X15115Y7078D01*
X13508D01*
X13476Y7126D01*
X13400Y7177D01*
X13310Y7195D01*
D02*
G37*
G36*
X10720Y5235D02*
X10630Y5217D01*
X10554Y5166D01*
X10535Y5138D01*
X9995D01*
X9976Y5166D01*
X9900Y5217D01*
X9810Y5235D01*
X9720Y5217D01*
X9644Y5166D01*
X9593Y5090D01*
X9575Y5000D01*
X9593Y4910D01*
X9644Y4834D01*
X9720Y4783D01*
X9810Y4765D01*
X9900Y4783D01*
X9976Y4834D01*
X9995Y4862D01*
X10535D01*
X10554Y4834D01*
X10630Y4783D01*
X10720Y4765D01*
X10810Y4783D01*
X10886Y4834D01*
X10937Y4910D01*
X10955Y5000D01*
X10937Y5090D01*
X10886Y5166D01*
X10810Y5217D01*
X10720Y5235D01*
D02*
G37*
G36*
X820Y5367D02*
Y4970D01*
X1217D01*
X1208Y5037D01*
X1163Y5147D01*
X1091Y5241D01*
X997Y5313D01*
X887Y5358D01*
X820Y5367D01*
D02*
G37*
G36*
X720D02*
X653Y5358D01*
X543Y5313D01*
X449Y5241D01*
X377Y5147D01*
X332Y5037D01*
X323Y4970D01*
X720D01*
Y5367D01*
D02*
G37*
G36*
X9852Y3993D02*
X9762Y3975D01*
X9686Y3924D01*
X9635Y3848D01*
X9617Y3758D01*
X9635Y3669D01*
X9686Y3592D01*
X9762Y3542D01*
X9852Y3524D01*
X9941Y3542D01*
X10018Y3592D01*
X10068Y3669D01*
X10086Y3758D01*
X10068Y3848D01*
X10018Y3924D01*
X9941Y3975D01*
X9852Y3993D01*
D02*
G37*
G36*
X1217Y4870D02*
X770D01*
X323D01*
X332Y4803D01*
X377Y4693D01*
X449Y4599D01*
X543Y4527D01*
X653Y4482D01*
X705Y4475D01*
X737Y4470D01*
Y4370D01*
X705Y4365D01*
X653Y4358D01*
X543Y4313D01*
X449Y4241D01*
X377Y4147D01*
X332Y4037D01*
X316Y3920D01*
X332Y3803D01*
X377Y3693D01*
X449Y3599D01*
X543Y3527D01*
X653Y3482D01*
X770Y3466D01*
X887Y3482D01*
X997Y3527D01*
X1091Y3599D01*
X1163Y3693D01*
X1208Y3803D01*
X1224Y3920D01*
X1208Y4037D01*
X1163Y4147D01*
X1091Y4241D01*
X997Y4313D01*
X887Y4358D01*
X835Y4365D01*
X803Y4370D01*
Y4470D01*
X835Y4475D01*
X887Y4482D01*
X997Y4527D01*
X1091Y4599D01*
X1163Y4693D01*
X1208Y4803D01*
X1217Y4870D01*
D02*
G37*
G36*
X10409Y3904D02*
X10320Y3886D01*
X10244Y3835D01*
X10193Y3759D01*
X10175Y3669D01*
X10193Y3580D01*
X10244Y3504D01*
X10320Y3453D01*
X10409Y3435D01*
X10499Y3453D01*
X10575Y3504D01*
X10626Y3580D01*
X10644Y3669D01*
X10626Y3759D01*
X10575Y3835D01*
X10499Y3886D01*
X10409Y3904D01*
D02*
G37*
G36*
X7800Y4745D02*
X7710Y4727D01*
X7634Y4676D01*
X7583Y4600D01*
X7565Y4510D01*
X7583Y4420D01*
X7634Y4344D01*
X7710Y4293D01*
X7800Y4275D01*
X7833Y4282D01*
X7992Y4123D01*
Y2923D01*
X7900Y2885D01*
X7678Y3107D01*
Y3815D01*
X7706Y3834D01*
X7757Y3910D01*
X7775Y4000D01*
X7757Y4090D01*
X7706Y4166D01*
X7630Y4217D01*
X7540Y4235D01*
X7450Y4217D01*
X7374Y4166D01*
X7323Y4090D01*
X7305Y4000D01*
X7323Y3910D01*
X7374Y3834D01*
X7402Y3815D01*
Y3700D01*
X7393Y3689D01*
X7294Y3708D01*
X7282Y3717D01*
X7236Y3786D01*
X7160Y3837D01*
X7070Y3855D01*
X6980Y3837D01*
X6904Y3786D01*
X6853Y3710D01*
X6835Y3620D01*
X6842Y3587D01*
X6040Y2785D01*
X5935Y2776D01*
X5858Y2827D01*
X5769Y2845D01*
X5693Y2829D01*
X5656Y2844D01*
X5593Y2889D01*
Y3807D01*
X5985Y4199D01*
X6000Y4195D01*
X6090Y4213D01*
X6166Y4264D01*
X6217Y4340D01*
X6235Y4430D01*
X6217Y4520D01*
X6166Y4596D01*
X6090Y4647D01*
X6000Y4665D01*
X5910Y4647D01*
X5834Y4596D01*
X5783Y4520D01*
X5765Y4430D01*
X5769Y4415D01*
X5362Y4008D01*
X5332Y3988D01*
X5299Y3939D01*
X5287Y3880D01*
Y1684D01*
X5274Y1676D01*
X5223Y1600D01*
X5205Y1510D01*
X5223Y1420D01*
X5274Y1344D01*
X5350Y1293D01*
X5440Y1275D01*
X5504Y1288D01*
X5510Y1287D01*
X8636D01*
X8644Y1274D01*
X8720Y1223D01*
X8810Y1205D01*
X8900Y1223D01*
X8976Y1274D01*
X8977Y1277D01*
X9106Y1289D01*
X9483Y913D01*
X9483Y913D01*
X9527Y883D01*
X9580Y872D01*
X9580Y872D01*
X10786D01*
Y108D01*
X11616D01*
Y872D01*
X13384D01*
Y108D01*
X14214D01*
Y872D01*
X18670D01*
X18723Y883D01*
X18767Y913D01*
X18787Y932D01*
X18820Y925D01*
X18910Y943D01*
X18986Y994D01*
X19037Y1070D01*
X19055Y1160D01*
X19037Y1250D01*
X18986Y1326D01*
X18936Y1359D01*
X18930Y1380D01*
Y1450D01*
X18936Y1471D01*
X18986Y1504D01*
X19037Y1580D01*
X19055Y1670D01*
X19037Y1760D01*
X18986Y1836D01*
X18910Y1887D01*
X18820Y1905D01*
X18730Y1887D01*
X18654Y1836D01*
X18603Y1760D01*
X18585Y1670D01*
X18592Y1637D01*
X18273Y1318D01*
X17880D01*
X17855Y1358D01*
X17842Y1418D01*
X19697Y3272D01*
X19730Y3265D01*
X19820Y3283D01*
X19896Y3334D01*
X19947Y3410D01*
X19965Y3500D01*
X19947Y3590D01*
X19896Y3666D01*
X19820Y3717D01*
X19730Y3735D01*
X19640Y3717D01*
X19564Y3666D01*
X19513Y3590D01*
X19495Y3500D01*
X19502Y3467D01*
X17673Y1638D01*
X17313D01*
X17275Y1730D01*
X19337Y3792D01*
X19370Y3785D01*
X19460Y3803D01*
X19536Y3854D01*
X19587Y3930D01*
X19605Y4020D01*
X19587Y4110D01*
X19536Y4186D01*
X19460Y4237D01*
X19370Y4255D01*
X19280Y4237D01*
X19204Y4186D01*
X19153Y4110D01*
X19135Y4020D01*
X19142Y3987D01*
X16963Y1808D01*
X15293D01*
X15255Y1900D01*
X16247Y2892D01*
X16280Y2885D01*
X16370Y2903D01*
X16446Y2954D01*
X16497Y3030D01*
X16515Y3120D01*
X16497Y3210D01*
X16446Y3286D01*
X16370Y3337D01*
X16280Y3355D01*
X16190Y3337D01*
X16114Y3286D01*
X16063Y3210D01*
X16045Y3120D01*
X16052Y3087D01*
X14913Y1948D01*
X12717D01*
X12547Y2117D01*
X12503Y2147D01*
X12450Y2158D01*
X10305D01*
X10286Y2186D01*
X10210Y2237D01*
X10120Y2255D01*
X10030Y2237D01*
X9954Y2186D01*
X9903Y2110D01*
X9885Y2020D01*
X9903Y1930D01*
X9954Y1854D01*
X10030Y1803D01*
X10120Y1785D01*
X10132Y1773D01*
X10125Y1740D01*
X10143Y1650D01*
X10194Y1574D01*
X10270Y1523D01*
X10360Y1505D01*
X10367Y1507D01*
X10435Y1500D01*
X10452Y1418D01*
X10451Y1407D01*
X10395Y1318D01*
X9717D01*
X8268Y2767D01*
Y4180D01*
X8257Y4233D01*
X8227Y4277D01*
X8227Y4277D01*
X8028Y4477D01*
X8035Y4510D01*
X8017Y4600D01*
X7966Y4676D01*
X7890Y4727D01*
X7800Y4745D01*
D02*
G37*
G36*
X22947Y11450D02*
X22500D01*
X22053D01*
X22062Y11383D01*
X22107Y11273D01*
X22179Y11179D01*
X22273Y11107D01*
X22383Y11062D01*
X22435Y11055D01*
X22467Y11050D01*
Y10950D01*
X22435Y10945D01*
X22383Y10938D01*
X22273Y10893D01*
X22179Y10821D01*
X22107Y10727D01*
X22062Y10617D01*
X22046Y10500D01*
X22062Y10383D01*
X22107Y10273D01*
X22179Y10179D01*
X22273Y10107D01*
X22383Y10062D01*
X22435Y10055D01*
X22467Y10050D01*
Y9950D01*
X22435Y9945D01*
X22383Y9938D01*
X22273Y9893D01*
X22179Y9821D01*
X22107Y9727D01*
X22062Y9617D01*
X22046Y9500D01*
X22062Y9383D01*
X22107Y9273D01*
X22179Y9179D01*
X22273Y9107D01*
X22383Y9062D01*
X22435Y9055D01*
X22467Y9050D01*
Y8950D01*
X22435Y8945D01*
X22383Y8938D01*
X22273Y8893D01*
X22179Y8821D01*
X22107Y8727D01*
X22062Y8617D01*
X22046Y8500D01*
X22062Y8383D01*
X22107Y8273D01*
X22179Y8179D01*
X22273Y8107D01*
X22383Y8062D01*
X22435Y8055D01*
X22467Y8050D01*
Y7950D01*
X22435Y7945D01*
X22383Y7938D01*
X22273Y7893D01*
X22179Y7821D01*
X22107Y7727D01*
X22062Y7617D01*
X22046Y7500D01*
X22062Y7383D01*
X22107Y7273D01*
X22179Y7179D01*
X22273Y7107D01*
X22383Y7062D01*
X22435Y7055D01*
X22467Y7050D01*
Y6950D01*
X22435Y6945D01*
X22383Y6938D01*
X22273Y6893D01*
X22179Y6821D01*
X22107Y6727D01*
X22062Y6617D01*
X22046Y6500D01*
X22062Y6383D01*
X22107Y6273D01*
X22179Y6179D01*
X22273Y6107D01*
X22383Y6062D01*
X22435Y6055D01*
X22467Y6050D01*
Y5950D01*
X22435Y5945D01*
X22383Y5938D01*
X22273Y5893D01*
X22179Y5821D01*
X22107Y5727D01*
X22062Y5617D01*
X22046Y5500D01*
X22062Y5383D01*
X22107Y5273D01*
X22179Y5179D01*
X22273Y5107D01*
X22383Y5062D01*
X22435Y5055D01*
X22467Y5050D01*
Y4950D01*
X22435Y4945D01*
X22383Y4938D01*
X22273Y4893D01*
X22179Y4821D01*
X22107Y4727D01*
X22062Y4617D01*
X22046Y4500D01*
X22062Y4383D01*
X22107Y4273D01*
X22179Y4179D01*
X22273Y4107D01*
X22383Y4062D01*
X22435Y4055D01*
X22467Y4050D01*
Y3950D01*
X22435Y3945D01*
X22383Y3938D01*
X22273Y3893D01*
X22179Y3821D01*
X22107Y3727D01*
X22062Y3617D01*
X22046Y3500D01*
X22062Y3383D01*
X22107Y3273D01*
X22179Y3179D01*
X22273Y3107D01*
X22383Y3062D01*
X22435Y3055D01*
X22467Y3050D01*
Y2950D01*
X22435Y2945D01*
X22383Y2938D01*
X22273Y2893D01*
X22179Y2821D01*
X22107Y2727D01*
X22062Y2617D01*
X22046Y2500D01*
X22062Y2383D01*
X22107Y2273D01*
X22179Y2179D01*
X22273Y2107D01*
X22383Y2062D01*
X22435Y2055D01*
X22467Y2050D01*
Y1950D01*
X22435Y1945D01*
X22383Y1938D01*
X22273Y1893D01*
X22179Y1821D01*
X22107Y1727D01*
X22062Y1617D01*
X22046Y1500D01*
X22062Y1383D01*
X22107Y1273D01*
X22179Y1179D01*
X22273Y1107D01*
X22383Y1062D01*
X22500Y1046D01*
X22617Y1062D01*
X22727Y1107D01*
X22821Y1179D01*
X22893Y1273D01*
X22938Y1383D01*
X22954Y1500D01*
X22938Y1617D01*
X22893Y1727D01*
X22821Y1821D01*
X22727Y1893D01*
X22617Y1938D01*
X22565Y1945D01*
X22533Y1950D01*
Y2050D01*
X22565Y2055D01*
X22617Y2062D01*
X22727Y2107D01*
X22821Y2179D01*
X22893Y2273D01*
X22938Y2383D01*
X22954Y2500D01*
X22938Y2617D01*
X22893Y2727D01*
X22821Y2821D01*
X22727Y2893D01*
X22617Y2938D01*
X22565Y2945D01*
X22533Y2950D01*
Y3050D01*
X22565Y3055D01*
X22617Y3062D01*
X22727Y3107D01*
X22821Y3179D01*
X22893Y3273D01*
X22938Y3383D01*
X22954Y3500D01*
X22938Y3617D01*
X22893Y3727D01*
X22821Y3821D01*
X22727Y3893D01*
X22617Y3938D01*
X22565Y3945D01*
X22533Y3950D01*
Y4050D01*
X22565Y4055D01*
X22617Y4062D01*
X22727Y4107D01*
X22821Y4179D01*
X22893Y4273D01*
X22938Y4383D01*
X22954Y4500D01*
X22938Y4617D01*
X22893Y4727D01*
X22821Y4821D01*
X22727Y4893D01*
X22617Y4938D01*
X22565Y4945D01*
X22533Y4950D01*
Y5050D01*
X22565Y5055D01*
X22617Y5062D01*
X22727Y5107D01*
X22821Y5179D01*
X22893Y5273D01*
X22938Y5383D01*
X22954Y5500D01*
X22938Y5617D01*
X22893Y5727D01*
X22821Y5821D01*
X22727Y5893D01*
X22617Y5938D01*
X22565Y5945D01*
X22533Y5950D01*
Y6050D01*
X22565Y6055D01*
X22617Y6062D01*
X22727Y6107D01*
X22821Y6179D01*
X22893Y6273D01*
X22938Y6383D01*
X22954Y6500D01*
X22938Y6617D01*
X22893Y6727D01*
X22821Y6821D01*
X22727Y6893D01*
X22617Y6938D01*
X22565Y6945D01*
X22533Y6950D01*
Y7050D01*
X22565Y7055D01*
X22617Y7062D01*
X22727Y7107D01*
X22821Y7179D01*
X22893Y7273D01*
X22938Y7383D01*
X22954Y7500D01*
X22938Y7617D01*
X22893Y7727D01*
X22821Y7821D01*
X22727Y7893D01*
X22617Y7938D01*
X22565Y7945D01*
X22533Y7950D01*
Y8050D01*
X22565Y8055D01*
X22617Y8062D01*
X22727Y8107D01*
X22821Y8179D01*
X22893Y8273D01*
X22938Y8383D01*
X22954Y8500D01*
X22938Y8617D01*
X22893Y8727D01*
X22821Y8821D01*
X22727Y8893D01*
X22617Y8938D01*
X22565Y8945D01*
X22533Y8950D01*
Y9050D01*
X22565Y9055D01*
X22617Y9062D01*
X22727Y9107D01*
X22821Y9179D01*
X22893Y9273D01*
X22938Y9383D01*
X22954Y9500D01*
X22938Y9617D01*
X22893Y9727D01*
X22821Y9821D01*
X22727Y9893D01*
X22617Y9938D01*
X22565Y9945D01*
X22533Y9950D01*
Y10050D01*
X22565Y10055D01*
X22617Y10062D01*
X22727Y10107D01*
X22821Y10179D01*
X22893Y10273D01*
X22938Y10383D01*
X22954Y10500D01*
X22938Y10617D01*
X22893Y10727D01*
X22821Y10821D01*
X22727Y10893D01*
X22617Y10938D01*
X22565Y10945D01*
X22533Y10950D01*
Y11050D01*
X22565Y11055D01*
X22617Y11062D01*
X22727Y11107D01*
X22821Y11179D01*
X22893Y11273D01*
X22938Y11383D01*
X22947Y11450D01*
D02*
G37*
%LPD*%
D10*
X20170Y10690D02*
Y11170D01*
Y7900D02*
Y10690D01*
X5510Y1440D02*
X8810D01*
X5440Y1510D02*
X5510Y1440D01*
X5450Y3880D02*
X6000Y4430D01*
X5440Y3880D02*
X5450D01*
X5440Y1510D02*
Y3880D01*
D12*
X10230Y14610D02*
X19740D01*
X13810Y11400D02*
Y11506D01*
X20170Y11170D02*
X20190Y11190D01*
X15970Y10510D02*
X17650Y8830D01*
X14590Y10510D02*
X15970D01*
X12210Y12020D02*
X12800D01*
X13190Y11630D01*
X13450D01*
X12510Y12940D02*
X13805Y11645D01*
Y11511D02*
Y11645D01*
Y11511D02*
X13810Y11506D01*
X12510Y12940D02*
Y14230D01*
X14140Y13690D02*
X14480Y14030D01*
X14600D01*
X14130Y13210D02*
X14770Y13850D01*
X23560D01*
X24130Y13280D01*
X14600Y14030D02*
X24730Y14030D01*
X14130Y14170D02*
X20310Y14170D01*
X20610Y14470D01*
X24770D01*
X19740Y14610D02*
X19870Y14480D01*
X8160Y12540D02*
X10230Y14610D01*
X19230Y12380D02*
X20230Y13380D01*
X19230Y7760D02*
Y12380D01*
X19490Y9350D02*
X19790Y9650D01*
X19490Y8460D02*
Y9350D01*
X19900Y9160D02*
X19920Y9140D01*
Y8630D02*
Y9140D01*
X6760Y6170D02*
X7270Y6680D01*
X3910Y6170D02*
X6760D01*
X3470Y6610D02*
X3910Y6170D01*
X3470Y6610D02*
Y8010D01*
X2120Y7940D02*
X2880D01*
X2100Y7960D02*
X2120Y7940D01*
X8160Y11880D02*
Y12540D01*
X14580Y3860D02*
Y5244D01*
X14946Y5610D01*
X14870Y4290D02*
Y4830D01*
X14865Y4835D02*
X14870Y4830D01*
X5900Y6880D02*
X6340Y6440D01*
X5900Y6880D02*
Y8170D01*
X6880Y9150D01*
X17730Y1500D02*
X19730Y3500D01*
X10670Y1500D02*
X17730D01*
X17020Y1670D02*
X19370Y4020D01*
X12602Y1670D02*
X17020D01*
X14970Y1810D02*
X16280Y3120D01*
X12532Y1740D02*
X12602Y1670D01*
X10360Y1740D02*
X12532D01*
X12660Y1810D02*
X14970D01*
X12450Y2020D02*
X12660Y1810D01*
X10120Y2020D02*
X12450D01*
X18330Y1180D02*
X18820Y1670D01*
X9660Y1180D02*
X18330D01*
X8130Y2710D02*
X9660Y1180D01*
X18670Y1010D02*
X18820Y1160D01*
X9580Y1010D02*
X18670D01*
X7540Y3050D02*
X9580Y1010D01*
X7540Y3050D02*
Y4000D01*
X8130Y2710D02*
Y4180D01*
X7800Y4510D02*
X8130Y4180D01*
X6060Y2610D02*
X7070Y3620D01*
X5769Y2610D02*
X6060D01*
X9810Y5000D02*
X10720D01*
X13330Y6940D02*
X15300D01*
X13310Y6960D02*
X13330Y6940D01*
X18890Y7420D02*
X19230Y7760D01*
X12980Y6430D02*
X17370D01*
X17840Y6900D01*
X13280Y5900D02*
X16340D01*
X15110Y5420D02*
X16028D01*
X14865Y5175D02*
X15110Y5420D01*
X16028D02*
X16243Y5635D01*
X17605D02*
X17840Y5870D01*
X16243Y5635D02*
X17605D01*
X15536Y4504D02*
Y5070D01*
X14865Y4835D02*
Y5175D01*
X17870Y6400D02*
X18120Y6150D01*
Y4710D02*
Y6150D01*
X17470Y4060D02*
X18120Y4710D01*
X15600Y4060D02*
X17470D01*
X15100Y4560D02*
X15600Y4060D01*
X15100Y4560D02*
Y5050D01*
X15536Y4504D02*
X15800Y4240D01*
X17440D01*
X16000Y5060D02*
X16340Y5400D01*
X17440Y4240D02*
X17730Y4530D01*
Y5250D01*
X17880Y5400D01*
X16000Y4550D02*
Y5060D01*
X17860Y7420D02*
X18890D01*
X3800Y10830D02*
X5620D01*
X3250Y10280D02*
X3800Y10830D01*
D77*
X20280Y14640D02*
X20330D01*
X20120Y14800D02*
X20280Y14640D01*
X4170Y14800D02*
X20120D01*
X2390Y13020D02*
X4170Y14800D01*
X4249Y2780D02*
X4760Y3291D01*
X2660Y2780D02*
X5020Y420D01*
X1690Y3750D02*
X2660Y2780D01*
X4249D01*
X5020Y420D02*
X5600D01*
X1690Y3750D02*
Y13020D01*
X2390D01*
D78*
X3170Y9780D02*
X3370Y9980D01*
X3170Y6660D02*
Y9780D01*
X3550Y10160D02*
X3730Y10340D01*
X3534Y10160D02*
X3550D01*
X3370Y9996D02*
X3534Y10160D01*
X3370Y9980D02*
Y9996D01*
X3170Y4420D02*
Y6540D01*
D79*
X770Y4920D02*
D03*
Y3920D02*
D03*
X17650Y8830D02*
D03*
X18650D02*
D03*
X22500Y11500D02*
D03*
Y10500D02*
D03*
Y9500D02*
D03*
Y8500D02*
D03*
Y7500D02*
D03*
Y6500D02*
D03*
Y5500D02*
D03*
Y4500D02*
D03*
Y3500D02*
D03*
Y2500D02*
D03*
Y1500D02*
D03*
D80*
Y12500D02*
D03*
D81*
X11201Y523D02*
D03*
X13799D02*
D03*
D82*
X420Y12300D02*
D03*
X640Y9040D02*
D03*
D83*
X11670Y14170D02*
D03*
X13810Y11400D02*
D03*
X20190Y11190D02*
D03*
X14590Y10510D02*
D03*
X14400Y12550D02*
D03*
X13450Y11630D02*
D03*
X12510Y14230D02*
D03*
X14130Y13210D02*
D03*
X14140Y13690D02*
D03*
X14130Y14170D02*
D03*
X20330Y14640D02*
D03*
X19870Y14480D02*
D03*
X24770Y14470D02*
D03*
X24730Y14030D02*
D03*
X20230Y13380D02*
D03*
X24130Y13280D02*
D03*
X6300Y14310D02*
D03*
X19790Y9650D02*
D03*
X19920Y8630D02*
D03*
X19900Y9160D02*
D03*
X20170Y7900D02*
D03*
X19490Y8460D02*
D03*
X7270Y6680D02*
D03*
X3470Y8010D02*
D03*
X2880Y7940D02*
D03*
X3880Y8010D02*
D03*
X17460Y3460D02*
D03*
X362Y10682D02*
D03*
X11610Y12900D02*
D03*
X8160Y11880D02*
D03*
X14580Y3860D02*
D03*
X14946Y5610D02*
D03*
X14870Y4290D02*
D03*
X6880Y9150D02*
D03*
X12210Y12020D02*
D03*
X7570Y10330D02*
D03*
X6380Y7710D02*
D03*
X4760Y3291D02*
D03*
X5600Y420D02*
D03*
X1690Y13020D02*
D03*
X19730Y3500D02*
D03*
X19370Y4020D02*
D03*
X10120Y2020D02*
D03*
X10360Y1740D02*
D03*
X10670Y1500D02*
D03*
X18820Y1160D02*
D03*
Y1670D02*
D03*
X14980Y2240D02*
D03*
X7070Y3620D02*
D03*
X5769Y2610D02*
D03*
X7540Y4000D02*
D03*
X8810Y1440D02*
D03*
X9400Y2220D02*
D03*
X16280Y3120D02*
D03*
X9852Y3758D02*
D03*
X10409Y3669D02*
D03*
X6000Y4430D02*
D03*
X5440Y1510D02*
D03*
X6160Y840D02*
D03*
X6332Y3440D02*
D03*
X3840Y5520D02*
D03*
X2280Y3950D02*
D03*
X12580Y11700D02*
D03*
X9810Y5000D02*
D03*
X10720D02*
D03*
X15300Y6940D02*
D03*
X13310Y6960D02*
D03*
X13280Y5900D02*
D03*
X12980Y6430D02*
D03*
X17840Y6900D02*
D03*
X15536Y5070D02*
D03*
X15100Y5050D02*
D03*
X16000Y4550D02*
D03*
X17880Y5400D02*
D03*
X17870Y6400D02*
D03*
X17840Y5870D02*
D03*
X15120Y9770D02*
D03*
X16340Y5400D02*
D03*
Y5900D02*
D03*
X17860Y7420D02*
D03*
X7800Y4510D02*
D03*
X5620Y10830D02*
D03*
X3170Y4420D02*
D03*
X14270Y2830D02*
D03*
X8470Y2810D02*
D03*
X13012Y2062D02*
D03*
X10450Y12020D02*
D03*
X4800Y6550D02*
D03*
X5784Y12836D02*
D03*
X5744Y13786D02*
D03*
X12930Y2720D02*
D03*
X16220Y8570D02*
D03*
X19980Y6850D02*
D03*
X6340Y6440D02*
D03*
X6290Y4780D02*
D03*
X2100Y7960D02*
D03*
X3170Y6540D02*
D03*
X3240Y11720D02*
D03*
X2200Y9395D02*
D03*
X2176Y8606D02*
D03*
X3650Y9880D02*
D03*
X3730Y10340D02*
D03*
X3250Y10280D02*
D03*
M02*
