G04*
G04 #@! TF.GenerationSoftware,Altium Limited,Altium Designer,18.1.9 (240)*
G04*
G04 Layer_Color=8388736*
%FSLAX24Y24*%
%MOIN*%
G70*
G01*
G75*
%ADD10C,0.0100*%
%ADD12C,0.0070*%
%ADD18C,0.0150*%
%ADD89C,0.0090*%
D10*
X-21672Y-1643D02*
Y-1143D01*
X-21505Y-1310D01*
X-21339Y-1143D01*
Y-1643D01*
X-20922D02*
X-21089D01*
X-21172Y-1560D01*
Y-1393D01*
X-21089Y-1310D01*
X-20922D01*
X-20839Y-1393D01*
Y-1476D01*
X-21172D01*
X-20339Y-1310D02*
X-20589D01*
X-20672Y-1393D01*
Y-1560D01*
X-20589Y-1643D01*
X-20339D01*
X-20172Y-1143D02*
Y-1643D01*
Y-1393D01*
X-20089Y-1310D01*
X-19922D01*
X-19839Y-1393D01*
Y-1643D01*
X-19589Y-1310D02*
X-19423D01*
X-19339Y-1393D01*
Y-1643D01*
X-19589D01*
X-19673Y-1560D01*
X-19589Y-1476D01*
X-19339D01*
X-19173Y-1643D02*
Y-1310D01*
X-18923D01*
X-18839Y-1393D01*
Y-1643D01*
X-18673D02*
X-18506D01*
X-18590D01*
Y-1310D01*
X-18673D01*
X-17923D02*
X-18173D01*
X-18256Y-1393D01*
Y-1560D01*
X-18173Y-1643D01*
X-17923D01*
X-17673Y-1310D02*
X-17507D01*
X-17423Y-1393D01*
Y-1643D01*
X-17673D01*
X-17756Y-1560D01*
X-17673Y-1476D01*
X-17423D01*
X-17257Y-1643D02*
X-17090D01*
X-17173D01*
Y-1143D01*
X-17257D01*
X-16507D02*
X-16674Y-1226D01*
X-16840Y-1393D01*
Y-1560D01*
X-16757Y-1643D01*
X-16590D01*
X-16507Y-1560D01*
Y-1476D01*
X-16590Y-1393D01*
X-16840D01*
X-21672Y-462D02*
Y38D01*
X-21505Y-128D01*
X-21339Y38D01*
Y-462D01*
X-20922D02*
X-21089D01*
X-21172Y-378D01*
Y-212D01*
X-21089Y-128D01*
X-20922D01*
X-20839Y-212D01*
Y-295D01*
X-21172D01*
X-20339Y-128D02*
X-20589D01*
X-20672Y-212D01*
Y-378D01*
X-20589Y-462D01*
X-20339D01*
X-20172Y38D02*
Y-462D01*
Y-212D01*
X-20089Y-128D01*
X-19922D01*
X-19839Y-212D01*
Y-462D01*
X-19589Y-128D02*
X-19423D01*
X-19339Y-212D01*
Y-462D01*
X-19589D01*
X-19673Y-378D01*
X-19589Y-295D01*
X-19339D01*
X-19173Y-462D02*
Y-128D01*
X-18923D01*
X-18839Y-212D01*
Y-462D01*
X-18673D02*
X-18506D01*
X-18590D01*
Y-128D01*
X-18673D01*
X-17923D02*
X-18173D01*
X-18256Y-212D01*
Y-378D01*
X-18173Y-462D01*
X-17923D01*
X-17673Y-128D02*
X-17507D01*
X-17423Y-212D01*
Y-462D01*
X-17673D01*
X-17756Y-378D01*
X-17673Y-295D01*
X-17423D01*
X-17257Y-462D02*
X-17090D01*
X-17173D01*
Y38D01*
X-17257D01*
X-16507D02*
X-16840D01*
Y-212D01*
X-16674Y-128D01*
X-16590D01*
X-16507Y-212D01*
Y-378D01*
X-16590Y-462D01*
X-16757D01*
X-16840Y-378D01*
X-21672Y16124D02*
Y16624D01*
X-21505Y16457D01*
X-21339Y16624D01*
Y16124D01*
X-21172D02*
X-21005D01*
X-21089D01*
Y16457D01*
X-21172D01*
X-20422Y16624D02*
Y16124D01*
X-20672D01*
X-20756Y16207D01*
Y16374D01*
X-20672Y16457D01*
X-20422D01*
X-20256Y16124D02*
X-20089D01*
X-20172D01*
Y16624D01*
X-20256D01*
X-19756Y16457D02*
X-19589D01*
X-19506Y16374D01*
Y16124D01*
X-19756D01*
X-19839Y16207D01*
X-19756Y16290D01*
X-19506D01*
X-19339Y16457D02*
Y16207D01*
X-19256Y16124D01*
X-19006D01*
Y16040D01*
X-19089Y15957D01*
X-19173D01*
X-19006Y16124D02*
Y16457D01*
X-18590Y16124D02*
X-18756D01*
X-18839Y16207D01*
Y16374D01*
X-18756Y16457D01*
X-18590D01*
X-18506Y16374D01*
Y16290D01*
X-18839D01*
X-18340Y16457D02*
Y16124D01*
Y16290D01*
X-18256Y16374D01*
X-18173Y16457D01*
X-18090D01*
X-17840Y16540D02*
X-17756Y16624D01*
X-17590D01*
X-17507Y16540D01*
Y16457D01*
X-17590Y16374D01*
X-17673D01*
X-17590D01*
X-17507Y16290D01*
Y16207D01*
X-17590Y16124D01*
X-17756D01*
X-17840Y16207D01*
X-21672Y14943D02*
Y15443D01*
X-21505Y15276D01*
X-21339Y15443D01*
Y14943D01*
X-21172D02*
X-21005D01*
X-21089D01*
Y15276D01*
X-21172D01*
X-20422Y15443D02*
Y14943D01*
X-20672D01*
X-20756Y15026D01*
Y15193D01*
X-20672Y15276D01*
X-20422D01*
X-20256Y15443D02*
Y14943D01*
X-19922D01*
X-19673Y15276D02*
X-19506D01*
X-19423Y15193D01*
Y14943D01*
X-19673D01*
X-19756Y15026D01*
X-19673Y15109D01*
X-19423D01*
X-19256Y15276D02*
Y15026D01*
X-19173Y14943D01*
X-18923D01*
Y14859D01*
X-19006Y14776D01*
X-19089D01*
X-18923Y14943D02*
Y15276D01*
X-18506Y14943D02*
X-18673D01*
X-18756Y15026D01*
Y15193D01*
X-18673Y15276D01*
X-18506D01*
X-18423Y15193D01*
Y15109D01*
X-18756D01*
X-18256Y15276D02*
Y14943D01*
Y15109D01*
X-18173Y15193D01*
X-18090Y15276D01*
X-18006D01*
X-17507Y14943D02*
Y15443D01*
X-17756Y15193D01*
X-17423D01*
X-21672Y18486D02*
Y18986D01*
X-21505Y18819D01*
X-21339Y18986D01*
Y18486D01*
X-21172D02*
X-21005D01*
X-21089D01*
Y18819D01*
X-21172D01*
X-20422Y18986D02*
Y18486D01*
X-20672D01*
X-20756Y18569D01*
Y18736D01*
X-20672Y18819D01*
X-20422D01*
X-20256Y18986D02*
Y18486D01*
X-19922D01*
X-19673Y18819D02*
X-19506D01*
X-19423Y18736D01*
Y18486D01*
X-19673D01*
X-19756Y18569D01*
X-19673Y18653D01*
X-19423D01*
X-19256Y18819D02*
Y18569D01*
X-19173Y18486D01*
X-18923D01*
Y18403D01*
X-19006Y18319D01*
X-19089D01*
X-18923Y18486D02*
Y18819D01*
X-18506Y18486D02*
X-18673D01*
X-18756Y18569D01*
Y18736D01*
X-18673Y18819D01*
X-18506D01*
X-18423Y18736D01*
Y18653D01*
X-18756D01*
X-18256Y18819D02*
Y18486D01*
Y18653D01*
X-18173Y18736D01*
X-18090Y18819D01*
X-18006D01*
X-17756Y18486D02*
X-17590D01*
X-17673D01*
Y18986D01*
X-17756Y18903D01*
X-21672Y17305D02*
Y17805D01*
X-21505Y17638D01*
X-21339Y17805D01*
Y17305D01*
X-21172D02*
X-21005D01*
X-21089D01*
Y17638D01*
X-21172D01*
X-20422Y17805D02*
Y17305D01*
X-20672D01*
X-20756Y17388D01*
Y17555D01*
X-20672Y17638D01*
X-20422D01*
X-20256Y17805D02*
Y17305D01*
X-19922D01*
X-19673Y17638D02*
X-19506D01*
X-19423Y17555D01*
Y17305D01*
X-19673D01*
X-19756Y17388D01*
X-19673Y17471D01*
X-19423D01*
X-19256Y17638D02*
Y17388D01*
X-19173Y17305D01*
X-18923D01*
Y17222D01*
X-19006Y17138D01*
X-19089D01*
X-18923Y17305D02*
Y17638D01*
X-18506Y17305D02*
X-18673D01*
X-18756Y17388D01*
Y17555D01*
X-18673Y17638D01*
X-18506D01*
X-18423Y17555D01*
Y17471D01*
X-18756D01*
X-18256Y17638D02*
Y17305D01*
Y17471D01*
X-18173Y17555D01*
X-18090Y17638D01*
X-18006D01*
X-17423Y17305D02*
X-17756D01*
X-17423Y17638D01*
Y17721D01*
X-17507Y17805D01*
X-17673D01*
X-17756Y17721D01*
X-21672Y20167D02*
X-21339D01*
X-21505D01*
Y19667D01*
X-21089D02*
X-20922D01*
X-20839Y19750D01*
Y19917D01*
X-20922Y20000D01*
X-21089D01*
X-21172Y19917D01*
Y19750D01*
X-21089Y19667D01*
X-20672Y19500D02*
Y20000D01*
X-20422D01*
X-20339Y19917D01*
Y19750D01*
X-20422Y19667D01*
X-20672D01*
X-19673Y20167D02*
Y19667D01*
X-19339D01*
X-19089Y20000D02*
X-18923D01*
X-18839Y19917D01*
Y19667D01*
X-19089D01*
X-19173Y19750D01*
X-19089Y19834D01*
X-18839D01*
X-18673Y20000D02*
Y19750D01*
X-18590Y19667D01*
X-18340D01*
Y19584D01*
X-18423Y19500D01*
X-18506D01*
X-18340Y19667D02*
Y20000D01*
X-17923Y19667D02*
X-18090D01*
X-18173Y19750D01*
Y19917D01*
X-18090Y20000D01*
X-17923D01*
X-17840Y19917D01*
Y19834D01*
X-18173D01*
X-17673Y20000D02*
Y19667D01*
Y19834D01*
X-17590Y19917D01*
X-17507Y20000D01*
X-17423D01*
X-21672Y14261D02*
Y13762D01*
X-21422D01*
X-21339Y13845D01*
Y13928D01*
X-21422Y14011D01*
X-21672D01*
X-21422D01*
X-21339Y14095D01*
Y14178D01*
X-21422Y14261D01*
X-21672D01*
X-21089Y13762D02*
X-20922D01*
X-20839Y13845D01*
Y14011D01*
X-20922Y14095D01*
X-21089D01*
X-21172Y14011D01*
Y13845D01*
X-21089Y13762D01*
X-20589Y14178D02*
Y14095D01*
X-20672D01*
X-20506D01*
X-20589D01*
Y13845D01*
X-20506Y13762D01*
X-20172Y14178D02*
Y14095D01*
X-20256D01*
X-20089D01*
X-20172D01*
Y13845D01*
X-20089Y13762D01*
X-19756D02*
X-19589D01*
X-19506Y13845D01*
Y14011D01*
X-19589Y14095D01*
X-19756D01*
X-19839Y14011D01*
Y13845D01*
X-19756Y13762D01*
X-19339D02*
Y14095D01*
X-19256D01*
X-19173Y14011D01*
Y13762D01*
Y14011D01*
X-19089Y14095D01*
X-19006Y14011D01*
Y13762D01*
X-18340Y14261D02*
Y13762D01*
X-18006D01*
X-17756Y14095D02*
X-17590D01*
X-17507Y14011D01*
Y13762D01*
X-17756D01*
X-17840Y13845D01*
X-17756Y13928D01*
X-17507D01*
X-17340Y14095D02*
Y13845D01*
X-17257Y13762D01*
X-17007D01*
Y13678D01*
X-17090Y13595D01*
X-17173D01*
X-17007Y13762D02*
Y14095D01*
X-16590Y13762D02*
X-16757D01*
X-16840Y13845D01*
Y14011D01*
X-16757Y14095D01*
X-16590D01*
X-16507Y14011D01*
Y13928D01*
X-16840D01*
X-16340Y14095D02*
Y13762D01*
Y13928D01*
X-16257Y14011D01*
X-16174Y14095D01*
X-16090D01*
X-21672Y3089D02*
Y3589D01*
X-21505Y3423D01*
X-21339Y3589D01*
Y3089D01*
X-20922D02*
X-21089D01*
X-21172Y3173D01*
Y3339D01*
X-21089Y3423D01*
X-20922D01*
X-20839Y3339D01*
Y3256D01*
X-21172D01*
X-20339Y3423D02*
X-20589D01*
X-20672Y3339D01*
Y3173D01*
X-20589Y3089D01*
X-20339D01*
X-20172Y3589D02*
Y3089D01*
Y3339D01*
X-20089Y3423D01*
X-19922D01*
X-19839Y3339D01*
Y3089D01*
X-19589Y3423D02*
X-19423D01*
X-19339Y3339D01*
Y3089D01*
X-19589D01*
X-19673Y3173D01*
X-19589Y3256D01*
X-19339D01*
X-19173Y3089D02*
Y3423D01*
X-18923D01*
X-18839Y3339D01*
Y3089D01*
X-18673D02*
X-18506D01*
X-18590D01*
Y3423D01*
X-18673D01*
X-17923D02*
X-18173D01*
X-18256Y3339D01*
Y3173D01*
X-18173Y3089D01*
X-17923D01*
X-17673Y3423D02*
X-17507D01*
X-17423Y3339D01*
Y3089D01*
X-17673D01*
X-17756Y3173D01*
X-17673Y3256D01*
X-17423D01*
X-17257Y3089D02*
X-17090D01*
X-17173D01*
Y3589D01*
X-17257D01*
X-16507Y3089D02*
X-16840D01*
X-16507Y3423D01*
Y3506D01*
X-16590Y3589D01*
X-16757D01*
X-16840Y3506D01*
X-21672Y4270D02*
Y4770D01*
X-21505Y4604D01*
X-21339Y4770D01*
Y4270D01*
X-20922D02*
X-21089D01*
X-21172Y4354D01*
Y4520D01*
X-21089Y4604D01*
X-20922D01*
X-20839Y4520D01*
Y4437D01*
X-21172D01*
X-20339Y4604D02*
X-20589D01*
X-20672Y4520D01*
Y4354D01*
X-20589Y4270D01*
X-20339D01*
X-20172Y4770D02*
Y4270D01*
Y4520D01*
X-20089Y4604D01*
X-19922D01*
X-19839Y4520D01*
Y4270D01*
X-19589Y4604D02*
X-19423D01*
X-19339Y4520D01*
Y4270D01*
X-19589D01*
X-19673Y4354D01*
X-19589Y4437D01*
X-19339D01*
X-19173Y4270D02*
Y4604D01*
X-18923D01*
X-18839Y4520D01*
Y4270D01*
X-18673D02*
X-18506D01*
X-18590D01*
Y4604D01*
X-18673D01*
X-17923D02*
X-18173D01*
X-18256Y4520D01*
Y4354D01*
X-18173Y4270D01*
X-17923D01*
X-17673Y4604D02*
X-17507D01*
X-17423Y4520D01*
Y4270D01*
X-17673D01*
X-17756Y4354D01*
X-17673Y4437D01*
X-17423D01*
X-17257Y4270D02*
X-17090D01*
X-17173D01*
Y4770D01*
X-17257D01*
X-16840Y4270D02*
X-16674D01*
X-16757D01*
Y4770D01*
X-16840Y4687D01*
X-21672Y1908D02*
Y2408D01*
X-21505Y2241D01*
X-21339Y2408D01*
Y1908D01*
X-20922D02*
X-21089D01*
X-21172Y1992D01*
Y2158D01*
X-21089Y2241D01*
X-20922D01*
X-20839Y2158D01*
Y2075D01*
X-21172D01*
X-20339Y2241D02*
X-20589D01*
X-20672Y2158D01*
Y1992D01*
X-20589Y1908D01*
X-20339D01*
X-20172Y2408D02*
Y1908D01*
Y2158D01*
X-20089Y2241D01*
X-19922D01*
X-19839Y2158D01*
Y1908D01*
X-19589Y2241D02*
X-19423D01*
X-19339Y2158D01*
Y1908D01*
X-19589D01*
X-19673Y1992D01*
X-19589Y2075D01*
X-19339D01*
X-19173Y1908D02*
Y2241D01*
X-18923D01*
X-18839Y2158D01*
Y1908D01*
X-18673D02*
X-18506D01*
X-18590D01*
Y2241D01*
X-18673D01*
X-17923D02*
X-18173D01*
X-18256Y2158D01*
Y1992D01*
X-18173Y1908D01*
X-17923D01*
X-17673Y2241D02*
X-17507D01*
X-17423Y2158D01*
Y1908D01*
X-17673D01*
X-17756Y1992D01*
X-17673Y2075D01*
X-17423D01*
X-17257Y1908D02*
X-17090D01*
X-17173D01*
Y2408D01*
X-17257D01*
X-16840Y2325D02*
X-16757Y2408D01*
X-16590D01*
X-16507Y2325D01*
Y2241D01*
X-16590Y2158D01*
X-16674D01*
X-16590D01*
X-16507Y2075D01*
Y1992D01*
X-16590Y1908D01*
X-16757D01*
X-16840Y1992D01*
X-21672Y727D02*
Y1227D01*
X-21505Y1060D01*
X-21339Y1227D01*
Y727D01*
X-20922D02*
X-21089D01*
X-21172Y810D01*
Y977D01*
X-21089Y1060D01*
X-20922D01*
X-20839Y977D01*
Y894D01*
X-21172D01*
X-20339Y1060D02*
X-20589D01*
X-20672Y977D01*
Y810D01*
X-20589Y727D01*
X-20339D01*
X-20172Y1227D02*
Y727D01*
Y977D01*
X-20089Y1060D01*
X-19922D01*
X-19839Y977D01*
Y727D01*
X-19589Y1060D02*
X-19423D01*
X-19339Y977D01*
Y727D01*
X-19589D01*
X-19673Y810D01*
X-19589Y894D01*
X-19339D01*
X-19173Y727D02*
Y1060D01*
X-18923D01*
X-18839Y977D01*
Y727D01*
X-18673D02*
X-18506D01*
X-18590D01*
Y1060D01*
X-18673D01*
X-17923D02*
X-18173D01*
X-18256Y977D01*
Y810D01*
X-18173Y727D01*
X-17923D01*
X-17673Y1060D02*
X-17507D01*
X-17423Y977D01*
Y727D01*
X-17673D01*
X-17756Y810D01*
X-17673Y894D01*
X-17423D01*
X-17257Y727D02*
X-17090D01*
X-17173D01*
Y1227D01*
X-17257D01*
X-16590Y727D02*
Y1227D01*
X-16840Y977D01*
X-16507D01*
X-21672Y11866D02*
X-21339D01*
X-21505D01*
Y11366D01*
X-21089D02*
X-20922D01*
X-20839Y11449D01*
Y11616D01*
X-20922Y11699D01*
X-21089D01*
X-21172Y11616D01*
Y11449D01*
X-21089Y11366D01*
X-20672Y11199D02*
Y11699D01*
X-20422D01*
X-20339Y11616D01*
Y11449D01*
X-20422Y11366D01*
X-20672D01*
X-19423Y11866D02*
X-19589D01*
X-19673Y11783D01*
Y11449D01*
X-19589Y11366D01*
X-19423D01*
X-19339Y11449D01*
Y11783D01*
X-19423Y11866D01*
X-19173Y11699D02*
X-19006Y11366D01*
X-18839Y11699D01*
X-18423Y11366D02*
X-18590D01*
X-18673Y11449D01*
Y11616D01*
X-18590Y11699D01*
X-18423D01*
X-18340Y11616D01*
Y11533D01*
X-18673D01*
X-18173Y11699D02*
Y11366D01*
Y11533D01*
X-18090Y11616D01*
X-18006Y11699D01*
X-17923D01*
X-17673Y11366D02*
X-17507D01*
X-17590D01*
Y11866D01*
X-17673D01*
X-17173Y11699D02*
X-17007D01*
X-16923Y11616D01*
Y11366D01*
X-17173D01*
X-17257Y11449D01*
X-17173Y11533D01*
X-16923D01*
X-16757Y11699D02*
Y11449D01*
X-16674Y11366D01*
X-16424D01*
Y11283D01*
X-16507Y11199D01*
X-16590D01*
X-16424Y11366D02*
Y11699D01*
X-21672Y9504D02*
X-21339D01*
X-21505D01*
Y9004D01*
X-21089D02*
X-20922D01*
X-20839Y9087D01*
Y9254D01*
X-20922Y9337D01*
X-21089D01*
X-21172Y9254D01*
Y9087D01*
X-21089Y9004D01*
X-20672Y8837D02*
Y9337D01*
X-20422D01*
X-20339Y9254D01*
Y9087D01*
X-20422Y9004D01*
X-20672D01*
X-19673D02*
Y9504D01*
X-19423D01*
X-19339Y9420D01*
Y9254D01*
X-19423Y9170D01*
X-19673D01*
X-19089Y9337D02*
X-18923D01*
X-18839Y9254D01*
Y9004D01*
X-19089D01*
X-19173Y9087D01*
X-19089Y9170D01*
X-18839D01*
X-18673Y9004D02*
X-18423D01*
X-18340Y9087D01*
X-18423Y9170D01*
X-18590D01*
X-18673Y9254D01*
X-18590Y9337D01*
X-18340D01*
X-18090Y9420D02*
Y9337D01*
X-18173D01*
X-18006D01*
X-18090D01*
Y9087D01*
X-18006Y9004D01*
X-17507D02*
X-17673D01*
X-17756Y9087D01*
Y9254D01*
X-17673Y9337D01*
X-17507D01*
X-17423Y9254D01*
Y9170D01*
X-17756D01*
X-21672Y10685D02*
Y10185D01*
X-21422D01*
X-21339Y10268D01*
Y10352D01*
X-21422Y10435D01*
X-21672D01*
X-21422D01*
X-21339Y10518D01*
Y10602D01*
X-21422Y10685D01*
X-21672D01*
X-21089Y10185D02*
X-20922D01*
X-20839Y10268D01*
Y10435D01*
X-20922Y10518D01*
X-21089D01*
X-21172Y10435D01*
Y10268D01*
X-21089Y10185D01*
X-20589Y10602D02*
Y10518D01*
X-20672D01*
X-20506D01*
X-20589D01*
Y10268D01*
X-20506Y10185D01*
X-20172Y10602D02*
Y10518D01*
X-20256D01*
X-20089D01*
X-20172D01*
Y10268D01*
X-20089Y10185D01*
X-19756D02*
X-19589D01*
X-19506Y10268D01*
Y10435D01*
X-19589Y10518D01*
X-19756D01*
X-19839Y10435D01*
Y10268D01*
X-19756Y10185D01*
X-19339D02*
Y10518D01*
X-19256D01*
X-19173Y10435D01*
Y10185D01*
Y10435D01*
X-19089Y10518D01*
X-19006Y10435D01*
Y10185D01*
X-18090Y10685D02*
X-18256D01*
X-18340Y10602D01*
Y10268D01*
X-18256Y10185D01*
X-18090D01*
X-18006Y10268D01*
Y10602D01*
X-18090Y10685D01*
X-17840Y10518D02*
X-17673Y10185D01*
X-17507Y10518D01*
X-17090Y10185D02*
X-17257D01*
X-17340Y10268D01*
Y10435D01*
X-17257Y10518D01*
X-17090D01*
X-17007Y10435D01*
Y10352D01*
X-17340D01*
X-16840Y10518D02*
Y10185D01*
Y10352D01*
X-16757Y10435D01*
X-16674Y10518D01*
X-16590D01*
X-16340Y10185D02*
X-16174D01*
X-16257D01*
Y10685D01*
X-16340D01*
X-15840Y10518D02*
X-15674D01*
X-15591Y10435D01*
Y10185D01*
X-15840D01*
X-15924Y10268D01*
X-15840Y10352D01*
X-15591D01*
X-15424Y10518D02*
Y10268D01*
X-15341Y10185D01*
X-15091D01*
Y10102D01*
X-15174Y10018D01*
X-15257D01*
X-15091Y10185D02*
Y10518D01*
X-21672Y8323D02*
Y7823D01*
X-21422D01*
X-21339Y7906D01*
Y7989D01*
X-21422Y8073D01*
X-21672D01*
X-21422D01*
X-21339Y8156D01*
Y8239D01*
X-21422Y8323D01*
X-21672D01*
X-21089Y7823D02*
X-20922D01*
X-20839Y7906D01*
Y8073D01*
X-20922Y8156D01*
X-21089D01*
X-21172Y8073D01*
Y7906D01*
X-21089Y7823D01*
X-20589Y8239D02*
Y8156D01*
X-20672D01*
X-20506D01*
X-20589D01*
Y7906D01*
X-20506Y7823D01*
X-20172Y8239D02*
Y8156D01*
X-20256D01*
X-20089D01*
X-20172D01*
Y7906D01*
X-20089Y7823D01*
X-19756D02*
X-19589D01*
X-19506Y7906D01*
Y8073D01*
X-19589Y8156D01*
X-19756D01*
X-19839Y8073D01*
Y7906D01*
X-19756Y7823D01*
X-19339D02*
Y8156D01*
X-19256D01*
X-19173Y8073D01*
Y7823D01*
Y8073D01*
X-19089Y8156D01*
X-19006Y8073D01*
Y7823D01*
X-18340D02*
Y8323D01*
X-18090D01*
X-18006Y8239D01*
Y8073D01*
X-18090Y7989D01*
X-18340D01*
X-17756Y8156D02*
X-17590D01*
X-17507Y8073D01*
Y7823D01*
X-17756D01*
X-17840Y7906D01*
X-17756Y7989D01*
X-17507D01*
X-17340Y7823D02*
X-17090D01*
X-17007Y7906D01*
X-17090Y7989D01*
X-17257D01*
X-17340Y8073D01*
X-17257Y8156D01*
X-17007D01*
X-16757Y8239D02*
Y8156D01*
X-16840D01*
X-16674D01*
X-16757D01*
Y7906D01*
X-16674Y7823D01*
X-16174D02*
X-16340D01*
X-16424Y7906D01*
Y8073D01*
X-16340Y8156D01*
X-16174D01*
X-16090Y8073D01*
Y7989D01*
X-16424D01*
X-21672Y7141D02*
X-21339D01*
X-21505D01*
Y6642D01*
X-21089D02*
X-20922D01*
X-20839Y6725D01*
Y6892D01*
X-20922Y6975D01*
X-21089D01*
X-21172Y6892D01*
Y6725D01*
X-21089Y6642D01*
X-20672Y6475D02*
Y6975D01*
X-20422D01*
X-20339Y6892D01*
Y6725D01*
X-20422Y6642D01*
X-20672D01*
X-19339Y7058D02*
X-19423Y7141D01*
X-19589D01*
X-19673Y7058D01*
Y6975D01*
X-19589Y6892D01*
X-19423D01*
X-19339Y6808D01*
Y6725D01*
X-19423Y6642D01*
X-19589D01*
X-19673Y6725D01*
X-19089Y6642D02*
X-18923D01*
X-18839Y6725D01*
Y6892D01*
X-18923Y6975D01*
X-19089D01*
X-19173Y6892D01*
Y6725D01*
X-19089Y6642D01*
X-18673D02*
X-18506D01*
X-18590D01*
Y7141D01*
X-18673D01*
X-17923D02*
Y6642D01*
X-18173D01*
X-18256Y6725D01*
Y6892D01*
X-18173Y6975D01*
X-17923D01*
X-17507Y6642D02*
X-17673D01*
X-17756Y6725D01*
Y6892D01*
X-17673Y6975D01*
X-17507D01*
X-17423Y6892D01*
Y6808D01*
X-17756D01*
X-17257Y6975D02*
Y6642D01*
Y6808D01*
X-17173Y6892D01*
X-17090Y6975D01*
X-17007D01*
X-21672Y5960D02*
Y5461D01*
X-21422D01*
X-21339Y5544D01*
Y5627D01*
X-21422Y5710D01*
X-21672D01*
X-21422D01*
X-21339Y5794D01*
Y5877D01*
X-21422Y5960D01*
X-21672D01*
X-21089Y5461D02*
X-20922D01*
X-20839Y5544D01*
Y5710D01*
X-20922Y5794D01*
X-21089D01*
X-21172Y5710D01*
Y5544D01*
X-21089Y5461D01*
X-20589Y5877D02*
Y5794D01*
X-20672D01*
X-20506D01*
X-20589D01*
Y5544D01*
X-20506Y5461D01*
X-20172Y5877D02*
Y5794D01*
X-20256D01*
X-20089D01*
X-20172D01*
Y5544D01*
X-20089Y5461D01*
X-19756D02*
X-19589D01*
X-19506Y5544D01*
Y5710D01*
X-19589Y5794D01*
X-19756D01*
X-19839Y5710D01*
Y5544D01*
X-19756Y5461D01*
X-19339D02*
Y5794D01*
X-19256D01*
X-19173Y5710D01*
Y5461D01*
Y5710D01*
X-19089Y5794D01*
X-19006Y5710D01*
Y5461D01*
X-18006Y5877D02*
X-18090Y5960D01*
X-18256D01*
X-18340Y5877D01*
Y5794D01*
X-18256Y5710D01*
X-18090D01*
X-18006Y5627D01*
Y5544D01*
X-18090Y5461D01*
X-18256D01*
X-18340Y5544D01*
X-17756Y5461D02*
X-17590D01*
X-17507Y5544D01*
Y5710D01*
X-17590Y5794D01*
X-17756D01*
X-17840Y5710D01*
Y5544D01*
X-17756Y5461D01*
X-17340D02*
X-17173D01*
X-17257D01*
Y5960D01*
X-17340D01*
X-16590D02*
Y5461D01*
X-16840D01*
X-16923Y5544D01*
Y5710D01*
X-16840Y5794D01*
X-16590D01*
X-16174Y5461D02*
X-16340D01*
X-16424Y5544D01*
Y5710D01*
X-16340Y5794D01*
X-16174D01*
X-16090Y5710D01*
Y5627D01*
X-16424D01*
X-15924Y5794D02*
Y5461D01*
Y5627D01*
X-15840Y5710D01*
X-15757Y5794D01*
X-15674D01*
X-21672Y12488D02*
Y12988D01*
X-21505Y12822D01*
X-21339Y12988D01*
Y12488D01*
X-21172Y12822D02*
Y12572D01*
X-21089Y12488D01*
X-20839D01*
Y12822D01*
X-20672Y12488D02*
X-20506D01*
X-20589D01*
Y12988D01*
X-20672D01*
X-20172Y12905D02*
Y12822D01*
X-20256D01*
X-20089D01*
X-20172D01*
Y12572D01*
X-20089Y12488D01*
X-19839D02*
X-19673D01*
X-19756D01*
Y12822D01*
X-19839D01*
X-19423Y12738D02*
X-19089D01*
X-18923Y12488D02*
X-18756D01*
X-18839D01*
Y12988D01*
X-18923D01*
X-18423Y12822D02*
X-18256D01*
X-18173Y12738D01*
Y12488D01*
X-18423D01*
X-18506Y12572D01*
X-18423Y12655D01*
X-18173D01*
X-18006Y12822D02*
Y12572D01*
X-17923Y12488D01*
X-17673D01*
Y12405D01*
X-17756Y12322D01*
X-17840D01*
X-17673Y12488D02*
Y12822D01*
X-17257Y12488D02*
X-17423D01*
X-17507Y12572D01*
Y12738D01*
X-17423Y12822D01*
X-17257D01*
X-17173Y12738D01*
Y12655D01*
X-17507D01*
X-17007Y12822D02*
Y12488D01*
Y12655D01*
X-16923Y12738D01*
X-16840Y12822D01*
X-16757D01*
X-21672Y-2331D02*
Y-2831D01*
Y-2664D01*
X-21339Y-2331D01*
X-21589Y-2581D01*
X-21339Y-2831D01*
X-20922D02*
X-21089D01*
X-21172Y-2747D01*
Y-2581D01*
X-21089Y-2497D01*
X-20922D01*
X-20839Y-2581D01*
Y-2664D01*
X-21172D01*
X-20422Y-2831D02*
X-20589D01*
X-20672Y-2747D01*
Y-2581D01*
X-20589Y-2497D01*
X-20422D01*
X-20339Y-2581D01*
Y-2664D01*
X-20672D01*
X-20172Y-2997D02*
Y-2497D01*
X-19922D01*
X-19839Y-2581D01*
Y-2747D01*
X-19922Y-2831D01*
X-20172D01*
X-19673Y-2581D02*
X-19339D01*
X-18923Y-2331D02*
X-19089D01*
X-19173Y-2414D01*
Y-2747D01*
X-19089Y-2831D01*
X-18923D01*
X-18839Y-2747D01*
Y-2414D01*
X-18923Y-2331D01*
X-18673Y-2497D02*
Y-2747D01*
X-18590Y-2831D01*
X-18340D01*
Y-2497D01*
X-18090Y-2414D02*
Y-2497D01*
X-18173D01*
X-18006D01*
X-18090D01*
Y-2747D01*
X-18006Y-2831D01*
X-17257Y-2331D02*
Y-2831D01*
X-16923D01*
X-16674Y-2497D02*
X-16507D01*
X-16424Y-2581D01*
Y-2831D01*
X-16674D01*
X-16757Y-2747D01*
X-16674Y-2664D01*
X-16424D01*
X-16257Y-2497D02*
Y-2747D01*
X-16174Y-2831D01*
X-15924D01*
Y-2914D01*
X-16007Y-2997D01*
X-16090D01*
X-15924Y-2831D02*
Y-2497D01*
X-15507Y-2831D02*
X-15674D01*
X-15757Y-2747D01*
Y-2581D01*
X-15674Y-2497D01*
X-15507D01*
X-15424Y-2581D01*
Y-2664D01*
X-15757D01*
X-15257Y-2497D02*
Y-2831D01*
Y-2664D01*
X-15174Y-2581D01*
X-15091Y-2497D01*
X-15007D01*
X-16416Y-5875D02*
X-16082D01*
X-16249D01*
Y-6375D01*
X-15916D02*
X-15749D01*
X-15832D01*
Y-6041D01*
X-15916D01*
X-15416Y-5958D02*
Y-6041D01*
X-15499D01*
X-15333D01*
X-15416D01*
Y-6291D01*
X-15333Y-6375D01*
X-15083D02*
X-14916D01*
X-14999D01*
Y-5875D01*
X-15083D01*
X-14416Y-6375D02*
X-14583D01*
X-14666Y-6291D01*
Y-6125D01*
X-14583Y-6041D01*
X-14416D01*
X-14333Y-6125D01*
Y-6208D01*
X-14666D01*
X-14166Y-6041D02*
X-14083D01*
Y-6125D01*
X-14166D01*
Y-6041D01*
Y-6291D02*
X-14083D01*
Y-6375D01*
X-14166D01*
Y-6291D01*
X-16416Y-7556D02*
Y-7056D01*
X-16082Y-7556D01*
Y-7056D01*
X-15916Y-7223D02*
Y-7472D01*
X-15832Y-7556D01*
X-15582D01*
Y-7223D01*
X-15416Y-7556D02*
Y-7223D01*
X-15333D01*
X-15249Y-7306D01*
Y-7556D01*
Y-7306D01*
X-15166Y-7223D01*
X-15083Y-7306D01*
Y-7556D01*
X-14916Y-7056D02*
Y-7556D01*
X-14666D01*
X-14583Y-7472D01*
Y-7389D01*
Y-7306D01*
X-14666Y-7223D01*
X-14916D01*
X-14166Y-7556D02*
X-14333D01*
X-14416Y-7472D01*
Y-7306D01*
X-14333Y-7223D01*
X-14166D01*
X-14083Y-7306D01*
Y-7389D01*
X-14416D01*
X-13916Y-7223D02*
Y-7556D01*
Y-7389D01*
X-13833Y-7306D01*
X-13750Y-7223D01*
X-13666D01*
X-13416D02*
X-13333D01*
Y-7306D01*
X-13416D01*
Y-7223D01*
Y-7472D02*
X-13333D01*
Y-7556D01*
X-13416D01*
Y-7472D01*
X-16416Y-9418D02*
Y-9918D01*
X-16166D01*
X-16082Y-9835D01*
Y-9501D01*
X-16166Y-9418D01*
X-16416D01*
X-15832Y-9585D02*
X-15666D01*
X-15582Y-9668D01*
Y-9918D01*
X-15832D01*
X-15916Y-9835D01*
X-15832Y-9751D01*
X-15582D01*
X-15333Y-9501D02*
Y-9585D01*
X-15416D01*
X-15249D01*
X-15333D01*
Y-9835D01*
X-15249Y-9918D01*
X-14749D02*
X-14916D01*
X-14999Y-9835D01*
Y-9668D01*
X-14916Y-9585D01*
X-14749D01*
X-14666Y-9668D01*
Y-9751D01*
X-14999D01*
X-14499Y-9585D02*
X-14416D01*
Y-9668D01*
X-14499D01*
Y-9585D01*
Y-9835D02*
X-14416D01*
Y-9918D01*
X-14499D01*
Y-9835D01*
X-16416Y-8737D02*
Y-8237D01*
X-16166D01*
X-16082Y-8320D01*
Y-8487D01*
X-16166Y-8570D01*
X-16416D01*
X-16249D02*
X-16082Y-8737D01*
X-15666D02*
X-15832D01*
X-15916Y-8654D01*
Y-8487D01*
X-15832Y-8404D01*
X-15666D01*
X-15582Y-8487D01*
Y-8570D01*
X-15916D01*
X-15416Y-8404D02*
X-15249Y-8737D01*
X-15083Y-8404D01*
X-14916Y-8737D02*
X-14749D01*
X-14833D01*
Y-8404D01*
X-14916D01*
X-14499Y-8737D02*
X-14250D01*
X-14166Y-8654D01*
X-14250Y-8570D01*
X-14416D01*
X-14499Y-8487D01*
X-14416Y-8404D01*
X-14166D01*
X-14000Y-8737D02*
X-13833D01*
X-13916D01*
Y-8404D01*
X-14000D01*
X-13500Y-8737D02*
X-13333D01*
X-13250Y-8654D01*
Y-8487D01*
X-13333Y-8404D01*
X-13500D01*
X-13583Y-8487D01*
Y-8654D01*
X-13500Y-8737D01*
X-13083D02*
Y-8404D01*
X-12833D01*
X-12750Y-8487D01*
Y-8737D01*
X-12583Y-8404D02*
X-12500D01*
Y-8487D01*
X-12583D01*
Y-8404D01*
Y-8654D02*
X-12500D01*
Y-8737D01*
X-12583D01*
Y-8654D01*
X-16416Y-11099D02*
Y-10766D01*
X-16249Y-10599D01*
X-16082Y-10766D01*
Y-11099D01*
Y-10849D01*
X-16416D01*
X-15916Y-10766D02*
Y-11016D01*
X-15832Y-11099D01*
X-15582D01*
Y-10766D01*
X-15333Y-10683D02*
Y-10766D01*
X-15416D01*
X-15249D01*
X-15333D01*
Y-11016D01*
X-15249Y-11099D01*
X-14999Y-10599D02*
Y-11099D01*
Y-10849D01*
X-14916Y-10766D01*
X-14749D01*
X-14666Y-10849D01*
Y-11099D01*
X-14416D02*
X-14250D01*
X-14166Y-11016D01*
Y-10849D01*
X-14250Y-10766D01*
X-14416D01*
X-14499Y-10849D01*
Y-11016D01*
X-14416Y-11099D01*
X-14000Y-10766D02*
Y-11099D01*
Y-10932D01*
X-13916Y-10849D01*
X-13833Y-10766D01*
X-13750D01*
X-13500D02*
X-13416D01*
Y-10849D01*
X-13500D01*
Y-10766D01*
Y-11016D02*
X-13416D01*
Y-11099D01*
X-13500D01*
Y-11016D01*
D12*
X-22072Y-3168D02*
X-13017Y-3168D01*
X-22072Y-1986D02*
X-13017D01*
X-22072Y16911D02*
X-13017D01*
X-22072Y18092D02*
X-13017D01*
X-22072Y19273D02*
X-13017D01*
X-22072Y20454D02*
X-13017D01*
X-14198Y-3168D02*
Y20454D01*
X-13017Y-3168D02*
Y21636D01*
X-22072Y21636D02*
X-22072Y15730D01*
X-22072Y21636D02*
X-22072Y21636D01*
X-13017Y21636D01*
X-22072Y15730D02*
X-13017D01*
X-22072Y15730D02*
X-22072Y15730D01*
X-22072Y15730D02*
X-22072Y9825D01*
X-22072Y14549D02*
X-13017Y14549D01*
X-22072Y13368D02*
X-13017D01*
X-22072Y12187D02*
X-13017D01*
X-22072Y11006D02*
X-13017D01*
X-22072Y9825D02*
X-13017D01*
X-22072Y9825D02*
X-22072Y9825D01*
X-22072Y9825D02*
X-22072Y3919D01*
X-22072Y8643D02*
X-13017Y8643D01*
X-22072Y7462D02*
X-13017D01*
X-22072Y6281D02*
X-13017D01*
X-22072Y5100D02*
X-13017Y5100D01*
X-22072Y3919D02*
X-13017D01*
X-22072Y3919D02*
X-22072Y3919D01*
X-22072Y-3168D02*
Y3919D01*
Y2738D02*
X-13017Y2738D01*
X-22072Y1557D02*
X-13017Y1557D01*
X-22072Y376D02*
X-13017D01*
X-22072Y-805D02*
X-13017Y-805D01*
X-16809Y-11493D02*
X3663D01*
X-16809Y-5587D02*
X3663Y-5587D01*
X-16809D02*
X-16809Y-5587D01*
X-16809Y-5587D02*
X-16809Y-11493D01*
X3663Y-5587D02*
X3663Y-11493D01*
X-12085D02*
Y-5587D01*
X-16809Y-6768D02*
X3663Y-6768D01*
X-16809Y-7949D02*
X3663Y-7949D01*
X-16809Y-9131D02*
X3663Y-9131D01*
X-16809Y-10312D02*
X3663Y-10312D01*
D18*
X-21678Y20848D02*
Y21181D01*
X-21512Y21348D01*
X-21345Y21181D01*
Y20848D01*
Y21098D01*
X-21678D01*
X-20845Y21181D02*
X-21095D01*
X-21178Y21098D01*
Y20931D01*
X-21095Y20848D01*
X-20845D01*
X-20595Y21265D02*
Y21181D01*
X-20679D01*
X-20512D01*
X-20595D01*
Y20931D01*
X-20512Y20848D01*
X-20262D02*
X-20095D01*
X-20179D01*
Y21181D01*
X-20262D01*
X-19845D02*
X-19679Y20848D01*
X-19512Y21181D01*
X-19096Y20848D02*
X-19262D01*
X-19346Y20931D01*
Y21098D01*
X-19262Y21181D01*
X-19096D01*
X-19012Y21098D01*
Y21015D01*
X-19346D01*
X-18346Y20848D02*
Y21348D01*
X-18096D01*
X-18013Y21265D01*
Y21098D01*
X-18096Y21015D01*
X-18346D01*
X-17513Y21265D02*
X-17596Y21348D01*
X-17763D01*
X-17846Y21265D01*
Y20931D01*
X-17763Y20848D01*
X-17596D01*
X-17513Y20931D01*
X-17346Y21348D02*
Y20848D01*
X-17096D01*
X-17013Y20931D01*
Y21015D01*
X-17096Y21098D01*
X-17346D01*
X-17096D01*
X-17013Y21181D01*
Y21265D01*
X-17096Y21348D01*
X-17346D01*
X-16347D02*
Y20848D01*
X-16013D01*
X-15763Y21181D02*
X-15597D01*
X-15514Y21098D01*
Y20848D01*
X-15763D01*
X-15847Y20931D01*
X-15763Y21015D01*
X-15514D01*
X-15347Y21181D02*
Y20931D01*
X-15264Y20848D01*
X-15014D01*
Y20765D01*
X-15097Y20682D01*
X-15180D01*
X-15014Y20848D02*
Y21181D01*
X-14597Y20848D02*
X-14764D01*
X-14847Y20931D01*
Y21098D01*
X-14764Y21181D01*
X-14597D01*
X-14514Y21098D01*
Y21015D01*
X-14847D01*
X-14347Y21181D02*
Y20848D01*
Y21015D01*
X-14264Y21098D01*
X-14181Y21181D01*
X-14097D01*
X-13847Y20848D02*
X-13597D01*
X-13514Y20931D01*
X-13597Y21015D01*
X-13764D01*
X-13847Y21098D01*
X-13764Y21181D01*
X-13514D01*
X-13772Y3558D02*
X-13439Y3058D01*
Y3558D02*
X-13772Y3058D01*
D89*
X-11127Y-10650D02*
X-11293D01*
X-11210D01*
Y-11067D01*
X-11293Y-11150D01*
X-11377D01*
X-11460Y-11067D01*
X-10960Y-11150D02*
Y-10650D01*
X-10710D01*
X-10627Y-10733D01*
Y-10900D01*
X-10710Y-10983D01*
X-10960D01*
X-10794D02*
X-10627Y-11150D01*
X-10460Y-10650D02*
Y-11150D01*
X-10127D01*
X-11127Y-9960D02*
X-11460D01*
X-11127Y-9627D01*
Y-9543D01*
X-11210Y-9460D01*
X-11377D01*
X-11460Y-9543D01*
X-10960D02*
X-10877Y-9460D01*
X-10710D01*
X-10627Y-9543D01*
Y-9877D01*
X-10710Y-9960D01*
X-10877D01*
X-10960Y-9877D01*
Y-9543D01*
X-10460Y-9960D02*
X-10294D01*
X-10377D01*
Y-9460D01*
X-10460Y-9543D01*
X-10044Y-9877D02*
X-9960Y-9960D01*
X-9794D01*
X-9711Y-9877D01*
Y-9543D01*
X-9794Y-9460D01*
X-9960D01*
X-10044Y-9543D01*
Y-9627D01*
X-9960Y-9710D01*
X-9711D01*
X-9544D02*
X-9211D01*
X-9044Y-9543D02*
X-8961Y-9460D01*
X-8794D01*
X-8711Y-9543D01*
Y-9877D01*
X-8794Y-9960D01*
X-8961D01*
X-9044Y-9877D01*
Y-9543D01*
X-8211Y-9960D02*
X-8544D01*
X-8211Y-9627D01*
Y-9543D01*
X-8294Y-9460D01*
X-8461D01*
X-8544Y-9543D01*
X-8044Y-9710D02*
X-7711D01*
X-7545Y-9960D02*
X-7378D01*
X-7461D01*
Y-9460D01*
X-7545Y-9543D01*
X-6795Y-9960D02*
X-7128D01*
X-6795Y-9627D01*
Y-9543D01*
X-6878Y-9460D01*
X-7045D01*
X-7128Y-9543D01*
X-11460Y-8363D02*
X-11377Y-8280D01*
X-11210D01*
X-11127Y-8363D01*
Y-8697D01*
X-11210Y-8780D01*
X-11377D01*
X-11460Y-8697D01*
Y-8363D01*
X-10960Y-8780D02*
X-10794D01*
X-10877D01*
Y-8280D01*
X-10960Y-8363D01*
X-11460Y-7610D02*
Y-7110D01*
X-11293Y-7277D01*
X-11127Y-7110D01*
Y-7610D01*
X-10710D02*
Y-7110D01*
X-10960Y-7360D01*
X-10627D01*
X-10127Y-7527D02*
Y-7193D01*
X-10210Y-7110D01*
X-10377D01*
X-10460Y-7193D01*
Y-7527D01*
X-10377Y-7610D01*
X-10210D01*
X-10294Y-7443D02*
X-10127Y-7610D01*
X-10210D02*
X-10127Y-7527D01*
X-9960Y-7110D02*
X-9794D01*
X-9877D01*
Y-7610D01*
X-9960D01*
X-9794D01*
X-9544Y-7110D02*
Y-7610D01*
X-9294D01*
X-9211Y-7527D01*
Y-7193D01*
X-9294Y-7110D01*
X-9544D01*
X-9044D02*
Y-7610D01*
X-8794D01*
X-8711Y-7527D01*
Y-7443D01*
X-8794Y-7360D01*
X-9044D01*
X-8794D01*
X-8711Y-7277D01*
Y-7193D01*
X-8794Y-7110D01*
X-9044D01*
X-8544Y-7360D02*
X-8211D01*
X-8044Y-7610D02*
Y-7110D01*
X-7795D01*
X-7711Y-7193D01*
Y-7360D01*
X-7795Y-7443D01*
X-8044D01*
X-7211Y-7193D02*
X-7295Y-7110D01*
X-7461D01*
X-7545Y-7193D01*
Y-7527D01*
X-7461Y-7610D01*
X-7295D01*
X-7211Y-7527D01*
X-7045Y-7110D02*
Y-7610D01*
X-6795D01*
X-6712Y-7527D01*
Y-7443D01*
X-6795Y-7360D01*
X-7045D01*
X-6795D01*
X-6712Y-7277D01*
Y-7193D01*
X-6795Y-7110D01*
X-7045D01*
X-11460Y-6470D02*
Y-5970D01*
X-11293Y-6137D01*
X-11127Y-5970D01*
Y-6470D01*
X-10710D02*
Y-5970D01*
X-10960Y-6220D01*
X-10627D01*
X-9627Y-6387D02*
Y-6053D01*
X-9711Y-5970D01*
X-9877D01*
X-9960Y-6053D01*
Y-6387D01*
X-9877Y-6470D01*
X-9711D01*
X-9794Y-6303D02*
X-9627Y-6470D01*
X-9711D02*
X-9627Y-6387D01*
X-9461Y-5970D02*
X-9294D01*
X-9377D01*
Y-6470D01*
X-9461D01*
X-9294D01*
X-8544Y-5970D02*
Y-6470D01*
X-8294D01*
X-8211Y-6387D01*
Y-6053D01*
X-8294Y-5970D01*
X-8544D01*
X-7711D02*
X-8044D01*
Y-6470D01*
X-7711D01*
X-8044Y-6220D02*
X-7878D01*
X-7545Y-5970D02*
Y-6303D01*
X-7378Y-6470D01*
X-7211Y-6303D01*
Y-5970D01*
X-6712D02*
X-7045D01*
Y-6470D01*
X-6712D01*
X-7045Y-6220D02*
X-6878D01*
X-6545Y-5970D02*
Y-6470D01*
X-6212D01*
X-5795Y-5970D02*
X-5962D01*
X-6045Y-6053D01*
Y-6387D01*
X-5962Y-6470D01*
X-5795D01*
X-5712Y-6387D01*
Y-6053D01*
X-5795Y-5970D01*
X-5545Y-6470D02*
Y-5970D01*
X-5295D01*
X-5212Y-6053D01*
Y-6220D01*
X-5295Y-6303D01*
X-5545D01*
X-5045Y-6470D02*
Y-5970D01*
X-4879Y-6137D01*
X-4712Y-5970D01*
Y-6470D01*
X-4212Y-5970D02*
X-4546D01*
Y-6470D01*
X-4212D01*
X-4546Y-6220D02*
X-4379D01*
X-4046Y-6470D02*
Y-5970D01*
X-3713Y-6470D01*
Y-5970D01*
X-3546D02*
X-3213D01*
X-3379D01*
Y-6470D01*
X-2546Y-5970D02*
Y-6470D01*
X-2296D01*
X-2213Y-6387D01*
Y-6303D01*
X-2296Y-6220D01*
X-2546D01*
X-2296D01*
X-2213Y-6137D01*
Y-6053D01*
X-2296Y-5970D01*
X-2546D01*
X-1796D02*
X-1963D01*
X-2046Y-6053D01*
Y-6387D01*
X-1963Y-6470D01*
X-1796D01*
X-1713Y-6387D01*
Y-6053D01*
X-1796Y-5970D01*
X-1547Y-6470D02*
Y-6137D01*
X-1380Y-5970D01*
X-1213Y-6137D01*
Y-6470D01*
Y-6220D01*
X-1547D01*
X-1047Y-6470D02*
Y-5970D01*
X-797D01*
X-713Y-6053D01*
Y-6220D01*
X-797Y-6303D01*
X-1047D01*
X-880D02*
X-713Y-6470D01*
X-547Y-5970D02*
Y-6470D01*
X-297D01*
X-214Y-6387D01*
Y-6053D01*
X-297Y-5970D01*
X-547D01*
M02*
