G04*
G04 #@! TF.GenerationSoftware,Altium Limited,Altium Designer,18.1.9 (240)*
G04*
G04 Layer_Color=65535*
%FSLAX24Y24*%
%MOIN*%
G70*
G01*
G75*
%ADD10C,0.0100*%
%ADD11C,0.0098*%
%ADD12C,0.0070*%
%ADD13C,0.0080*%
%ADD14C,0.0079*%
%ADD15C,0.0020*%
%ADD16C,0.0050*%
%ADD17C,0.0060*%
%ADD18R,0.0116X0.0118*%
%ADD19R,0.0119X0.0118*%
%ADD20R,0.0768X0.0787*%
%ADD21R,0.0138X0.0108*%
%ADD22R,0.0069X0.0180*%
%ADD23R,0.0180X0.0069*%
%ADD24R,0.0510X0.0150*%
%ADD25R,0.0118X0.0119*%
%ADD26R,0.0118X0.0116*%
%ADD27R,0.0310X0.0170*%
G36*
X24862Y13002D02*
Y10994D01*
X23848Y11998D01*
X24862Y13002D01*
D02*
G37*
D10*
X18070Y1655D02*
G03*
X18070Y1655I-50J0D01*
G01*
Y1055D02*
G03*
X18070Y1055I-50J0D01*
G01*
X2530Y1685D02*
G03*
X2530Y1685I-50J0D01*
G01*
X2530Y1085D02*
G03*
X2530Y1085I-50J0D01*
G01*
X20728Y803D02*
Y404D01*
X20928D01*
X20995Y470D01*
Y537D01*
X20928Y603D01*
X20728D01*
X20928D01*
X20995Y670D01*
Y737D01*
X20928Y803D01*
X20728D01*
X21128D02*
Y404D01*
X21395D01*
X21528D02*
Y670D01*
X21661Y803D01*
X21795Y670D01*
Y404D01*
Y603D01*
X21528D01*
X21928Y803D02*
Y404D01*
X22128D01*
X22195Y470D01*
Y737D01*
X22128Y803D01*
X21928D01*
X22594D02*
X22328D01*
Y404D01*
X22594D01*
X22328Y603D02*
X22461D01*
X23128Y803D02*
Y404D01*
X23328D01*
X23394Y470D01*
Y737D01*
X23328Y803D01*
X23128D01*
X23727D02*
X23594D01*
X23527Y737D01*
Y470D01*
X23594Y404D01*
X23727D01*
X23794Y470D01*
Y737D01*
X23727Y803D01*
X24194Y737D02*
X24127Y803D01*
X23994D01*
X23927Y737D01*
Y470D01*
X23994Y404D01*
X24127D01*
X24194Y470D01*
X24327Y803D02*
Y404D01*
Y537D01*
X24594Y803D01*
X24394Y603D01*
X24594Y404D01*
D11*
X12669Y2035D02*
G03*
X12669Y2035I-49J0D01*
G01*
D12*
X14908Y10188D02*
Y11369D01*
X19632Y10188D02*
Y11369D01*
Y13731D02*
Y14912D01*
X14908Y13731D02*
Y14912D01*
Y10188D02*
X19632D01*
X14908Y14912D02*
X19632D01*
X10915Y12276D02*
X11545D01*
X10915Y11764D02*
X11545D01*
X1886Y9315D02*
Y9945D01*
X1374Y9315D02*
Y9945D01*
X1886Y8325D02*
Y8955D01*
X1374Y8325D02*
Y8955D01*
X3046Y4385D02*
Y5015D01*
X2534Y4385D02*
Y5015D01*
X4544Y6945D02*
Y7575D01*
X5056Y6945D02*
Y7575D01*
X3526Y6945D02*
Y7575D01*
X3014Y6945D02*
Y7575D01*
X2986Y10705D02*
Y11335D01*
X2474Y10705D02*
Y11335D01*
X4006Y10705D02*
Y11335D01*
X3494Y10705D02*
Y11335D01*
X3496Y10705D02*
Y11335D01*
X2984Y10705D02*
Y11335D01*
X1964Y10705D02*
Y11335D01*
X2476Y10705D02*
Y11335D01*
X4004Y10715D02*
Y11345D01*
X4516Y10715D02*
Y11345D01*
X4514Y10715D02*
Y11345D01*
X5026Y10715D02*
Y11345D01*
X3016Y6945D02*
Y7575D01*
X2504Y6945D02*
Y7575D01*
X1796Y10705D02*
Y11335D01*
X1284Y10705D02*
Y11335D01*
X4546Y6945D02*
Y7575D01*
X4034Y6945D02*
Y7575D01*
X4036Y6945D02*
Y7575D01*
X3524Y6945D02*
Y7575D01*
X21630Y13269D02*
Y13349D01*
X21670Y13389D01*
X21490Y13369D02*
X21649D01*
X21490D02*
X21685Y13174D01*
Y13349D01*
X22885Y14709D02*
X22885Y13349D01*
X21685D02*
Y14709D01*
X21590Y13309D02*
X21610D01*
X1490Y14341D02*
Y14421D01*
X1450Y14301D02*
X1490Y14341D01*
X1471Y14321D02*
X1630D01*
X1435Y14516D02*
X1630Y14321D01*
X1435Y14341D02*
Y14516D01*
X235Y12981D02*
Y14341D01*
X1435Y12981D02*
Y14341D01*
X1510Y14381D02*
X1530D01*
X17420Y1355D02*
X17820D01*
Y1055D02*
Y1655D01*
X18020Y455D02*
Y1055D01*
Y1655D02*
Y2255D01*
X16820Y2255D02*
X19220Y2255D01*
X16820Y455D02*
X19220D01*
X15620Y55D02*
X20420Y55D01*
X15620Y55D02*
Y2655D01*
X20420D01*
X20420Y55D01*
X1880Y1385D02*
X2280D01*
Y1085D02*
Y1685D01*
X2480Y485D02*
Y1085D01*
X2480Y1685D02*
Y2285D01*
X1280D02*
X3680D01*
X1280Y485D02*
X3680D01*
X80Y85D02*
X4880D01*
X80D02*
Y2685D01*
X4880D01*
Y85D02*
Y2685D01*
X23125Y14444D02*
X23755D01*
X23125Y14956D02*
X23755D01*
X23125Y13424D02*
X23755D01*
X23125Y13936D02*
X23755D01*
X23125Y13934D02*
X23755D01*
X23125Y14446D02*
X23755D01*
X2095Y13354D02*
X2725D01*
X2095Y13866D02*
X2725D01*
X2095Y13864D02*
X2725D01*
X2095Y14376D02*
X2725D01*
X2095Y14374D02*
X2725D01*
X2095Y14886D02*
X2725D01*
X16754Y2855D02*
Y3485D01*
X17266Y2855D02*
Y3485D01*
X415Y3266D02*
X1045D01*
X415Y2754D02*
X1045D01*
X12262Y13077D02*
X12636Y13077D01*
X12636Y13077D02*
Y13273D01*
X12636Y13707D02*
Y13903D01*
X12144Y13431D02*
Y13549D01*
X12262Y13903D02*
X12636Y13903D01*
X4564Y14903D02*
X4938Y14903D01*
X4564Y14707D02*
Y14903D01*
X4564Y14077D02*
Y14273D01*
X5056Y14431D02*
Y14549D01*
X4564Y14077D02*
X4938Y14077D01*
X13903Y12552D02*
X13903Y12926D01*
X13707Y12926D02*
X13903D01*
X13077Y12926D02*
X13273D01*
X13431Y12434D02*
X13549D01*
X13077Y12552D02*
X13077Y12926D01*
X4564Y13943D02*
X4938Y13943D01*
X4564Y13747D02*
Y13943D01*
X4564Y13117D02*
Y13313D01*
X5056Y13471D02*
Y13589D01*
X4564Y13117D02*
X4938Y13117D01*
X12857Y14014D02*
X12857Y14388D01*
X12857Y14014D02*
X13053D01*
X13487Y14014D02*
X13683D01*
X13211Y14506D02*
X13329D01*
X13683Y14014D02*
X13683Y14388D01*
X4564Y12993D02*
X4938Y12993D01*
X4564Y12797D02*
Y12993D01*
X4564Y12167D02*
Y12363D01*
X5056Y12521D02*
Y12639D01*
X4564Y12167D02*
X4938Y12167D01*
X9554Y11115D02*
Y11745D01*
X10066Y11115D02*
Y11745D01*
X6994Y9454D02*
Y10084D01*
X7506Y9454D02*
Y10084D01*
X6575Y4264D02*
X7205D01*
X6575Y4776D02*
X7205D01*
X14366Y3225D02*
Y3855D01*
X13854Y3225D02*
Y3855D01*
X14896Y9455D02*
Y10085D01*
X14384Y9455D02*
Y10085D01*
X11625Y11566D02*
X12255D01*
X11625Y11054D02*
X12255D01*
X19375Y5644D02*
X20005D01*
X19375Y6156D02*
X20005D01*
X19365Y5134D02*
X19995D01*
X19365Y5646D02*
X19995D01*
X19375Y4634D02*
X20005D01*
X19375Y5146D02*
X20005D01*
X16086Y5775D02*
Y6405D01*
X15574Y5775D02*
Y6405D01*
X19375Y6676D02*
X20005D01*
X19375Y6164D02*
X20005D01*
X6575Y4774D02*
X7205D01*
X6575Y5286D02*
X7205D01*
X13284Y3225D02*
Y3855D01*
X13796Y3225D02*
Y3855D01*
X19395Y7144D02*
X20025D01*
X19395Y7656D02*
X20025D01*
X8244Y4744D02*
X13756D01*
X8244D02*
Y10256D01*
X13756D01*
Y4744D02*
Y10256D01*
X12968Y9469D02*
X13756D01*
X12968D02*
Y10256D01*
X6775Y7966D02*
X7405D01*
X6775Y7454D02*
X7405D01*
X15675Y6644D02*
X16305D01*
X15675Y7156D02*
X16305D01*
X15964Y7675D02*
Y8305D01*
X16476Y7675D02*
Y8305D01*
X6565Y5796D02*
X7195Y5796D01*
X6565Y5284D02*
X7195D01*
X6575Y6306D02*
X7205D01*
X6575Y5794D02*
X7205D01*
X20500Y3000D02*
X23000D01*
X20500Y5000D02*
X23000D01*
X20500Y9000D02*
X23000D01*
X20482Y1000D02*
Y13000D01*
X20500Y1000D02*
X24862D01*
X22000D02*
Y13000D01*
X20500Y13000D02*
X24862Y13002D01*
X20500Y11000D02*
X24862D01*
X23000Y1000D02*
Y13000D01*
X24862Y1000D02*
Y13002D01*
X20406Y10165D02*
Y10795D01*
X19894Y10165D02*
Y10795D01*
Y11565D02*
Y12195D01*
X20406Y11565D02*
Y12195D01*
X8214Y1875D02*
Y2505D01*
X8726Y1875D02*
Y2505D01*
X9156Y445D02*
Y1075D01*
X8644Y445D02*
Y1075D01*
X6585Y2874D02*
X7215D01*
X6585Y3386D02*
X7215D01*
X6836Y1885D02*
Y2515D01*
X6324Y1885D02*
Y2515D01*
X9246Y1875D02*
Y2505D01*
X8734Y1875D02*
Y2505D01*
X12381Y-72D02*
X12560D01*
X12313Y-140D02*
X12667D01*
X12490Y38D02*
X12667Y-140D01*
X12313D02*
X12490Y38D01*
Y-307D02*
Y38D01*
X12560Y-72D02*
X12569Y-81D01*
X10955Y-323D02*
X14025D01*
X10955Y-317D02*
Y51D01*
X14025Y-323D02*
Y51D01*
Y940D02*
Y1137D01*
X13159Y1688D02*
X13360D01*
X10955Y940D02*
Y1137D01*
X11620Y1688D02*
X11821D01*
X9666Y445D02*
Y1075D01*
X9154Y445D02*
Y1075D01*
X6846Y815D02*
Y1445D01*
X6334Y815D02*
Y1445D01*
X14365Y826D02*
X14995D01*
X14365Y314D02*
X14995D01*
X14365Y1336D02*
X14995D01*
X14365Y824D02*
X14995D01*
X935Y12054D02*
X1565D01*
X935Y12566D02*
X1565D01*
X3054Y4915D02*
Y5545D01*
X3566Y4915D02*
Y5545D01*
X6620Y14210D02*
Y14610D01*
X6753Y14477D01*
X6887Y14610D01*
Y14210D01*
X7220D02*
Y14610D01*
X7020Y14410D01*
X7286D01*
X7686Y14277D02*
Y14543D01*
X7620Y14610D01*
X7486D01*
X7420Y14543D01*
Y14277D01*
X7486Y14210D01*
X7620D01*
X7553Y14343D02*
X7686Y14210D01*
X7620D02*
X7686Y14277D01*
X7820Y14610D02*
X7953D01*
X7886D01*
Y14210D01*
X7820D01*
X7953D01*
X8153Y14610D02*
Y14210D01*
X8353D01*
X8419Y14277D01*
Y14543D01*
X8353Y14610D01*
X8153D01*
X8553D02*
Y14210D01*
X8753D01*
X8819Y14277D01*
Y14343D01*
X8753Y14410D01*
X8553D01*
X8753D01*
X8819Y14477D01*
Y14543D01*
X8753Y14610D01*
X8553D01*
X8953Y14410D02*
X9219D01*
X9352Y14210D02*
Y14610D01*
X9552D01*
X9619Y14543D01*
Y14410D01*
X9552Y14343D01*
X9352D01*
X10019Y14543D02*
X9952Y14610D01*
X9819D01*
X9752Y14543D01*
Y14277D01*
X9819Y14210D01*
X9952D01*
X10019Y14277D01*
X10152Y14610D02*
Y14210D01*
X10352D01*
X10419Y14277D01*
Y14343D01*
X10352Y14410D01*
X10152D01*
X10352D01*
X10419Y14477D01*
Y14543D01*
X10352Y14610D01*
X10152D01*
X10552Y14410D02*
X10819D01*
X10952Y14543D02*
X11019Y14610D01*
X11152D01*
X11219Y14543D01*
Y14277D01*
X11152Y14210D01*
X11019D01*
X10952Y14277D01*
Y14543D01*
X11352Y14210D02*
X11485D01*
X11418D01*
Y14610D01*
X11352Y14543D01*
X6820Y13900D02*
X6770Y13950D01*
X6670D01*
X6620Y13900D01*
Y13700D01*
X6670Y13650D01*
X6770D01*
X6820Y13700D01*
Y13800D01*
X6720D01*
X6920Y13850D02*
Y13650D01*
Y13750D01*
X6970Y13800D01*
X7020Y13850D01*
X7070D01*
X7270Y13650D02*
X7370D01*
X7420Y13700D01*
Y13800D01*
X7370Y13850D01*
X7270D01*
X7220Y13800D01*
Y13700D01*
X7270Y13650D01*
X7520D02*
Y13850D01*
X7670D01*
X7720Y13800D01*
Y13650D01*
X7870Y13850D02*
X7970D01*
X8020Y13800D01*
Y13650D01*
X7870D01*
X7820Y13700D01*
X7870Y13750D01*
X8020D01*
X8619Y13950D02*
X8519D01*
X8569D01*
Y13700D01*
X8519Y13650D01*
X8469D01*
X8419Y13700D01*
X8769Y13850D02*
X8869D01*
X8919Y13800D01*
Y13650D01*
X8769D01*
X8719Y13700D01*
X8769Y13750D01*
X8919D01*
X9019Y13650D02*
Y13850D01*
X9169D01*
X9219Y13800D01*
Y13650D01*
X9319Y13800D02*
X9519D01*
X9619Y13650D02*
X9719D01*
X9669D01*
Y13950D01*
X9619Y13900D01*
X9869Y13700D02*
X9919Y13650D01*
X10019D01*
X10069Y13700D01*
Y13900D01*
X10019Y13950D01*
X9919D01*
X9869Y13900D01*
Y13850D01*
X9919Y13800D01*
X10069D01*
X23174Y10642D02*
X23274D01*
X23224D01*
Y10343D01*
X23174D01*
X23274D01*
X23574Y10642D02*
X23474D01*
X23424Y10592D01*
Y10393D01*
X23474Y10343D01*
X23574D01*
X23624Y10393D01*
Y10592D01*
X23574Y10642D01*
X23724Y10393D02*
X23774Y10343D01*
X23874D01*
X23924Y10393D01*
Y10592D01*
X23874Y10642D01*
X23774D01*
X23724Y10592D01*
Y10542D01*
X23774Y10492D01*
X23924D01*
X23174Y9642D02*
X23274D01*
X23224D01*
Y9343D01*
X23174D01*
X23274D01*
X23574Y9642D02*
X23474D01*
X23424Y9592D01*
Y9392D01*
X23474Y9343D01*
X23574D01*
X23624Y9392D01*
Y9592D01*
X23574Y9642D01*
X23724Y9592D02*
X23774Y9642D01*
X23874D01*
X23924Y9592D01*
Y9542D01*
X23874Y9492D01*
X23924Y9442D01*
Y9392D01*
X23874Y9343D01*
X23774D01*
X23724Y9392D01*
Y9442D01*
X23774Y9492D01*
X23724Y9542D01*
Y9592D01*
X23774Y9492D02*
X23874D01*
X23174Y8642D02*
X23274D01*
X23224D01*
Y8343D01*
X23174D01*
X23274D01*
X23574Y8642D02*
X23474D01*
X23424Y8592D01*
Y8393D01*
X23474Y8343D01*
X23574D01*
X23624Y8393D01*
Y8592D01*
X23574Y8642D01*
X23724D02*
X23924D01*
Y8592D01*
X23724Y8393D01*
Y8343D01*
X23174Y7642D02*
X23274D01*
X23224D01*
Y7343D01*
X23174D01*
X23274D01*
X23574Y7642D02*
X23474D01*
X23424Y7592D01*
Y7393D01*
X23474Y7343D01*
X23574D01*
X23624Y7393D01*
Y7592D01*
X23574Y7642D01*
X23924D02*
X23824Y7592D01*
X23724Y7492D01*
Y7393D01*
X23774Y7343D01*
X23874D01*
X23924Y7393D01*
Y7442D01*
X23874Y7492D01*
X23724D01*
X23174Y6642D02*
X23274D01*
X23224D01*
Y6343D01*
X23174D01*
X23274D01*
X23574Y6642D02*
X23474D01*
X23424Y6592D01*
Y6392D01*
X23474Y6343D01*
X23574D01*
X23624Y6392D01*
Y6592D01*
X23574Y6642D01*
X23924D02*
X23724D01*
Y6492D01*
X23824Y6542D01*
X23874D01*
X23924Y6492D01*
Y6392D01*
X23874Y6343D01*
X23774D01*
X23724Y6392D01*
X23174Y5642D02*
X23274D01*
X23224D01*
Y5343D01*
X23174D01*
X23274D01*
X23574Y5642D02*
X23474D01*
X23424Y5592D01*
Y5393D01*
X23474Y5343D01*
X23574D01*
X23624Y5393D01*
Y5592D01*
X23574Y5642D01*
X23874Y5343D02*
Y5642D01*
X23724Y5492D01*
X23924D01*
X23174Y4642D02*
X23274D01*
X23224D01*
Y4343D01*
X23174D01*
X23274D01*
X23574Y4642D02*
X23474D01*
X23424Y4592D01*
Y4392D01*
X23474Y4343D01*
X23574D01*
X23624Y4392D01*
Y4592D01*
X23574Y4642D01*
X23724Y4592D02*
X23774Y4642D01*
X23874D01*
X23924Y4592D01*
Y4542D01*
X23874Y4492D01*
X23824D01*
X23874D01*
X23924Y4442D01*
Y4392D01*
X23874Y4343D01*
X23774D01*
X23724Y4392D01*
X23174Y3642D02*
X23274D01*
X23224D01*
Y3343D01*
X23174D01*
X23274D01*
X23574Y3642D02*
X23474D01*
X23424Y3592D01*
Y3392D01*
X23474Y3343D01*
X23574D01*
X23624Y3392D01*
Y3592D01*
X23574Y3642D01*
X23924Y3343D02*
X23724D01*
X23924Y3542D01*
Y3592D01*
X23874Y3642D01*
X23774D01*
X23724Y3592D01*
X23174Y2642D02*
X23274D01*
X23224D01*
Y2343D01*
X23174D01*
X23274D01*
X23574Y2642D02*
X23474D01*
X23424Y2592D01*
Y2393D01*
X23474Y2343D01*
X23574D01*
X23624Y2393D01*
Y2592D01*
X23574Y2642D01*
X23724Y2343D02*
X23824D01*
X23774D01*
Y2642D01*
X23724Y2592D01*
X23174Y1642D02*
X23274D01*
X23224D01*
Y1343D01*
X23174D01*
X23274D01*
X23574Y1642D02*
X23474D01*
X23424Y1592D01*
Y1392D01*
X23474Y1343D01*
X23574D01*
X23624Y1392D01*
Y1592D01*
X23574Y1642D01*
X23724Y1592D02*
X23774Y1642D01*
X23874D01*
X23924Y1592D01*
Y1392D01*
X23874Y1343D01*
X23774D01*
X23724Y1392D01*
Y1592D01*
X21037Y12492D02*
X21237D01*
X21137Y12592D02*
Y12392D01*
X21537Y12642D02*
X21337D01*
Y12492D01*
X21437Y12542D01*
X21487D01*
X21537Y12492D01*
Y12392D01*
X21487Y12343D01*
X21387D01*
X21337Y12392D01*
X21637Y12642D02*
Y12442D01*
X21737Y12343D01*
X21837Y12442D01*
Y12642D01*
X21237Y11592D02*
X21187Y11642D01*
X21087D01*
X21037Y11592D01*
Y11393D01*
X21087Y11343D01*
X21187D01*
X21237Y11393D01*
Y11492D01*
X21137D01*
X21337Y11343D02*
Y11642D01*
X21537Y11343D01*
Y11642D01*
X21637D02*
Y11343D01*
X21787D01*
X21837Y11393D01*
Y11592D01*
X21787Y11642D01*
X21637D01*
X21237Y10592D02*
X21187Y10642D01*
X21087D01*
X21037Y10592D01*
Y10542D01*
X21087Y10492D01*
X21187D01*
X21237Y10442D01*
Y10393D01*
X21187Y10343D01*
X21087D01*
X21037Y10393D01*
X21537Y10592D02*
X21487Y10642D01*
X21387D01*
X21337Y10592D01*
Y10393D01*
X21387Y10343D01*
X21487D01*
X21537Y10393D01*
X21637Y10642D02*
Y10343D01*
X21837D01*
X21237Y9592D02*
X21187Y9642D01*
X21087D01*
X21037Y9592D01*
Y9542D01*
X21087Y9492D01*
X21187D01*
X21237Y9442D01*
Y9392D01*
X21187Y9343D01*
X21087D01*
X21037Y9392D01*
X21337Y9642D02*
Y9343D01*
X21487D01*
X21537Y9392D01*
Y9592D01*
X21487Y9642D01*
X21337D01*
X21637Y9343D02*
Y9542D01*
X21737Y9642D01*
X21837Y9542D01*
Y9343D01*
Y9492D01*
X21637D01*
X21237Y8442D02*
Y8692D01*
Y8393D02*
Y8343D01*
X21537Y8592D02*
X21487Y8642D01*
X21387D01*
X21337Y8592D01*
Y8393D01*
X21387Y8343D01*
X21487D01*
X21537Y8393D01*
X21837Y8592D02*
X21787Y8642D01*
X21687D01*
X21637Y8592D01*
Y8542D01*
X21687Y8492D01*
X21787D01*
X21837Y8442D01*
Y8393D01*
X21787Y8343D01*
X21687D01*
X21637Y8393D01*
X21237Y7592D02*
X21187Y7642D01*
X21087D01*
X21037Y7592D01*
Y7542D01*
X21087Y7492D01*
X21187D01*
X21237Y7442D01*
Y7393D01*
X21187Y7343D01*
X21087D01*
X21037Y7393D01*
X21537Y7592D02*
X21487Y7642D01*
X21387D01*
X21337Y7592D01*
Y7393D01*
X21387Y7343D01*
X21487D01*
X21537Y7393D01*
X21637Y7642D02*
Y7343D01*
Y7442D01*
X21837Y7642D01*
X21687Y7492D01*
X21837Y7343D01*
X20787Y6343D02*
Y6642D01*
X20887Y6542D01*
X20987Y6642D01*
Y6343D01*
X21087Y6642D02*
X21187D01*
X21137D01*
Y6343D01*
X21087D01*
X21187D01*
X21537Y6592D02*
X21487Y6642D01*
X21387D01*
X21337Y6592D01*
Y6542D01*
X21387Y6492D01*
X21487D01*
X21537Y6442D01*
Y6392D01*
X21487Y6343D01*
X21387D01*
X21337Y6392D01*
X21787Y6642D02*
X21687D01*
X21637Y6592D01*
Y6392D01*
X21687Y6343D01*
X21787D01*
X21837Y6392D01*
Y6592D01*
X21787Y6642D01*
X20837Y5343D02*
Y5642D01*
X20937Y5542D01*
X21037Y5642D01*
Y5343D01*
X21287Y5642D02*
X21187D01*
X21137Y5592D01*
Y5393D01*
X21187Y5343D01*
X21287D01*
X21337Y5393D01*
Y5592D01*
X21287Y5642D01*
X21637Y5592D02*
X21587Y5642D01*
X21487D01*
X21437Y5592D01*
Y5542D01*
X21487Y5492D01*
X21587D01*
X21637Y5442D01*
Y5393D01*
X21587Y5343D01*
X21487D01*
X21437Y5393D01*
X21737Y5642D02*
X21837D01*
X21787D01*
Y5343D01*
X21737D01*
X21837D01*
X21337Y4642D02*
X21537D01*
X21437D01*
Y4343D01*
X21637Y4642D02*
X21837Y4343D01*
Y4642D02*
X21637Y4343D01*
X21337Y3343D02*
Y3642D01*
X21487D01*
X21537Y3592D01*
Y3492D01*
X21487Y3442D01*
X21337D01*
X21437D02*
X21537Y3343D01*
X21637Y3642D02*
X21837Y3343D01*
Y3642D02*
X21637Y3343D01*
X21187Y2343D02*
Y2542D01*
X21287Y2642D01*
X21387Y2542D01*
Y2343D01*
Y2492D01*
X21187D01*
X21487Y2343D02*
Y2642D01*
X21687Y2343D01*
Y2642D01*
X21787Y2343D02*
X21887D01*
X21837D01*
Y2642D01*
X21787Y2592D01*
X21087Y1343D02*
Y1542D01*
X21187Y1642D01*
X21287Y1542D01*
Y1343D01*
Y1492D01*
X21087D01*
X21387Y1343D02*
Y1642D01*
X21587Y1343D01*
Y1642D01*
X21687Y1592D02*
X21737Y1642D01*
X21837D01*
X21887Y1592D01*
Y1392D01*
X21837Y1343D01*
X21737D01*
X21687Y1392D01*
Y1592D01*
D13*
X270Y3420D02*
X1270D01*
X270D02*
Y5420D01*
X1270D01*
Y3420D02*
Y5420D01*
X21316Y14359D02*
X21316Y14398D01*
X21316Y13484D02*
X21316Y14604D01*
X20606Y13484D02*
Y14604D01*
X19150Y8330D02*
Y9330D01*
X17150Y8330D02*
X19150D01*
X17150D02*
Y9330D01*
X19150D01*
X20500Y5000D02*
X23000D01*
X7464Y216D02*
X8173D01*
X7464Y1436D02*
X8173D01*
X9806Y2336D02*
X10926D01*
X9806Y3046D02*
X10926Y3046D01*
X10012Y3046D02*
X10051Y3046D01*
X2886Y3106D02*
X4006D01*
X2886Y3816D02*
X4006Y3816D01*
X3092Y3816D02*
X3131Y3816D01*
D14*
X16558Y4678D02*
X19157D01*
Y8103D01*
X16558Y4678D02*
Y8103D01*
X19157D01*
X8147Y2196D02*
Y2432D01*
X7596Y2196D02*
Y2432D01*
X4973Y9573D02*
Y9809D01*
X5524Y9573D02*
Y9809D01*
X2397Y4656D02*
Y4892D01*
X1846Y4656D02*
Y4892D01*
X18620Y4150D02*
X18751D01*
X18686D01*
Y4544D01*
X18620Y4478D01*
D15*
X11281Y11303D02*
Y11697D01*
X10619Y11303D02*
X11281Y11303D01*
X10619Y11697D02*
X11281D01*
X10619Y11303D02*
Y11697D01*
D16*
X180Y11490D02*
X800D01*
X800Y11030D02*
X800Y11490D01*
X180Y11030D02*
X800D01*
X190Y10395D02*
X810D01*
X810Y9935D02*
X810Y10395D01*
X190Y9935D02*
X810D01*
X2410Y8420D02*
X4090D01*
Y9580D01*
X2410Y8420D02*
Y9580D01*
X4090D01*
X290Y5590D02*
Y5723D01*
X390D01*
X423Y5690D01*
Y5590D01*
X590D02*
X523D01*
X490Y5623D01*
Y5690D01*
X523Y5723D01*
X590D01*
X623Y5690D01*
Y5657D01*
X490D01*
X757Y5523D02*
X790D01*
X823Y5557D01*
Y5723D01*
X723D01*
X690Y5690D01*
Y5623D01*
X723Y5590D01*
X823D01*
X1090Y5690D02*
X1223D01*
D17*
X13530Y10620D02*
X13630D01*
X13580D01*
Y10920D01*
X13530Y10870D01*
X14120Y11560D02*
X14253D01*
Y11527D01*
X14120Y11393D01*
Y11360D01*
X14253D01*
X14320Y11527D02*
X14353Y11560D01*
X14420D01*
X14453Y11527D01*
Y11493D01*
X14420Y11460D01*
X14387D01*
X14420D01*
X14453Y11427D01*
Y11393D01*
X14420Y11360D01*
X14353D01*
X14320Y11393D01*
X1180Y7220D02*
X1313D01*
Y7187D01*
X1180Y7053D01*
Y7020D01*
X1313D01*
X1513D02*
X1380D01*
X1513Y7153D01*
Y7187D01*
X1480Y7220D01*
X1413D01*
X1380Y7187D01*
X13900Y2390D02*
X14033D01*
Y2357D01*
X13900Y2223D01*
Y2190D01*
X14033D01*
X14100D02*
X14167D01*
X14133D01*
Y2390D01*
X14100Y2357D01*
X10710Y11210D02*
X10910Y10910D01*
Y11210D02*
X10710Y10910D01*
X11010D02*
X11110D01*
X11060D01*
Y11210D01*
X11010Y11160D01*
X11360Y3720D02*
Y3470D01*
X11410Y3420D01*
X11510D01*
X11560Y3470D01*
Y3720D01*
X11810Y3420D02*
Y3720D01*
X11660Y3570D01*
X11860D01*
X6550Y390D02*
Y140D01*
X6600Y90D01*
X6700D01*
X6750Y140D01*
Y390D01*
X6850Y340D02*
X6900Y390D01*
X7000D01*
X7050Y340D01*
Y290D01*
X7000Y240D01*
X6950D01*
X7000D01*
X7050Y190D01*
Y140D01*
X7000Y90D01*
X6900D01*
X6850Y140D01*
X4210Y8740D02*
Y8490D01*
X4260Y8440D01*
X4360D01*
X4410Y8490D01*
Y8740D01*
X4710Y8440D02*
X4510D01*
X4710Y8640D01*
Y8690D01*
X4660Y8740D01*
X4560D01*
X4510Y8690D01*
X13920Y10560D02*
Y10310D01*
X13970Y10260D01*
X14070D01*
X14120Y10310D01*
Y10560D01*
X14220Y10260D02*
X14320D01*
X14270D01*
Y10560D01*
X14220Y10510D01*
X19940Y3020D02*
X19890Y3070D01*
X19790D01*
X19740Y3020D01*
Y2970D01*
X19790Y2920D01*
X19890D01*
X19940Y2870D01*
Y2820D01*
X19890Y2770D01*
X19790D01*
X19740Y2820D01*
X20240Y2770D02*
X20040D01*
X20240Y2970D01*
Y3020D01*
X20190Y3070D01*
X20090D01*
X20040Y3020D01*
X4990Y3050D02*
X4940Y3100D01*
X4840D01*
X4790Y3050D01*
Y3000D01*
X4840Y2950D01*
X4940D01*
X4990Y2900D01*
Y2850D01*
X4940Y2800D01*
X4840D01*
X4790Y2850D01*
X5090Y2800D02*
X5190D01*
X5140D01*
Y3100D01*
X5090Y3050D01*
X17380Y2950D02*
Y3250D01*
X17530D01*
X17580Y3200D01*
Y3100D01*
X17530Y3050D01*
X17380D01*
X17480D02*
X17580Y2950D01*
X17680Y3200D02*
X17730Y3250D01*
X17830D01*
X17880Y3200D01*
Y3150D01*
X17830Y3100D01*
X17780D01*
X17830D01*
X17880Y3050D01*
Y3000D01*
X17830Y2950D01*
X17730D01*
X17680Y3000D01*
X17980Y2950D02*
X18080D01*
X18030D01*
Y3250D01*
X17980Y3200D01*
X1260Y2890D02*
Y3190D01*
X1410D01*
X1460Y3140D01*
Y3040D01*
X1410Y2990D01*
X1260D01*
X1360D02*
X1460Y2890D01*
X1560Y3140D02*
X1610Y3190D01*
X1710D01*
X1760Y3140D01*
Y3090D01*
X1710Y3040D01*
X1660D01*
X1710D01*
X1760Y2990D01*
Y2940D01*
X1710Y2890D01*
X1610D01*
X1560Y2940D01*
X1860Y3140D02*
X1910Y3190D01*
X2010D01*
X2060Y3140D01*
Y2940D01*
X2010Y2890D01*
X1910D01*
X1860Y2940D01*
Y3140D01*
X23960Y14590D02*
Y14840D01*
X24085D01*
X24127Y14798D01*
Y14715D01*
X24085Y14673D01*
X23960D01*
X24043D02*
X24127Y14590D01*
X24377D02*
X24210D01*
X24377Y14757D01*
Y14798D01*
X24335Y14840D01*
X24252D01*
X24210Y14798D01*
X24460Y14632D02*
X24501Y14590D01*
X24585D01*
X24626Y14632D01*
Y14798D01*
X24585Y14840D01*
X24501D01*
X24460Y14798D01*
Y14757D01*
X24501Y14715D01*
X24626D01*
X23970Y13540D02*
Y13790D01*
X24095D01*
X24137Y13748D01*
Y13665D01*
X24095Y13623D01*
X23970D01*
X24053D02*
X24137Y13540D01*
X24387D02*
X24220D01*
X24387Y13707D01*
Y13748D01*
X24345Y13790D01*
X24262D01*
X24220Y13748D01*
X24470D02*
X24511Y13790D01*
X24595D01*
X24636Y13748D01*
Y13707D01*
X24595Y13665D01*
X24636Y13623D01*
Y13582D01*
X24595Y13540D01*
X24511D01*
X24470Y13582D01*
Y13623D01*
X24511Y13665D01*
X24470Y13707D01*
Y13748D01*
X24511Y13665D02*
X24595D01*
X23960Y14070D02*
Y14320D01*
X24085D01*
X24127Y14278D01*
Y14195D01*
X24085Y14153D01*
X23960D01*
X24043D02*
X24127Y14070D01*
X24377D02*
X24210D01*
X24377Y14237D01*
Y14278D01*
X24335Y14320D01*
X24252D01*
X24210Y14278D01*
X24460Y14320D02*
X24626D01*
Y14278D01*
X24460Y14112D01*
Y14070D01*
X2980Y13480D02*
Y13780D01*
X3130D01*
X3180Y13730D01*
Y13630D01*
X3130Y13580D01*
X2980D01*
X3080D02*
X3180Y13480D01*
X3480D02*
X3280D01*
X3480Y13680D01*
Y13730D01*
X3430Y13780D01*
X3330D01*
X3280Y13730D01*
X3780Y13780D02*
X3680Y13730D01*
X3580Y13630D01*
Y13530D01*
X3630Y13480D01*
X3730D01*
X3780Y13530D01*
Y13580D01*
X3730Y13630D01*
X3580D01*
X2990Y13990D02*
Y14290D01*
X3140D01*
X3190Y14240D01*
Y14140D01*
X3140Y14090D01*
X2990D01*
X3090D02*
X3190Y13990D01*
X3490D02*
X3290D01*
X3490Y14190D01*
Y14240D01*
X3440Y14290D01*
X3340D01*
X3290Y14240D01*
X3790Y14290D02*
X3590D01*
Y14140D01*
X3690Y14190D01*
X3740D01*
X3790Y14140D01*
Y14040D01*
X3740Y13990D01*
X3640D01*
X3590Y14040D01*
X2990Y14480D02*
Y14780D01*
X3140D01*
X3190Y14730D01*
Y14630D01*
X3140Y14580D01*
X2990D01*
X3090D02*
X3190Y14480D01*
X3490D02*
X3290D01*
X3490Y14680D01*
Y14730D01*
X3440Y14780D01*
X3340D01*
X3290Y14730D01*
X3740Y14480D02*
Y14780D01*
X3590Y14630D01*
X3790D01*
X20380Y9160D02*
X20080D01*
Y9310D01*
X20130Y9360D01*
X20230D01*
X20280Y9310D01*
Y9160D01*
Y9260D02*
X20380Y9360D01*
Y9660D02*
Y9460D01*
X20180Y9660D01*
X20130D01*
X20080Y9610D01*
Y9510D01*
X20130Y9460D01*
Y9760D02*
X20080Y9810D01*
Y9910D01*
X20130Y9960D01*
X20180D01*
X20230Y9910D01*
Y9860D01*
Y9910D01*
X20280Y9960D01*
X20330D01*
X20380Y9910D01*
Y9810D01*
X20330Y9760D01*
X20300Y12410D02*
X20000D01*
Y12560D01*
X20050Y12610D01*
X20150D01*
X20200Y12560D01*
Y12410D01*
Y12510D02*
X20300Y12610D01*
Y12910D02*
Y12710D01*
X20100Y12910D01*
X20050D01*
X20000Y12860D01*
Y12760D01*
X20050Y12710D01*
X20300Y13210D02*
Y13010D01*
X20100Y13210D01*
X20050D01*
X20000Y13160D01*
Y13060D01*
X20050Y13010D01*
X5670Y5470D02*
Y5770D01*
X5820D01*
X5870Y5720D01*
Y5620D01*
X5820Y5570D01*
X5670D01*
X5770D02*
X5870Y5470D01*
X6170D02*
X5970D01*
X6170Y5670D01*
Y5720D01*
X6120Y5770D01*
X6020D01*
X5970Y5720D01*
X6270Y5470D02*
X6370D01*
X6320D01*
Y5770D01*
X6270Y5720D01*
X5550Y5900D02*
Y6200D01*
X5700D01*
X5750Y6150D01*
Y6050D01*
X5700Y6000D01*
X5550D01*
X5650D02*
X5750Y5900D01*
X6050D02*
X5850D01*
X6050Y6100D01*
Y6150D01*
X6000Y6200D01*
X5900D01*
X5850Y6150D01*
X6150D02*
X6200Y6200D01*
X6300D01*
X6350Y6150D01*
Y5950D01*
X6300Y5900D01*
X6200D01*
X6150Y5950D01*
Y6150D01*
X15600Y7230D02*
Y7530D01*
X15750D01*
X15800Y7480D01*
Y7380D01*
X15750Y7330D01*
X15600D01*
X15700D02*
X15800Y7230D01*
X15900D02*
X16000D01*
X15950D01*
Y7530D01*
X15900Y7480D01*
X16150Y7280D02*
X16200Y7230D01*
X16300D01*
X16350Y7280D01*
Y7480D01*
X16300Y7530D01*
X16200D01*
X16150Y7480D01*
Y7430D01*
X16200Y7380D01*
X16350D01*
X6670Y8050D02*
Y8350D01*
X6820D01*
X6870Y8300D01*
Y8200D01*
X6820Y8150D01*
X6670D01*
X6770D02*
X6870Y8050D01*
X6970D02*
X7070D01*
X7020D01*
Y8350D01*
X6970Y8300D01*
X7220D02*
X7270Y8350D01*
X7370D01*
X7420Y8300D01*
Y8250D01*
X7370Y8200D01*
X7420Y8150D01*
Y8100D01*
X7370Y8050D01*
X7270D01*
X7220Y8100D01*
Y8150D01*
X7270Y8200D01*
X7220Y8250D01*
Y8300D01*
X7270Y8200D02*
X7370D01*
X19290Y7770D02*
Y8070D01*
X19440D01*
X19490Y8020D01*
Y7920D01*
X19440Y7870D01*
X19290D01*
X19390D02*
X19490Y7770D01*
X19590D02*
X19690D01*
X19640D01*
Y8070D01*
X19590Y8020D01*
X19840Y8070D02*
X20040D01*
Y8020D01*
X19840Y7820D01*
Y7770D01*
X19320Y6760D02*
Y7060D01*
X19470D01*
X19520Y7010D01*
Y6910D01*
X19470Y6860D01*
X19320D01*
X19420D02*
X19520Y6760D01*
X19620D02*
X19720D01*
X19670D01*
Y7060D01*
X19620Y7010D01*
X20070Y7060D02*
X19970Y7010D01*
X19870Y6910D01*
Y6810D01*
X19920Y6760D01*
X20020D01*
X20070Y6810D01*
Y6860D01*
X20020Y6910D01*
X19870D01*
X16630Y6700D02*
X16330D01*
Y6850D01*
X16380Y6900D01*
X16480D01*
X16530Y6850D01*
Y6700D01*
Y6800D02*
X16630Y6900D01*
Y7000D02*
Y7100D01*
Y7050D01*
X16330D01*
X16380Y7000D01*
X16330Y7450D02*
Y7250D01*
X16480D01*
X16430Y7350D01*
Y7400D01*
X16480Y7450D01*
X16580D01*
X16630Y7400D01*
Y7300D01*
X16580Y7250D01*
X20200Y6240D02*
X20420D01*
Y6130D01*
X20383Y6093D01*
X20310D01*
X20273Y6130D01*
Y6240D01*
Y6167D02*
X20200Y6093D01*
Y6020D02*
Y5947D01*
Y5983D01*
X20420D01*
X20383Y6020D01*
X20200Y5727D02*
X20420D01*
X20310Y5837D01*
Y5690D01*
X20220Y5580D02*
X20440D01*
Y5470D01*
X20403Y5433D01*
X20330D01*
X20293Y5470D01*
Y5580D01*
Y5507D02*
X20220Y5433D01*
Y5360D02*
Y5287D01*
Y5323D01*
X20440D01*
X20403Y5360D01*
Y5177D02*
X20440Y5140D01*
Y5067D01*
X20403Y5030D01*
X20367D01*
X20330Y5067D01*
Y5103D01*
Y5067D01*
X20293Y5030D01*
X20257D01*
X20220Y5067D01*
Y5140D01*
X20257Y5177D01*
X20050Y4540D02*
Y4240D01*
X19900D01*
X19850Y4290D01*
Y4390D01*
X19900Y4440D01*
X20050D01*
X19950D02*
X19850Y4540D01*
X19750D02*
X19650D01*
X19700D01*
Y4240D01*
X19750Y4290D01*
X19300Y4540D02*
X19500D01*
X19300Y4340D01*
Y4290D01*
X19350Y4240D01*
X19450D01*
X19500Y4290D01*
X1310Y9330D02*
X1010D01*
Y9480D01*
X1060Y9530D01*
X1160D01*
X1210Y9480D01*
Y9330D01*
Y9430D02*
X1310Y9530D01*
Y9630D02*
Y9730D01*
Y9680D01*
X1010D01*
X1060Y9630D01*
X1310Y9880D02*
Y9980D01*
Y9930D01*
X1010D01*
X1060Y9880D01*
X1300Y8320D02*
X1000D01*
Y8470D01*
X1050Y8520D01*
X1150D01*
X1200Y8470D01*
Y8320D01*
Y8420D02*
X1300Y8520D01*
Y8620D02*
Y8720D01*
Y8670D01*
X1000D01*
X1050Y8620D01*
Y8870D02*
X1000Y8920D01*
Y9020D01*
X1050Y9070D01*
X1250D01*
X1300Y9020D01*
Y8920D01*
X1250Y8870D01*
X1050D01*
X2860Y5220D02*
X2560D01*
Y5370D01*
X2610Y5420D01*
X2710D01*
X2760Y5370D01*
Y5220D01*
Y5320D02*
X2860Y5420D01*
X2810Y5520D02*
X2860Y5570D01*
Y5670D01*
X2810Y5720D01*
X2610D01*
X2560Y5670D01*
Y5570D01*
X2610Y5520D01*
X2660D01*
X2710Y5570D01*
Y5720D01*
X2250Y5460D02*
X1950D01*
Y5610D01*
X2000Y5660D01*
X2100D01*
X2150Y5610D01*
Y5460D01*
Y5560D02*
X2250Y5660D01*
X2000Y5760D02*
X1950Y5810D01*
Y5910D01*
X2000Y5960D01*
X2050D01*
X2100Y5910D01*
X2150Y5960D01*
X2200D01*
X2250Y5910D01*
Y5810D01*
X2200Y5760D01*
X2150D01*
X2100Y5810D01*
X2050Y5760D01*
X2000D01*
X2100Y5810D02*
Y5910D01*
X4630Y6300D02*
X4930D01*
Y6150D01*
X4880Y6100D01*
X4780D01*
X4730Y6150D01*
Y6300D01*
Y6200D02*
X4630Y6100D01*
X4930Y6000D02*
Y5800D01*
X4880D01*
X4680Y6000D01*
X4630D01*
X5150Y10360D02*
Y10660D01*
X5300D01*
X5350Y10610D01*
Y10510D01*
X5300Y10460D01*
X5150D01*
X5250D02*
X5350Y10360D01*
X5650Y10660D02*
X5550Y10610D01*
X5450Y10510D01*
Y10410D01*
X5500Y10360D01*
X5600D01*
X5650Y10410D01*
Y10460D01*
X5600Y10510D01*
X5450D01*
X3120Y6320D02*
X3420D01*
Y6170D01*
X3370Y6120D01*
X3270D01*
X3220Y6170D01*
Y6320D01*
Y6220D02*
X3120Y6120D01*
X3420Y5820D02*
Y6020D01*
X3270D01*
X3320Y5920D01*
Y5870D01*
X3270Y5820D01*
X3170D01*
X3120Y5870D01*
Y5970D01*
X3170Y6020D01*
X15210Y820D02*
X15510D01*
Y670D01*
X15460Y620D01*
X15360D01*
X15310Y670D01*
Y820D01*
Y720D02*
X15210Y620D01*
Y370D02*
X15510D01*
X15360Y520D01*
Y320D01*
X9750Y1000D02*
X10050D01*
Y850D01*
X10000Y800D01*
X9900D01*
X9850Y850D01*
Y1000D01*
Y900D02*
X9750Y800D01*
X10000Y700D02*
X10050Y650D01*
Y550D01*
X10000Y500D01*
X9950D01*
X9900Y550D01*
Y600D01*
Y550D01*
X9850Y500D01*
X9800D01*
X9750Y550D01*
Y650D01*
X9800Y700D01*
X9020Y1290D02*
Y1590D01*
X9170D01*
X9220Y1540D01*
Y1440D01*
X9170Y1390D01*
X9020D01*
X9120D02*
X9220Y1290D01*
X9520D02*
X9320D01*
X9520Y1490D01*
Y1540D01*
X9470Y1590D01*
X9370D01*
X9320Y1540D01*
X6220Y2010D02*
X5920D01*
Y2160D01*
X5970Y2210D01*
X6070D01*
X6120Y2160D01*
Y2010D01*
Y2110D02*
X6220Y2210D01*
Y2310D02*
Y2410D01*
Y2360D01*
X5920D01*
X5970Y2310D01*
X14030Y14530D02*
Y14730D01*
X13980Y14780D01*
X13880D01*
X13830Y14730D01*
Y14530D01*
X13880Y14480D01*
X13980D01*
X13930Y14580D02*
X14030Y14480D01*
X13980D02*
X14030Y14530D01*
X14330Y14780D02*
X14230Y14730D01*
X14130Y14630D01*
Y14530D01*
X14180Y14480D01*
X14280D01*
X14330Y14530D01*
Y14580D01*
X14280Y14630D01*
X14130D01*
X5680Y12350D02*
Y12550D01*
X5630Y12600D01*
X5530D01*
X5480Y12550D01*
Y12350D01*
X5530Y12300D01*
X5630D01*
X5580Y12400D02*
X5680Y12300D01*
X5630D02*
X5680Y12350D01*
X5980Y12600D02*
X5780D01*
Y12450D01*
X5880Y12500D01*
X5930D01*
X5980Y12450D01*
Y12350D01*
X5930Y12300D01*
X5830D01*
X5780Y12350D01*
X13834Y11780D02*
Y11980D01*
X13784Y12030D01*
X13684D01*
X13634Y11980D01*
Y11780D01*
X13684Y11730D01*
X13784D01*
X13734Y11830D02*
X13834Y11730D01*
X13784D02*
X13834Y11780D01*
X14084Y11730D02*
Y12030D01*
X13934Y11880D01*
X14134D01*
X5730Y13340D02*
Y13540D01*
X5680Y13590D01*
X5580D01*
X5530Y13540D01*
Y13340D01*
X5580Y13290D01*
X5680D01*
X5630Y13390D02*
X5730Y13290D01*
X5680D02*
X5730Y13340D01*
X5830Y13540D02*
X5880Y13590D01*
X5980D01*
X6030Y13540D01*
Y13490D01*
X5980Y13440D01*
X5930D01*
X5980D01*
X6030Y13390D01*
Y13340D01*
X5980Y13290D01*
X5880D01*
X5830Y13340D01*
X12184Y12730D02*
Y12930D01*
X12134Y12980D01*
X12034D01*
X11984Y12930D01*
Y12730D01*
X12034Y12680D01*
X12134D01*
X12084Y12780D02*
X12184Y12680D01*
X12134D02*
X12184Y12730D01*
X12484Y12680D02*
X12284D01*
X12484Y12880D01*
Y12930D01*
X12434Y12980D01*
X12334D01*
X12284Y12930D01*
X5760Y14470D02*
Y14670D01*
X5710Y14720D01*
X5610D01*
X5560Y14670D01*
Y14470D01*
X5610Y14420D01*
X5710D01*
X5660Y14520D02*
X5760Y14420D01*
X5710D02*
X5760Y14470D01*
X5860Y14420D02*
X5960D01*
X5910D01*
Y14720D01*
X5860Y14670D01*
X23067Y13340D02*
X22983D01*
X23025D01*
Y13132D01*
X22983Y13090D01*
X22942D01*
X22900Y13132D01*
X23317Y13340D02*
X23150D01*
Y13215D01*
X23233Y13257D01*
X23275D01*
X23317Y13215D01*
Y13132D01*
X23275Y13090D01*
X23192D01*
X23150Y13132D01*
X17500Y9480D02*
Y9780D01*
X17650D01*
X17700Y9730D01*
Y9630D01*
X17650Y9580D01*
X17500D01*
X17600D02*
X17700Y9480D01*
X18000Y9780D02*
X17800D01*
Y9480D01*
X18000D01*
X17800Y9630D02*
X17900D01*
X18300Y9730D02*
X18250Y9780D01*
X18150D01*
X18100Y9730D01*
Y9680D01*
X18150Y9630D01*
X18250D01*
X18300Y9580D01*
Y9530D01*
X18250Y9480D01*
X18150D01*
X18100Y9530D01*
X18600Y9780D02*
X18400D01*
Y9480D01*
X18600D01*
X18400Y9630D02*
X18500D01*
X18700Y9780D02*
X18900D01*
X18800D01*
Y9480D01*
X640Y6180D02*
X540D01*
X590D01*
Y5930D01*
X540Y5880D01*
X490D01*
X440Y5930D01*
X740Y6130D02*
X790Y6180D01*
X890D01*
X940Y6130D01*
Y6080D01*
X890Y6030D01*
X840D01*
X890D01*
X940Y5980D01*
Y5930D01*
X890Y5880D01*
X790D01*
X740Y5930D01*
X12220Y980D02*
Y880D01*
Y930D01*
X12470D01*
X12520Y880D01*
Y830D01*
X12470Y780D01*
X12520Y1280D02*
Y1080D01*
X12320Y1280D01*
X12270D01*
X12220Y1230D01*
Y1130D01*
X12270Y1080D01*
X16580Y4540D02*
X16480D01*
X16530D01*
Y4290D01*
X16480Y4240D01*
X16430D01*
X16380Y4290D01*
X16680Y4240D02*
X16780D01*
X16730D01*
Y4540D01*
X16680Y4490D01*
X20200Y13650D02*
X20500D01*
Y13800D01*
X20450Y13850D01*
X20250D01*
X20200Y13800D01*
Y13650D01*
X20500Y13950D02*
Y14050D01*
Y14000D01*
X20200D01*
X20250Y13950D01*
Y14200D02*
X20200Y14250D01*
Y14350D01*
X20250Y14400D01*
X20450D01*
X20500Y14350D01*
Y14250D01*
X20450Y14200D01*
X20250D01*
X1640Y13760D02*
Y13460D01*
X1790D01*
X1840Y13510D01*
Y13710D01*
X1790Y13760D01*
X1640D01*
X1940Y13510D02*
X1990Y13460D01*
X2090D01*
X2140Y13510D01*
Y13710D01*
X2090Y13760D01*
X1990D01*
X1940Y13710D01*
Y13660D01*
X1990Y13610D01*
X2140D01*
X15350Y8104D02*
Y7804D01*
X15500D01*
X15550Y7854D01*
Y8054D01*
X15500Y8104D01*
X15350D01*
X15650Y8054D02*
X15700Y8104D01*
X15800D01*
X15850Y8054D01*
Y8004D01*
X15800Y7954D01*
X15850Y7904D01*
Y7854D01*
X15800Y7804D01*
X15700D01*
X15650Y7854D01*
Y7904D01*
X15700Y7954D01*
X15650Y8004D01*
Y8054D01*
X15700Y7954D02*
X15800D01*
X21130Y12790D02*
Y13090D01*
X20980D01*
X20930Y13040D01*
Y12840D01*
X20980Y12790D01*
X21130D01*
X20830D02*
X20630D01*
Y12840D01*
X20830Y13040D01*
Y13090D01*
X3960Y5290D02*
X3660D01*
Y5140D01*
X3710Y5090D01*
X3910D01*
X3960Y5140D01*
Y5290D01*
Y4790D02*
X3910Y4890D01*
X3810Y4990D01*
X3710D01*
X3660Y4940D01*
Y4840D01*
X3710Y4790D01*
X3760D01*
X3810Y4840D01*
Y4990D01*
X3190Y4220D02*
Y3920D01*
X3340D01*
X3390Y3970D01*
Y4170D01*
X3340Y4220D01*
X3190D01*
X3690D02*
X3490D01*
Y4070D01*
X3590Y4120D01*
X3640D01*
X3690Y4070D01*
Y3970D01*
X3640Y3920D01*
X3540D01*
X3490Y3970D01*
X352Y11850D02*
Y11550D01*
X502D01*
X552Y11600D01*
Y11800D01*
X502Y11850D01*
X352D01*
X802Y11550D02*
Y11850D01*
X652Y11700D01*
X852D01*
X260Y9865D02*
Y9565D01*
X410D01*
X460Y9615D01*
Y9815D01*
X410Y9865D01*
X260D01*
X560Y9815D02*
X610Y9865D01*
X710D01*
X760Y9815D01*
Y9765D01*
X710Y9715D01*
X660D01*
X710D01*
X760Y9665D01*
Y9615D01*
X710Y9565D01*
X610D01*
X560Y9615D01*
X5920Y1030D02*
X6220D01*
Y1180D01*
X6170Y1230D01*
X5970D01*
X5920Y1180D01*
Y1030D01*
X6220Y1530D02*
Y1330D01*
X6020Y1530D01*
X5970D01*
X5920Y1480D01*
Y1380D01*
X5970Y1330D01*
X10060Y3440D02*
Y3140D01*
X10210D01*
X10260Y3190D01*
Y3390D01*
X10210Y3440D01*
X10060D01*
X10360Y3140D02*
X10460D01*
X10410D01*
Y3440D01*
X10360Y3390D01*
X10980Y12620D02*
X10930Y12670D01*
X10830D01*
X10780Y12620D01*
Y12420D01*
X10830Y12370D01*
X10930D01*
X10980Y12420D01*
X11280Y12370D02*
X11080D01*
X11280Y12570D01*
Y12620D01*
X11230Y12670D01*
X11130D01*
X11080Y12620D01*
X11580Y12670D02*
X11480Y12620D01*
X11380Y12520D01*
Y12420D01*
X11430Y12370D01*
X11530D01*
X11580Y12420D01*
Y12470D01*
X11530Y12520D01*
X11380D01*
X12960Y3330D02*
X12910Y3280D01*
Y3180D01*
X12960Y3130D01*
X13160D01*
X13210Y3180D01*
Y3280D01*
X13160Y3330D01*
X13210Y3630D02*
Y3430D01*
X13010Y3630D01*
X12960D01*
X12910Y3580D01*
Y3480D01*
X12960Y3430D01*
X12910Y3930D02*
Y3730D01*
X13060D01*
X13010Y3830D01*
Y3880D01*
X13060Y3930D01*
X13160D01*
X13210Y3880D01*
Y3780D01*
X13160Y3730D01*
X5770Y5250D02*
X5720Y5300D01*
X5620D01*
X5570Y5250D01*
Y5050D01*
X5620Y5000D01*
X5720D01*
X5770Y5050D01*
X6070Y5000D02*
X5870D01*
X6070Y5200D01*
Y5250D01*
X6020Y5300D01*
X5920D01*
X5870Y5250D01*
X6320Y5000D02*
Y5300D01*
X6170Y5150D01*
X6370D01*
X9210Y11190D02*
X9160Y11140D01*
Y11040D01*
X9210Y10990D01*
X9410D01*
X9460Y11040D01*
Y11140D01*
X9410Y11190D01*
X9460Y11490D02*
Y11290D01*
X9260Y11490D01*
X9210D01*
X9160Y11440D01*
Y11340D01*
X9210Y11290D01*
Y11590D02*
X9160Y11640D01*
Y11740D01*
X9210Y11790D01*
X9260D01*
X9310Y11740D01*
Y11690D01*
Y11740D01*
X9360Y11790D01*
X9410D01*
X9460Y11740D01*
Y11640D01*
X9410Y11590D01*
X7340Y10869D02*
X7390Y10919D01*
Y11019D01*
X7340Y11069D01*
X7140D01*
X7090Y11019D01*
Y10919D01*
X7140Y10869D01*
X7090Y10569D02*
Y10769D01*
X7290Y10569D01*
X7340D01*
X7390Y10619D01*
Y10719D01*
X7340Y10769D01*
X7090Y10269D02*
Y10469D01*
X7290Y10269D01*
X7340D01*
X7390Y10319D01*
Y10419D01*
X7340Y10469D01*
X6420Y4140D02*
X6370Y4190D01*
X6270D01*
X6220Y4140D01*
Y3940D01*
X6270Y3890D01*
X6370D01*
X6420Y3940D01*
X6720Y3890D02*
X6520D01*
X6720Y4090D01*
Y4140D01*
X6670Y4190D01*
X6570D01*
X6520Y4140D01*
X6820Y3890D02*
X6920D01*
X6870D01*
Y4190D01*
X6820Y4140D01*
X14740Y3410D02*
X14790Y3460D01*
Y3560D01*
X14740Y3610D01*
X14540D01*
X14490Y3560D01*
Y3460D01*
X14540Y3410D01*
X14490Y3110D02*
Y3310D01*
X14690Y3110D01*
X14740D01*
X14790Y3160D01*
Y3260D01*
X14740Y3310D01*
Y3010D02*
X14790Y2960D01*
Y2860D01*
X14740Y2810D01*
X14540D01*
X14490Y2860D01*
Y2960D01*
X14540Y3010D01*
X14740D01*
X15320Y9960D02*
X15370Y10010D01*
Y10110D01*
X15320Y10160D01*
X15120D01*
X15070Y10110D01*
Y10010D01*
X15120Y9960D01*
X15070Y9860D02*
Y9760D01*
Y9810D01*
X15370D01*
X15320Y9860D01*
X15120Y9610D02*
X15070Y9560D01*
Y9460D01*
X15120Y9410D01*
X15320D01*
X15370Y9460D01*
Y9560D01*
X15320Y9610D01*
X15270D01*
X15220Y9560D01*
Y9410D01*
X12690Y11420D02*
X12640Y11470D01*
X12540D01*
X12490Y11420D01*
Y11220D01*
X12540Y11170D01*
X12640D01*
X12690Y11220D01*
X12790Y11170D02*
X12890D01*
X12840D01*
Y11470D01*
X12790Y11420D01*
X13040D02*
X13090Y11470D01*
X13190D01*
X13240Y11420D01*
Y11370D01*
X13190Y11320D01*
X13240Y11270D01*
Y11220D01*
X13190Y11170D01*
X13090D01*
X13040Y11220D01*
Y11270D01*
X13090Y11320D01*
X13040Y11370D01*
Y11420D01*
X13090Y11320D02*
X13190D01*
X2810Y12070D02*
X2860Y12120D01*
Y12220D01*
X2810Y12270D01*
X2610D01*
X2560Y12220D01*
Y12120D01*
X2610Y12070D01*
X2560Y11970D02*
Y11870D01*
Y11920D01*
X2860D01*
X2810Y11970D01*
X2860Y11720D02*
Y11520D01*
X2810D01*
X2610Y11720D01*
X2560D01*
X3840Y12080D02*
X3890Y12130D01*
Y12230D01*
X3840Y12280D01*
X3640D01*
X3590Y12230D01*
Y12130D01*
X3640Y12080D01*
X3590Y11980D02*
Y11880D01*
Y11930D01*
X3890D01*
X3840Y11980D01*
X3890Y11530D02*
X3840Y11630D01*
X3740Y11730D01*
X3640D01*
X3590Y11680D01*
Y11580D01*
X3640Y11530D01*
X3690D01*
X3740Y11580D01*
Y11730D01*
X3320Y12540D02*
X3370Y12590D01*
Y12690D01*
X3320Y12740D01*
X3120D01*
X3070Y12690D01*
Y12590D01*
X3120Y12540D01*
X3070Y12440D02*
Y12340D01*
Y12390D01*
X3370D01*
X3320Y12440D01*
X3370Y11990D02*
Y12190D01*
X3220D01*
X3270Y12090D01*
Y12040D01*
X3220Y11990D01*
X3120D01*
X3070Y12040D01*
Y12140D01*
X3120Y12190D01*
X2300Y12060D02*
X2350Y12110D01*
Y12210D01*
X2300Y12260D01*
X2100D01*
X2050Y12210D01*
Y12110D01*
X2100Y12060D01*
X2050Y11960D02*
Y11860D01*
Y11910D01*
X2350D01*
X2300Y11960D01*
X2050Y11560D02*
X2350D01*
X2200Y11710D01*
Y11510D01*
X4340Y12070D02*
X4390Y12120D01*
Y12220D01*
X4340Y12270D01*
X4140D01*
X4090Y12220D01*
Y12120D01*
X4140Y12070D01*
X4090Y11970D02*
Y11870D01*
Y11920D01*
X4390D01*
X4340Y11970D01*
Y11720D02*
X4390Y11670D01*
Y11570D01*
X4340Y11520D01*
X4290D01*
X4240Y11570D01*
Y11620D01*
Y11570D01*
X4190Y11520D01*
X4140D01*
X4090Y11570D01*
Y11670D01*
X4140Y11720D01*
X4740Y11820D02*
X4690Y11870D01*
X4590D01*
X4540Y11820D01*
Y11620D01*
X4590Y11570D01*
X4690D01*
X4740Y11620D01*
X4840Y11570D02*
X4940D01*
X4890D01*
Y11870D01*
X4840Y11820D01*
X5290Y11570D02*
X5090D01*
X5290Y11770D01*
Y11820D01*
X5240Y11870D01*
X5140D01*
X5090Y11820D01*
X4400Y6490D02*
X4450Y6540D01*
Y6640D01*
X4400Y6690D01*
X4200D01*
X4150Y6640D01*
Y6540D01*
X4200Y6490D01*
X4150Y6390D02*
Y6290D01*
Y6340D01*
X4450D01*
X4400Y6390D01*
X4150Y6140D02*
Y6040D01*
Y6090D01*
X4450D01*
X4400Y6140D01*
X3880Y6513D02*
X3930Y6563D01*
Y6663D01*
X3880Y6713D01*
X3680D01*
X3630Y6663D01*
Y6563D01*
X3680Y6513D01*
X3630Y6413D02*
Y6313D01*
Y6363D01*
X3930D01*
X3880Y6413D01*
Y6163D02*
X3930Y6113D01*
Y6013D01*
X3880Y5963D01*
X3680D01*
X3630Y6013D01*
Y6113D01*
X3680Y6163D01*
X3880D01*
X2880Y6500D02*
X2930Y6550D01*
Y6650D01*
X2880Y6700D01*
X2680D01*
X2630Y6650D01*
Y6550D01*
X2680Y6500D01*
Y6400D02*
X2630Y6350D01*
Y6250D01*
X2680Y6200D01*
X2880D01*
X2930Y6250D01*
Y6350D01*
X2880Y6400D01*
X2830D01*
X2780Y6350D01*
Y6200D01*
X1490Y11820D02*
X1440Y11870D01*
X1340D01*
X1290Y11820D01*
Y11620D01*
X1340Y11570D01*
X1440D01*
X1490Y11620D01*
X1590Y11820D02*
X1640Y11870D01*
X1740D01*
X1790Y11820D01*
Y11770D01*
X1740Y11720D01*
X1790Y11670D01*
Y11620D01*
X1740Y11570D01*
X1640D01*
X1590Y11620D01*
Y11670D01*
X1640Y11720D01*
X1590Y11770D01*
Y11820D01*
X1640Y11720D02*
X1740D01*
X1928Y12695D02*
X1928Y12766D01*
X1857Y12837D01*
X1787D01*
X1645Y12695D01*
Y12625D01*
X1716Y12554D01*
X1787Y12554D01*
X2175Y12519D02*
X2069Y12554D01*
X1928Y12554D01*
X1857Y12483D01*
Y12413D01*
X1928Y12342D01*
X1999Y12342D01*
X2034Y12377D01*
X2034Y12448D01*
X1928Y12554D01*
X14500Y1680D02*
X14450Y1730D01*
X14350D01*
X14300Y1680D01*
Y1480D01*
X14350Y1430D01*
X14450D01*
X14500Y1480D01*
X14800Y1730D02*
X14600D01*
Y1580D01*
X14700Y1630D01*
X14750D01*
X14800Y1580D01*
Y1480D01*
X14750Y1430D01*
X14650D01*
X14600Y1480D01*
X7720Y3230D02*
X7670Y3180D01*
Y3080D01*
X7720Y3030D01*
X7920D01*
X7970Y3080D01*
Y3180D01*
X7920Y3230D01*
X7970Y3480D02*
X7670D01*
X7820Y3330D01*
Y3530D01*
X6070Y3220D02*
X6020Y3270D01*
X5920D01*
X5870Y3220D01*
Y3020D01*
X5920Y2970D01*
X6020D01*
X6070Y3020D01*
X6170Y3220D02*
X6220Y3270D01*
X6320D01*
X6370Y3220D01*
Y3170D01*
X6320Y3120D01*
X6270D01*
X6320D01*
X6370Y3070D01*
Y3020D01*
X6320Y2970D01*
X6220D01*
X6170Y3020D01*
X8840Y2940D02*
X8790Y2890D01*
Y2790D01*
X8840Y2740D01*
X9040D01*
X9090Y2790D01*
Y2890D01*
X9040Y2940D01*
X9090Y3240D02*
Y3040D01*
X8890Y3240D01*
X8840D01*
X8790Y3190D01*
Y3090D01*
X8840Y3040D01*
X8360Y3160D02*
X8310Y3110D01*
Y3010D01*
X8360Y2960D01*
X8560D01*
X8610Y3010D01*
Y3110D01*
X8560Y3160D01*
X8610Y3260D02*
Y3360D01*
Y3310D01*
X8310D01*
X8360Y3260D01*
X20040Y14290D02*
X19740D01*
Y14140D01*
X19790Y14090D01*
X19840D01*
X19890Y14140D01*
Y14290D01*
Y14140D01*
X19940Y14090D01*
X19990D01*
X20040Y14140D01*
Y14290D01*
X19740Y13990D02*
X20040D01*
Y13840D01*
X19990Y13790D01*
X19890D01*
X19840Y13840D01*
Y13990D01*
X19740Y13690D02*
Y13590D01*
Y13640D01*
X20040D01*
X19990Y13690D01*
D18*
X21374Y14493D02*
D03*
D19*
X20547Y14493D02*
D03*
D20*
X13372Y9862D02*
D03*
D21*
X16545Y8202D02*
D03*
X15895Y8202D02*
D03*
X6265Y918D02*
D03*
X6915Y918D02*
D03*
X3635Y5442D02*
D03*
X2985Y5442D02*
D03*
D22*
X10585Y11330D02*
D03*
D23*
X10670Y11275D02*
D03*
D24*
X7415Y1405D02*
D03*
D25*
X9917Y2277D02*
D03*
X2997Y3047D02*
D03*
D26*
X9917Y3104D02*
D03*
X2997Y3874D02*
D03*
D27*
X3965Y9665D02*
D03*
M02*
