G04*
G04 #@! TF.GenerationSoftware,Altium Limited,Altium Designer,18.1.9 (240)*
G04*
G04 Layer_Color=32768*
%FSLAX24Y24*%
%MOIN*%
G70*
G01*
G75*
%ADD15C,0.0020*%
%ADD16C,0.0050*%
%ADD90C,0.0010*%
%ADD91C,0.0039*%
D15*
X305Y5463D02*
X1235D01*
X305Y3377D02*
X1235D01*
X305D02*
Y5463D01*
X1235Y3377D02*
Y5463D01*
X559Y3920D02*
X770D01*
Y3709D02*
Y3920D01*
X981D01*
X770D02*
Y4131D01*
X559Y3709D02*
Y3920D01*
Y3709D02*
X770D01*
X981D01*
Y3920D01*
Y4131D01*
X559D02*
X981D01*
X559Y3920D02*
Y4131D01*
X981Y4709D02*
Y4920D01*
X559Y4709D02*
X981D01*
X559D02*
Y4920D01*
Y5131D01*
X770D01*
X981D01*
Y4920D02*
Y5131D01*
X770Y4709D02*
Y4920D01*
X559D02*
X770D01*
Y5131D01*
Y4920D02*
X981D01*
X559Y3377D02*
Y3709D01*
X981Y3377D02*
Y3709D01*
X559Y5131D02*
Y5463D01*
X981Y5131D02*
Y5463D01*
X17259Y4559D02*
Y8241D01*
X18441Y4559D02*
Y8241D01*
X17259D02*
X18441D01*
X17259Y4559D02*
X18441D01*
X17600Y8083D02*
X17783D01*
Y7717D02*
Y8083D01*
X17600Y7717D02*
X17783D01*
X17417D02*
X17600D01*
X17417D02*
Y7900D01*
Y8083D01*
X17600D01*
X16866Y7821D02*
Y7979D01*
Y7821D02*
X17259D01*
X16866Y7979D02*
X17259D01*
X17600Y7583D02*
X17783D01*
Y7217D02*
Y7583D01*
X17600Y7217D02*
X17783D01*
X17417D02*
X17600D01*
X17417D02*
Y7400D01*
Y7583D01*
X17600D01*
X16866Y7321D02*
Y7479D01*
Y7321D02*
X17259D01*
X16866Y7479D02*
X17259D01*
X17600Y7083D02*
X17783D01*
Y6717D02*
Y7083D01*
X17600Y6717D02*
X17783D01*
X17417D02*
X17600D01*
X17417D02*
Y6900D01*
Y7083D01*
X17600D01*
X16866Y6821D02*
Y6979D01*
Y6821D02*
X17259D01*
X16866Y6979D02*
X17259D01*
X17600Y6583D02*
X17783D01*
Y6217D02*
Y6583D01*
X17600Y6217D02*
X17783D01*
X17417D02*
X17600D01*
X17417D02*
Y6400D01*
Y6583D01*
X17600D01*
X16866Y6321D02*
Y6479D01*
Y6321D02*
X17259D01*
X16866Y6479D02*
X17259D01*
X17600Y6083D02*
X17783D01*
Y5717D02*
Y6083D01*
X17600Y5717D02*
X17783D01*
X17417D02*
X17600D01*
X17417D02*
Y5900D01*
Y6083D01*
X17600D01*
X16866Y5821D02*
Y5979D01*
Y5821D02*
X17259D01*
X16866Y5979D02*
X17259D01*
X17600Y5583D02*
X17783D01*
Y5217D02*
Y5583D01*
X17600Y5217D02*
X17783D01*
X17417D02*
X17600D01*
X17417D02*
Y5400D01*
Y5583D01*
X17600D01*
X16866Y5321D02*
Y5479D01*
Y5321D02*
X17259D01*
X16866Y5479D02*
X17259D01*
X17600Y5083D02*
X17783D01*
Y4717D02*
Y5083D01*
X17600Y4717D02*
X17783D01*
X17417D02*
X17600D01*
X17417D02*
Y4900D01*
Y5083D01*
X17600D01*
X16866Y4821D02*
Y4979D01*
Y4821D02*
X17259D01*
X16866Y4979D02*
X17259D01*
X18441Y7821D02*
X18834D01*
X18441Y7979D02*
X18834D01*
Y7821D02*
Y7979D01*
X18100Y7717D02*
X18283D01*
Y7900D01*
Y8083D01*
X18100D02*
X18283D01*
X17917D02*
X18100D01*
X17917Y7717D02*
Y8083D01*
Y7717D02*
X18100D01*
X18441Y7321D02*
X18834D01*
X18441Y7479D02*
X18834D01*
Y7321D02*
Y7479D01*
X18100Y7217D02*
X18283D01*
Y7400D01*
Y7583D01*
X18100D02*
X18283D01*
X17917D02*
X18100D01*
X17917Y7217D02*
Y7583D01*
Y7217D02*
X18100D01*
X18441Y6821D02*
X18834D01*
X18441Y6979D02*
X18834D01*
Y6821D02*
Y6979D01*
X18100Y6717D02*
X18283D01*
Y6900D01*
Y7083D01*
X18100D02*
X18283D01*
X17917D02*
X18100D01*
X17917Y6717D02*
Y7083D01*
Y6717D02*
X18100D01*
X18441Y6321D02*
X18834D01*
X18441Y6479D02*
X18834D01*
Y6321D02*
Y6479D01*
X18100Y6217D02*
X18283D01*
Y6400D01*
Y6583D01*
X18100D02*
X18283D01*
X17917D02*
X18100D01*
X17917Y6217D02*
Y6583D01*
Y6217D02*
X18100D01*
X18441Y5821D02*
X18834D01*
X18441Y5979D02*
X18834D01*
Y5821D02*
Y5979D01*
X18100Y5717D02*
X18283D01*
Y5900D01*
Y6083D01*
X18100D02*
X18283D01*
X17917D02*
X18100D01*
X17917Y5717D02*
Y6083D01*
Y5717D02*
X18100D01*
X18441Y5321D02*
X18834D01*
X18441Y5479D02*
X18834D01*
Y5321D02*
Y5479D01*
X18100Y5217D02*
X18283D01*
Y5400D01*
Y5583D01*
X18100D02*
X18283D01*
X17917D02*
X18100D01*
X17917Y5217D02*
Y5583D01*
Y5217D02*
X18100D01*
X18441Y4821D02*
X18834D01*
X18441Y4979D02*
X18834D01*
Y4821D02*
Y4979D01*
X18100Y4717D02*
X18283D01*
Y4900D01*
Y5083D01*
X18100D02*
X18283D01*
X17917D02*
X18100D01*
X17917Y4717D02*
Y5083D01*
Y4717D02*
X18100D01*
X17107Y8365D02*
Y9295D01*
X19193Y8365D02*
Y9295D01*
X17107Y8365D02*
X19193D01*
X17107Y9295D02*
X19193D01*
X18650Y8619D02*
Y8830D01*
X18861D01*
X18650D02*
Y9041D01*
X18439Y8830D02*
X18650D01*
Y8619D02*
X18861D01*
Y8830D01*
Y9041D01*
X18650D02*
X18861D01*
X18439Y9041D02*
X18650Y9041D01*
X18439Y8619D02*
Y9041D01*
Y8619D02*
X18650Y8619D01*
X17650Y9041D02*
X17861Y9041D01*
Y8619D02*
Y9041D01*
X17650Y8619D02*
X17861Y8619D01*
X17439Y8619D02*
X17650D01*
X17439D02*
Y8830D01*
Y9041D01*
X17650D01*
Y8830D02*
X17861D01*
X17650Y8619D02*
Y8830D01*
X17439D02*
X17650D01*
Y9041D01*
X18861Y8619D02*
X19193Y8619D01*
X18861Y9041D02*
X19193Y9041D01*
X17107Y8619D02*
X17439Y8619D01*
X17107Y9041D02*
X17439Y9041D01*
X11029Y11421D02*
Y11579D01*
X10871Y11421D02*
X11029D01*
X10871D02*
Y11579D01*
X11029D01*
X11257Y11331D02*
Y11669D01*
X10643Y11331D02*
Y11669D01*
Y11331D02*
X11257D01*
X10643Y11669D02*
X11257D01*
D16*
X2474Y9520D02*
X4026D01*
X2474Y8480D02*
X4026D01*
X2474D02*
Y9520D01*
X4026Y8480D02*
Y9520D01*
D90*
X14908Y10188D02*
X14908Y14912D01*
X14908Y10188D02*
X19632D01*
Y14912D01*
X14908D02*
X19632D01*
X19160Y11763D02*
Y13337D01*
X19632D01*
X19160Y11763D02*
X19632Y11763D01*
X10856Y11863D02*
Y12177D01*
X11604Y11863D02*
Y12177D01*
X10994Y11863D02*
Y12177D01*
X11466Y11863D02*
Y12177D01*
X10856D02*
X11604D01*
X10856Y11863D02*
X11604D01*
X2887Y10646D02*
Y11394D01*
X2573Y10646D02*
Y11394D01*
Y11256D02*
X2887D01*
X2573Y10784D02*
X2887D01*
X2573Y11394D02*
X2887D01*
X2573Y10646D02*
X2887D01*
X3907D02*
Y11394D01*
X3593Y10646D02*
Y11394D01*
Y11256D02*
X3907D01*
X3593Y10784D02*
X3907D01*
X3593Y11394D02*
X3907D01*
X3593Y10646D02*
X3907D01*
X3397D02*
Y11394D01*
X3083Y10646D02*
Y11394D01*
Y11256D02*
X3397D01*
X3083Y10784D02*
X3397D01*
X3083Y11394D02*
X3397D01*
X3083Y10646D02*
X3397D01*
X2063D02*
Y11394D01*
X2377Y10646D02*
Y11394D01*
X2063Y10784D02*
X2377D01*
X2063Y11256D02*
X2377D01*
X2063Y10646D02*
X2377D01*
X2063Y11394D02*
X2377D01*
X4103Y10656D02*
Y11404D01*
X4417Y10656D02*
Y11404D01*
X4103Y10794D02*
X4417D01*
X4103Y11266D02*
X4417D01*
X4103Y10656D02*
X4417D01*
X4103Y11404D02*
X4417D01*
X4613Y10656D02*
Y11404D01*
X4927Y10656D02*
Y11404D01*
X4613Y10794D02*
X4927D01*
X4613Y11266D02*
X4927D01*
X4613Y10656D02*
X4927D01*
X4613Y11404D02*
X4927D01*
X2917Y6886D02*
Y7634D01*
X2603Y6886D02*
Y7634D01*
Y7496D02*
X2917D01*
X2603Y7024D02*
X2917D01*
X2603Y7634D02*
X2917D01*
X2603Y6886D02*
X2917D01*
X1697Y10646D02*
Y11394D01*
X1383Y10646D02*
Y11394D01*
Y11256D02*
X1697D01*
X1383Y10784D02*
X1697D01*
X1383Y11394D02*
X1697D01*
X1383Y10646D02*
X1697D01*
X4447Y6886D02*
Y7634D01*
X4133Y6886D02*
Y7634D01*
Y7496D02*
X4447D01*
X4133Y7024D02*
X4447D01*
X4133Y7634D02*
X4447D01*
X4133Y6886D02*
X4447D01*
X3937D02*
Y7634D01*
X3623Y6886D02*
Y7634D01*
Y7496D02*
X3937D01*
X3623Y7024D02*
X3937D01*
X3623Y7634D02*
X3937D01*
X3623Y6886D02*
X3937D01*
X19680Y270D02*
Y700D01*
X19480D02*
X19480Y270D01*
X18975Y249D02*
Y485D01*
X19211D01*
X20030Y270D02*
Y700D01*
X19211Y270D02*
X20030D01*
X19211Y700D02*
X19211Y670D01*
X19211Y700D02*
X20030D01*
X16849Y2551D02*
X19211Y2551D01*
X16849Y189D02*
X19211Y189D01*
X16849Y2551D02*
X16849Y189D01*
X19211Y189D02*
X19211Y2551D01*
X4140Y300D02*
Y730D01*
X3940Y300D02*
Y730D01*
X3435Y279D02*
Y515D01*
X3671Y515D01*
X4490Y300D02*
Y730D01*
X3671Y300D02*
X4490D01*
X3671Y700D02*
Y730D01*
X4490Y730D01*
X1309Y2581D02*
X3671Y2581D01*
X1309Y219D02*
X3671D01*
X1309D02*
Y2581D01*
X3671Y219D02*
Y2581D01*
X12774Y13431D02*
Y13549D01*
X12656Y13431D02*
X12774D01*
X12656Y13549D02*
X12774D01*
X12144Y13913D02*
X12656Y13913D01*
X12144Y13067D02*
X12656D01*
Y13913D01*
X12144Y13067D02*
Y13913D01*
X4426Y14431D02*
Y14549D01*
X4544D01*
X4426Y14431D02*
X4544D01*
Y14067D02*
X5056Y14067D01*
X4544Y14913D02*
X5056D01*
X4544Y14067D02*
Y14913D01*
X5056Y14067D02*
Y14913D01*
X13431Y13064D02*
X13549D01*
Y12946D02*
Y13064D01*
X13431Y12946D02*
Y13064D01*
X13067Y12434D02*
X13067Y12946D01*
X13913Y12434D02*
Y12946D01*
X13067D02*
X13913D01*
X13067Y12434D02*
X13913D01*
X4426Y13471D02*
Y13589D01*
X4544D01*
X4426Y13471D02*
X4544D01*
Y13107D02*
X5056Y13107D01*
X4544Y13953D02*
X5056D01*
X4544Y13107D02*
Y13953D01*
X5056Y13107D02*
Y13953D01*
X13211Y13876D02*
X13329D01*
X13211D02*
Y13994D01*
X13329Y13876D02*
Y13994D01*
X13693D02*
X13693Y14506D01*
X12847Y13994D02*
Y14506D01*
Y13994D02*
X13693D01*
X12847Y14506D02*
X13693D01*
X4426Y12521D02*
Y12639D01*
X4544D01*
X4426Y12521D02*
X4544D01*
Y12157D02*
X5056Y12157D01*
X4544Y13003D02*
X5056D01*
X4544Y12157D02*
Y13003D01*
X5056Y12157D02*
Y13003D01*
X9653Y11056D02*
Y11804D01*
X9967Y11056D02*
Y11804D01*
X9653Y11194D02*
X9967D01*
X9653Y11666D02*
X9967D01*
X9653Y11056D02*
X9967D01*
X9653Y11804D02*
X9967D01*
X7093Y9395D02*
Y10143D01*
X7407Y9395D02*
Y10143D01*
X7093Y9533D02*
X7407D01*
X7093Y10005D02*
X7407D01*
X7093Y9395D02*
X7407D01*
X7093Y10143D02*
X7407D01*
X6516Y4363D02*
X7264D01*
X6516Y4677D02*
X7264D01*
X7126Y4363D02*
Y4677D01*
X6654Y4363D02*
Y4677D01*
X7264Y4363D02*
Y4677D01*
X6516Y4363D02*
Y4677D01*
X14267Y3166D02*
Y3914D01*
X13953Y3166D02*
Y3914D01*
Y3776D02*
X14267D01*
X13953Y3304D02*
X14267D01*
X13953Y3914D02*
X14267D01*
X13953Y3166D02*
X14267D01*
X14797Y9396D02*
Y10144D01*
X14483Y9396D02*
Y10144D01*
Y10006D02*
X14797D01*
X14483Y9534D02*
X14797D01*
X14483Y10144D02*
X14797D01*
X14483Y9396D02*
X14797D01*
X11566Y11467D02*
X12314D01*
X11566Y11153D02*
X12314D01*
X11704D02*
Y11467D01*
X12176Y11153D02*
Y11467D01*
X11566Y11153D02*
Y11467D01*
X12314Y11153D02*
Y11467D01*
X20623Y14436D02*
X21294D01*
X20623Y14386D02*
X21294D01*
X20623Y14597D02*
X21293D01*
X20625Y13475D02*
X21294D01*
Y14597D01*
X21293D02*
X21294D01*
X20623Y13475D02*
Y14597D01*
Y13475D02*
X20625D01*
X20850Y13278D02*
X21066Y13278D01*
X20850Y14794D02*
X21066D01*
X20850Y13278D02*
Y13475D01*
X20858D01*
X21066D02*
X21066Y13278D01*
X21058Y13475D02*
X21066D01*
X20850Y14597D02*
Y14794D01*
Y14597D02*
X20858D01*
X21066D02*
Y14794D01*
X21058Y14597D02*
X21066D01*
X6516Y4873D02*
X7264D01*
X6516Y5187D02*
X7264D01*
X7126Y4873D02*
Y5187D01*
X6654Y4873D02*
Y5187D01*
X7264Y4873D02*
Y5187D01*
X6516Y4873D02*
Y5187D01*
X13383Y3166D02*
Y3914D01*
X13697Y3166D02*
Y3914D01*
X13383Y3304D02*
X13697D01*
X13383Y3776D02*
X13697D01*
X13383Y3166D02*
X13697D01*
X13383Y3914D02*
X13697D01*
X16122Y7754D02*
X16318D01*
X16122Y8226D02*
X16318D01*
Y7754D02*
Y8226D01*
X16122Y7754D02*
Y8226D01*
X23138Y900D02*
Y13100D01*
X22420Y1500D02*
X22580D01*
X22500Y1380D02*
Y1620D01*
X22420D02*
X22580D01*
X22420Y1380D02*
X22580D01*
Y1620D01*
X22420Y1380D02*
Y1620D01*
Y12380D02*
Y12620D01*
X22580Y12380D02*
Y12620D01*
X22420Y12380D02*
X22580D01*
X22420Y12620D02*
X22580D01*
X22500Y12380D02*
Y12620D01*
X22420Y12500D02*
X22580D01*
X22420Y11380D02*
Y11620D01*
X22580Y11380D02*
Y11620D01*
X22420Y11380D02*
X22580D01*
X22420Y11620D02*
X22580D01*
X22500Y11380D02*
Y11620D01*
X22420Y11500D02*
X22580D01*
X22420Y10380D02*
Y10620D01*
X22580Y10380D02*
Y10620D01*
X22420Y10380D02*
X22580D01*
X22420Y10620D02*
X22580D01*
X22500Y10380D02*
Y10620D01*
X22420Y10500D02*
X22580D01*
X22420Y9380D02*
Y9620D01*
X22580Y9380D02*
Y9620D01*
X22420Y9380D02*
X22580D01*
X22420Y9620D02*
X22580D01*
X22500Y9380D02*
Y9620D01*
X22420Y9500D02*
X22580D01*
X22420Y8380D02*
Y8620D01*
X22580Y8380D02*
Y8620D01*
X22420Y8380D02*
X22580D01*
X22420Y8620D02*
X22580D01*
X22500Y8380D02*
Y8620D01*
X22420Y8500D02*
X22580D01*
X22420Y7380D02*
Y7620D01*
X22580Y7380D02*
Y7620D01*
X22420Y7380D02*
X22580D01*
X22420Y7620D02*
X22580D01*
X22500Y7380D02*
Y7620D01*
X22420Y7500D02*
X22580D01*
X22420Y6380D02*
Y6620D01*
X22580Y6380D02*
Y6620D01*
X22420Y6380D02*
X22580D01*
X22420Y6620D02*
X22580D01*
X22500Y6380D02*
Y6620D01*
X22420Y6500D02*
X22580D01*
X22420Y5380D02*
Y5620D01*
X22580Y5380D02*
Y5620D01*
X22420Y5380D02*
X22580D01*
X22420Y5620D02*
X22580D01*
X22500Y5380D02*
Y5620D01*
X22420Y5500D02*
X22580D01*
X22420Y4380D02*
Y4620D01*
X22580Y4380D02*
Y4620D01*
X22420Y4380D02*
X22580D01*
X22420Y4620D02*
X22580D01*
X22500Y4380D02*
Y4620D01*
X22420Y4500D02*
X22580D01*
X22420Y3380D02*
Y3620D01*
X22580Y3380D02*
Y3620D01*
X22420Y3380D02*
X22580D01*
X22420Y3620D02*
X22580D01*
X22500Y3380D02*
Y3620D01*
X22420Y3500D02*
X22580D01*
X22420Y2380D02*
Y2620D01*
X22580Y2380D02*
Y2620D01*
X22420Y2380D02*
X22580D01*
X22420Y2620D02*
X22580D01*
X22500Y2380D02*
Y2620D01*
X22420Y2500D02*
X22580D01*
X23138Y900D02*
X26548D01*
Y13100D01*
X22580Y1620D02*
X23138D01*
X22580Y1380D02*
X23138D01*
X22580Y2380D02*
X23138D01*
X22580Y2620D02*
X23138D01*
X22580Y3380D02*
X23138D01*
X22580Y3620D02*
X23138D01*
X22580Y4380D02*
X23138D01*
X22580Y4620D02*
X23138D01*
X22580Y5380D02*
X23138D01*
X22580Y5620D02*
X23138D01*
X22580Y6380D02*
X23138D01*
X22580Y6620D02*
X23138D01*
X22580Y7380D02*
X23138D01*
X22580Y7620D02*
X23138D01*
X22580Y8380D02*
X23138D01*
X22580Y8620D02*
X23138D01*
X22580Y9380D02*
X23138D01*
X22580Y9620D02*
X23138D01*
X22580Y10380D02*
X23138D01*
X22580Y10620D02*
X23138D01*
X22580Y11380D02*
X23138D01*
X22580Y11620D02*
X23138D01*
X22580Y12380D02*
X23138D01*
X22580Y12620D02*
X23138D01*
X23138Y13100D02*
X26548D01*
X8313Y1816D02*
Y2564D01*
X8627Y1816D02*
Y2564D01*
X8313Y1954D02*
X8627D01*
X8313Y2426D02*
X8627D01*
X8313Y1816D02*
X8627D01*
X8313Y2564D02*
X8627D01*
X8450Y356D02*
Y556D01*
X8174Y356D02*
X8450Y356D01*
X8174Y556D02*
X8450Y556D01*
Y1104D02*
Y1304D01*
X8174Y1104D02*
X8450D01*
X8174Y1304D02*
X8450Y1304D01*
X7190Y1104D02*
Y1304D01*
Y1304D02*
X7466D01*
X7190Y1104D02*
X7466D01*
X7190Y356D02*
Y556D01*
Y556D02*
X7466D01*
X7190Y356D02*
X7466D01*
X7190Y730D02*
X7466D01*
X7190Y730D02*
Y730D01*
Y930D02*
X7466D01*
X7190D02*
Y930D01*
Y730D02*
Y930D01*
X7466Y220D02*
X8174D01*
X7466Y1440D02*
X8174D01*
X7466Y220D02*
Y1440D01*
X8174Y220D02*
Y1440D01*
X9813Y2788D02*
Y2796D01*
X9616D02*
X9813D01*
Y2580D02*
Y2588D01*
X9616Y2580D02*
X9813D01*
X10935Y2788D02*
Y2796D01*
X11132Y2796D01*
X10935Y2580D02*
Y2588D01*
Y2580D02*
X11132D01*
X9616D02*
Y2796D01*
X11132D02*
X11132Y2580D01*
X10935Y2353D02*
Y2355D01*
X9813Y2353D02*
X10935D01*
X9813Y3023D02*
Y3024D01*
X10935D01*
Y2355D02*
Y3024D01*
X9813Y2353D02*
Y3023D01*
X10024Y2353D02*
Y3024D01*
X9974Y2353D02*
Y3024D01*
X8136Y1897D02*
Y2723D01*
X7604Y1897D02*
Y2723D01*
Y2094D02*
X8136D01*
X7604Y2723D02*
X8136D01*
X7604Y2527D02*
X8136D01*
X7604Y1897D02*
X8136D01*
X6526Y2973D02*
X7274D01*
X6526Y3287D02*
X7274D01*
X7136Y2973D02*
Y3287D01*
X6664Y2973D02*
Y3287D01*
X7274Y2973D02*
Y3287D01*
X6526Y2973D02*
Y3287D01*
X9147Y1816D02*
Y2564D01*
X8833Y1816D02*
Y2564D01*
Y2426D02*
X9147D01*
X8833Y1954D02*
X9147D01*
X8833Y2564D02*
X9147D01*
X8833Y1816D02*
X9147D01*
X11459Y3015D02*
Y3173D01*
X11715D01*
X11459Y3015D02*
X11715D01*
X11459Y2267D02*
Y2425D01*
X11715D01*
X11459Y2267D02*
X11715D01*
X12641Y3173D02*
X12641Y3015D01*
X12385D02*
X12641D01*
X12385Y3173D02*
X12641D01*
X12641Y2267D02*
Y2425D01*
X12385Y2267D02*
X12641Y2267D01*
X12385Y2425D02*
X12641D01*
X11459Y2799D02*
X11715D01*
X11459Y2641D02*
X11715D01*
X12385Y2799D02*
X12641D01*
X12385Y2641D02*
X12641D01*
X11715Y3330D02*
X12385Y3330D01*
X11715Y2110D02*
X12385Y2110D01*
X11459Y2641D02*
Y2799D01*
X11715Y2110D02*
Y3330D01*
X12385Y2110D02*
Y3330D01*
X12641Y2641D02*
Y2799D01*
X6492Y1366D02*
X6688D01*
X6492Y894D02*
X6688D01*
X6492D02*
Y1366D01*
X6688Y894D02*
Y1366D01*
X14306Y1237D02*
X15054D01*
X14306Y923D02*
X15054D01*
X14444D02*
Y1237D01*
X14916Y923D02*
Y1237D01*
X14306Y923D02*
Y1237D01*
X15054Y923D02*
Y1237D01*
X876Y12153D02*
X1624D01*
X876Y12467D02*
X1624D01*
X1486Y12153D02*
Y12467D01*
X1014Y12153D02*
Y12467D01*
X1624Y12153D02*
Y12467D01*
X876Y12153D02*
Y12467D01*
X2893Y3558D02*
Y3566D01*
X2696D02*
X2893D01*
Y3350D02*
Y3358D01*
X2696Y3350D02*
X2893D01*
X4015Y3558D02*
Y3566D01*
X4212Y3566D01*
X4015Y3350D02*
Y3358D01*
Y3350D02*
X4212D01*
X2696D02*
Y3566D01*
X4212D02*
X4212Y3350D01*
X4015Y3123D02*
Y3125D01*
X2893Y3123D02*
X4015D01*
X2893Y3793D02*
Y3794D01*
X4015D01*
Y3125D02*
Y3794D01*
X2893Y3123D02*
Y3793D01*
X3104Y3123D02*
Y3794D01*
X3054Y3123D02*
Y3794D01*
X4984Y10108D02*
X5516D01*
X4984Y9478D02*
X5516D01*
X4984Y9282D02*
X5516D01*
X4984Y9912D02*
X5516D01*
Y9282D02*
Y10108D01*
X4984Y9282D02*
Y10108D01*
X1854Y4357D02*
X2386D01*
X1854Y4987D02*
X2386D01*
X1854Y5183D02*
X2386D01*
X1854Y4554D02*
X2386D01*
X1854Y4357D02*
Y5183D01*
X2386Y4357D02*
Y5183D01*
X3212Y4994D02*
X3408D01*
X3212Y5466D02*
X3408D01*
Y4994D02*
Y5466D01*
X3212Y4994D02*
Y5466D01*
D91*
X234Y11083D02*
X746D01*
X234Y11437D02*
X746D01*
Y11083D02*
Y11437D01*
X234Y11083D02*
Y11437D01*
X244Y9988D02*
X756D01*
X244Y10342D02*
X756D01*
Y9988D02*
Y10342D01*
X244Y9988D02*
Y10342D01*
M02*
