G04*
G04 #@! TF.GenerationSoftware,Altium Limited,Altium Designer,18.1.9 (240)*
G04*
G04 Layer_Color=16711935*
%FSLAX24Y24*%
%MOIN*%
G70*
G01*
G75*
%ADD12C,0.0070*%
%ADD16C,0.0050*%
%ADD18C,0.0150*%
D12*
X25000Y0D02*
Y1000D01*
X20500Y0D02*
X25000D01*
X26476Y1000D02*
Y13000D01*
X23130D02*
X26476D01*
X23130Y1000D02*
Y13000D01*
Y1000D02*
X26476D01*
D16*
X22980Y290D02*
Y90D01*
X23080D01*
X23113Y123D01*
Y157D01*
X23080Y190D01*
X22980D01*
X23080D01*
X23113Y223D01*
Y257D01*
X23080Y290D01*
X22980D01*
X23280D02*
X23213D01*
X23180Y257D01*
Y123D01*
X23213Y90D01*
X23280D01*
X23313Y123D01*
Y257D01*
X23280Y290D01*
X23380Y90D02*
Y223D01*
X23447Y290D01*
X23513Y223D01*
Y90D01*
Y190D01*
X23380D01*
X23580Y90D02*
Y290D01*
X23680D01*
X23713Y257D01*
Y190D01*
X23680Y157D01*
X23580D01*
X23646D02*
X23713Y90D01*
X23780Y290D02*
Y90D01*
X23880D01*
X23913Y123D01*
Y257D01*
X23880Y290D01*
X23780D01*
X24313D02*
X24180D01*
Y90D01*
X24313D01*
X24180Y190D02*
X24246D01*
X24380Y290D02*
Y90D01*
X24480D01*
X24513Y123D01*
Y257D01*
X24480Y290D01*
X24380D01*
X24713Y257D02*
X24679Y290D01*
X24613D01*
X24579Y257D01*
Y123D01*
X24613Y90D01*
X24679D01*
X24713Y123D01*
Y190D01*
X24646D01*
X24913Y290D02*
X24779D01*
Y90D01*
X24913D01*
X24779Y190D02*
X24846D01*
D18*
X-13772Y14D02*
X-13439Y-485D01*
Y14D02*
X-13772Y-485D01*
M02*
