G04*
G04 #@! TF.GenerationSoftware,Altium Limited,Altium Designer,18.1.9 (240)*
G04*
G04 Layer_Color=32896*
%FSLAX24Y24*%
%MOIN*%
G70*
G01*
G75*
%ADD10C,0.0070*%
%ADD11C,0.0060*%
%ADD29C,0.0100*%
%ADD36C,0.0118*%
%ADD37C,0.0050*%
%ADD38R,0.0236X0.0778*%
D10*
X6334Y9725D02*
X6334Y9095D01*
X6846Y9095D02*
Y9725D01*
X10263Y7088D02*
X10263Y6714D01*
X10067Y6714D02*
X10263D01*
X9437Y6714D02*
X9633D01*
X9791Y7206D02*
X9909Y7206D01*
X9437Y7088D02*
X9437Y6714D01*
X70Y8350D02*
X218D01*
X70Y9650D02*
X218D01*
X3662Y8350D02*
X3810D01*
X3662Y9650D02*
X3810D01*
Y8350D02*
Y9650D01*
X70Y8350D02*
Y9650D01*
X8010Y8995D02*
X8410D01*
Y8695D02*
Y9295D01*
X8610D02*
Y9895D01*
Y8095D02*
Y8695D01*
X8120Y8095D02*
X9120D01*
X8120Y9895D02*
X9120D01*
X9800Y8480D02*
Y9480D01*
X8020Y7800D02*
X9220D01*
X7440Y8480D02*
Y9480D01*
X8020Y10160D02*
X9220D01*
X2291Y7080D02*
X2573D01*
X7907D02*
X8189D01*
X7313Y1208D02*
X7441Y1080D01*
X3039D02*
X3167Y1208D01*
X9390Y5346D02*
Y5981D01*
Y2379D02*
Y3014D01*
X1090Y2379D02*
Y3014D01*
Y5346D02*
Y5981D01*
Y2379D02*
X3039Y1080D01*
X7441D02*
X9390Y2379D01*
X1090Y5981D02*
X2291Y7080D01*
X8189D02*
X9390Y5981D01*
X5220Y275D02*
Y1060D01*
X5397Y883D01*
X5043D02*
X5220Y1060D01*
X5043Y883D02*
X5397D01*
X5150Y950D02*
X5330D01*
X5142Y942D02*
X5150Y950D01*
X1850Y6790D02*
Y6990D01*
X1750D01*
X1717Y6957D01*
Y6890D01*
X1750Y6857D01*
X1850D01*
X1783D02*
X1717Y6790D01*
X1517Y6990D02*
X1650D01*
Y6790D01*
X1517D01*
X1650Y6890D02*
X1583D01*
X1317Y6957D02*
X1350Y6990D01*
X1417D01*
X1450Y6957D01*
Y6923D01*
X1417Y6890D01*
X1350D01*
X1317Y6857D01*
Y6823D01*
X1350Y6790D01*
X1417D01*
X1450Y6823D01*
X1117Y6990D02*
X1250D01*
Y6790D01*
X1117D01*
X1250Y6890D02*
X1184D01*
X1050Y6990D02*
X917D01*
X984D01*
Y6790D01*
D11*
X8820Y7640D02*
X8870Y7690D01*
X8970D01*
X9020Y7640D01*
Y7590D01*
X8970Y7540D01*
X8870D01*
X8820Y7490D01*
Y7440D01*
X8870Y7390D01*
X8970D01*
X9020Y7440D01*
X8720Y7390D02*
X8620D01*
X8670D01*
Y7690D01*
X8720Y7640D01*
X6800Y9970D02*
Y10170D01*
X6700D01*
X6667Y10137D01*
Y10070D01*
X6700Y10037D01*
X6800D01*
X6733D02*
X6667Y9970D01*
X6600D02*
X6533D01*
X6567D01*
Y10170D01*
X6600Y10137D01*
X9090Y6700D02*
Y6900D01*
X9140Y6950D01*
X9240D01*
X9290Y6900D01*
Y6700D01*
X9240Y6650D01*
X9140D01*
X9190Y6750D02*
X9090Y6650D01*
X9140D02*
X9090Y6700D01*
X8990Y6650D02*
X8890D01*
X8940D01*
Y6950D01*
X8990Y6900D01*
X4200Y8560D02*
X4300D01*
X4250D01*
Y8310D01*
X4300Y8260D01*
X4350D01*
X4400Y8310D01*
X3900Y8260D02*
X4100D01*
X3900Y8460D01*
Y8510D01*
X3950Y8560D01*
X4050D01*
X4100Y8510D01*
X1160Y1970D02*
Y1670D01*
X1010D01*
X960Y1720D01*
Y1770D01*
X1010Y1820D01*
X1160D01*
X1010D01*
X960Y1870D01*
Y1920D01*
X1010Y1970D01*
X1160D01*
X860Y1670D02*
X760D01*
X810D01*
Y1970D01*
X860Y1920D01*
D29*
X8660Y8695D02*
G03*
X8660Y8695I-50J0D01*
G01*
Y9295D02*
G03*
X8660Y9295I-50J0D01*
G01*
X1489Y2983D02*
G03*
X8993Y2989I3751J1197D01*
G01*
X8994Y5367D02*
G03*
X1486Y5366I-3754J-1187D01*
G01*
D36*
X712Y5332D02*
Y5725D01*
X516Y5528D02*
X909D01*
X9567Y5528D02*
X9960D01*
X9764Y5332D02*
Y5725D01*
D37*
X3930Y10040D02*
X3880D01*
X3905D01*
Y10190D01*
X3930Y10165D01*
X3805D02*
X3780Y10190D01*
X3730D01*
X3705Y10165D01*
Y10140D01*
X3730Y10115D01*
X3755D01*
X3730D01*
X3705Y10090D01*
Y10065D01*
X3730Y10040D01*
X3780D01*
X3805Y10065D01*
X460Y10220D02*
X427D01*
X443D01*
Y10320D01*
X460Y10303D01*
D38*
X149Y9773D02*
D03*
M02*
